<svg width="17" height="17" viewBox="0 0 17 17" fill="none" xmlns="http://www.w3.org/2000/svg">
<g clip-path="url(#clip0)">
<path d="M4.27365 10.1157L3.70764 12.2287L1.63887 12.2725C1.02061 11.1257 0.669922 9.81374 0.669922 8.41951C0.669922 7.07129 0.997805 5.7999 1.579 4.68042H1.57944L3.42123 5.01808L4.22804 6.84882C4.05918 7.34112 3.96714 7.86959 3.96714 8.41951C3.9672 9.01633 4.07531 9.58815 4.27365 10.1157Z" fill="#FBBB00"/>
<path d="M16.7901 6.90063C16.8834 7.39246 16.9321 7.90039 16.9321 8.41949C16.9321 9.00158 16.8709 9.56937 16.7543 10.1171C16.3585 11.9808 15.3244 13.6082 13.8917 14.7599L13.8913 14.7594L11.5715 14.641L11.2431 12.5915C12.1937 12.034 12.9367 11.1615 13.328 10.1171H8.98047V6.90063H13.3914H16.7901Z" fill="#518EF8"/>
<path d="M13.8896 14.7594L13.8901 14.7599C12.4968 15.8798 10.7268 16.5499 8.80011 16.5499C5.70386 16.5499 3.01191 14.8193 1.63867 12.2725L4.27346 10.1157C4.96006 11.9482 6.72775 13.2526 8.80011 13.2526C9.69086 13.2526 10.5254 13.0118 11.2414 12.5915L13.8896 14.7594Z" fill="#28B446"/>
<path d="M13.989 2.16095L11.3551 4.31728C10.614 3.85404 9.73798 3.58644 8.79943 3.58644C6.68016 3.58644 4.87941 4.95072 4.2272 6.84888L1.57857 4.68048H1.57812C2.93126 2.07161 5.65716 0.289185 8.79943 0.289185C10.7722 0.289185 12.5809 0.991891 13.989 2.16095Z" fill="#F14336"/>
</g>
<defs>
<clipPath id="clip0">
<rect width="16.2608" height="16.2608" fill="white" transform="translate(0.669922 0.289185)"/>
</clipPath>
</defs>
</svg>
