<svg width="15" height="17" viewBox="0 0 15 17" fill="none" xmlns="http://www.w3.org/2000/svg">
<path d="M5.39487 13.7682C6.59558 13.7665 7.58256 12.8217 7.63514 11.6236V0.931577H9.59085C9.55095 0.708188 9.5319 0.481563 9.53397 0.254639L6.85906 0.254639V10.9363C6.81457 12.1405 5.82529 13.0944 4.61872 13.0963C4.25826 13.0933 3.90366 13.0047 3.58398 12.8379C3.79143 13.1247 4.06355 13.3585 4.37821 13.5201C4.69288 13.6817 5.04121 13.7667 5.39487 13.7682V13.7682ZM13.2988 4.56114V3.97479C12.5869 3.97516 11.8906 3.76593 11.2965 3.37314C11.8178 3.97584 12.5205 4.39275 13.2988 4.56114V4.56114Z" fill="#25F4EE"/>
<path d="M13.261 4.6355V6.70351C11.9188 6.70099 10.6115 6.27954 9.52415 5.49888V10.9326C9.51836 13.6441 7.30101 15.8391 4.56766 15.8391C3.55379 15.8413 2.56385 15.5307 1.73242 14.9498C3.11682 16.4269 5.27128 16.913 7.16352 16.1754C9.05576 15.4378 10.3003 13.6267 10.3007 11.61V6.19171C11.3917 6.96717 12.7007 7.38312 14.0428 7.38082V4.71821C13.7801 4.71739 13.5181 4.68967 13.261 4.6355V4.6355Z" fill="#FE2C55"/>
<path d="M9.55519 10.9116V5.44669C10.6479 6.22766 11.9576 6.64592 13.3001 6.64263V4.56259C12.5073 4.39597 11.7899 3.97631 11.2556 3.36664C10.3946 2.81155 9.80043 1.92775 9.61259 0.922852H7.641V11.6864C7.60162 12.6466 6.95644 13.4767 6.03353 13.7545C5.11063 14.0322 4.11252 13.6968 3.54661 12.9187C2.62756 12.4362 2.15584 11.392 2.40257 10.386C2.64922 9.38009 3.55106 8.67063 4.58981 8.66528C4.81621 8.66729 5.04114 8.70241 5.25739 8.7693V6.68941C3.29707 6.72253 1.54158 7.90711 0.782343 9.70924C0.023179 11.5113 0.403688 13.5904 1.75242 15.0091C2.59161 15.5737 3.5841 15.866 4.595 15.8462C7.33042 15.8462 9.54948 13.6386 9.55519 10.9116V10.9116Z" fill="black"/>
</svg>
