<svg width="50" height="50" viewBox="0 0 50 50" fill="none" xmlns="http://www.w3.org/2000/svg">
<path d="M49.4532 25C49.4532 38.5156 38.5157 49.4531 25.0001 49.4531C11.4844 49.4531 0.546936 38.5156 0.546936 25C0.546936 11.4844 11.4844 0.546875 25.0001 0.546875C38.5157 0.546875 49.4532 11.4844 49.4532 25ZM25.0001 2.03125C12.2657 2.03125 2.03131 12.2656 2.03131 25C2.03131 37.7344 12.3438 47.9688 25.0001 47.9688C37.7344 47.9688 47.9688 37.6563 47.9688 25C47.9688 12.2656 37.7344 2.03125 25.0001 2.03125Z" fill="url(#paint0_linear)"/>
<path d="M25.0001 2.03131C12.2657 2.03131 2.03131 12.2657 2.03131 25.0001C2.03131 37.7344 12.3438 47.9688 25.0001 47.9688C37.7344 47.9688 47.9688 37.6563 47.9688 25.0001C47.9688 12.2657 37.7344 2.03131 25.0001 2.03131ZM25.0001 46.4844C13.1251 46.4844 3.51569 36.8751 3.51569 25.0001C3.51569 13.1251 13.1251 3.51569 25.0001 3.51569C36.8751 3.51569 46.4844 13.1251 46.4844 25.0001C46.4844 36.8751 36.8751 46.4844 25.0001 46.4844Z" fill="url(#paint1_linear)"/>
<path opacity="0.4" d="M25 49.4531C38.5156 49.4531 49.4531 38.5156 49.4531 25C49.4531 11.4844 38.5156 0.546875 25 0.546875C11.4844 0.546875 0.546875 11.4844 0.546875 25C0.546875 38.5156 11.4844 49.4531 25 49.4531ZM25 0C38.75 0 50 11.25 50 25C50 38.75 38.75 50 25 50C11.25 50 0 38.75 0 25C0 11.25 11.25 0 25 0Z" fill="url(#paint2_linear)"/>
<path d="M1.71881 25.0781C1.71881 12.2656 12.1094 1.71875 25.0001 1.71875C37.8907 1.71875 48.2813 12.1875 48.2813 25.0781C48.2813 37.8906 37.8907 48.2813 25.0001 48.2813C12.1094 48.2813 1.71881 37.8906 1.71881 25.0781ZM8.98444 8.98438C4.84381 13.125 2.26569 18.8281 2.26569 25.0781C2.26569 31.3281 4.84381 37.0312 8.90631 41.0938C13.0469 45.1562 18.7501 47.7344 25.0001 47.7344C31.2501 47.7344 36.9532 45.2344 41.0157 41.0938C45.1563 37.0312 47.6563 31.3281 47.6563 25.0781C47.6563 18.8281 45.0782 13.125 41.0157 8.98438C36.9532 4.84375 31.2501 2.26563 25.0001 2.26563C18.7501 2.26563 13.0469 4.84375 8.98444 8.98438Z" fill="white"/>
<path opacity="0.4" d="M24.9999 46.5624C19.2187 46.5624 13.8281 44.2968 9.76556 40.2343C5.70306 36.1718 3.43744 30.7812 3.43744 24.9999C3.43744 19.2187 5.70306 13.8281 9.76556 9.76556C13.8281 5.70306 19.2187 3.43744 24.9999 3.43744C30.7812 3.43744 36.1718 5.70306 40.2343 9.76556C44.2968 13.8281 46.5624 19.2187 46.5624 24.9999C46.5624 30.7812 44.2968 36.1718 40.2343 40.2343C36.1718 44.2968 30.7812 46.5624 24.9999 46.5624ZM24.9999 45.9374C30.5468 45.9374 35.8593 43.7499 39.7656 39.8437C43.7499 35.8593 45.8593 30.6249 45.8593 25.0781C45.8593 19.5312 43.6718 14.2187 39.7656 10.3124C35.7812 6.32806 30.5468 4.21869 24.9999 4.21869C19.4531 4.21869 14.1406 6.40619 10.2343 10.3124C6.24994 14.1406 4.06244 19.4531 4.06244 24.9999C4.06244 30.5468 6.24994 35.8593 10.1562 39.7656C14.1406 43.7499 19.4531 45.9374 24.9999 45.9374Z" fill="url(#paint3_linear)"/>
<path d="M43.9843 35.1563C43.5937 34.8438 28.5156 22.8907 28.5156 22.8907L24.9999 2.81256C24.7656 2.89069 24.4531 3.12506 24.2968 3.43756L21.7968 22.9688L6.24994 34.9219C6.24994 34.9219 5.93744 35.3126 5.78119 35.5469C5.70306 35.7032 5.70306 35.9376 5.70306 36.1719L24.9218 28.2813L44.1406 36.1719C44.2968 35.7813 44.1406 35.3907 43.9843 35.1563Z" fill="white"/>
<path d="M25.1563 25.625L25 29.2188L42.6562 36.3281C43.2812 36.6406 43.75 36.4844 44.2187 36.1719L25.3906 25.5469C25.3125 25.4688 25.1563 25.5469 25.1563 25.625Z" fill="#565F64"/>
<path d="M25.1563 25.625C25.1563 25.625 26.1719 27.4219 27.3438 28.6719C28.9844 30.4688 31.1719 31.7188 31.1719 31.7188L42.6563 36.3281C43.2813 36.6406 43.75 36.4844 44.2188 36.1719L25.3907 25.5469C25.3126 25.4688 25.1563 25.5469 25.1563 25.625Z" fill="url(#paint4_linear)"/>
<path d="M44.1406 35.4687C44.1406 35.3906 44.0624 35.3124 43.9843 35.1562L27.8906 23.3593L25.7031 24.7656C25.7031 24.7656 25.8593 24.8437 25.9374 24.7656C26.1718 24.6874 26.6406 24.6093 27.1093 24.7656C27.4999 24.9218 44.1406 35.5468 44.1406 35.4687C44.1406 35.5468 44.1406 35.5468 44.1406 35.4687Z" fill="#A4AAAE" fill-opacity="0.6"/>
<path d="M43.5938 34.7656L28.5938 22.8906L27.8907 23.3594L43.9844 35.2344C43.9063 35.0781 43.75 34.9219 43.5938 34.7656Z" fill="#333E46"/>
<path d="M25.3906 24.4531L25.3124 24.5312C25.3124 24.5312 25.3124 24.6875 25.4687 24.6094C25.5468 24.5313 27.8124 23.3594 28.5937 22.8906L25.8593 4.14063C25.7812 3.4375 25.4687 3.125 24.9218 2.89062L25.2343 24.6094L25.3906 24.4531Z" fill="#565F64"/>
<path d="M24.0624 4.14063V5.15625L22.3437 22.4219C22.3437 22.6562 22.4218 22.8906 22.6562 23.0469L23.6718 23.8281L24.3749 4.76562L24.4531 3.28125C24.2187 3.4375 24.1406 3.75 24.0624 4.14063ZM23.1249 24.1406L22.1874 23.3594L6.32806 34.8437C6.32806 34.8437 5.85931 35.1562 5.78119 35.4687L6.32806 35.1562L22.9687 24.6875C23.2812 24.5312 23.3593 24.375 23.1249 24.1406Z" fill="#A4AAAE" fill-opacity="0.6"/>
<path d="M24.7656 25.625C24.7656 25.5469 24.6875 25.4688 24.6093 25.5469L5.70306 36.25C6.17181 36.5625 6.64056 36.6406 7.26556 36.4063L24.9218 29.2969L24.7656 25.625Z" fill="#565F64"/>
<path d="M25.3124 24.5312L25.3906 24.4531L25.3124 24.5312C25.3124 24.5312 25.3124 24.6093 25.3906 24.6093H25.4687C25.5468 24.5312 27.8124 23.3593 28.5937 22.8906L28.2812 20.6249L25.8593 4.14056C25.8593 3.82806 25.7812 3.59369 25.6249 3.43744C25.6249 3.43744 26.7968 19.2187 26.7968 20.9374C26.7968 23.2031 25.3124 24.5312 25.3124 24.5312Z" fill="url(#paint5_linear)"/>
<path d="M24.7656 25.625C24.7656 25.5469 24.6875 25.4688 24.6093 25.5469L5.70306 36.25C6.17181 36.5625 6.64056 36.6406 7.26556 36.4063L24.9218 29.2969L24.7656 25.625Z" fill="url(#paint6_linear)" fill-opacity="0.8"/>
<path opacity="0.8" d="M7.26569 36.3281L24.9219 29.2187L24.7657 25.7812C24.4532 26.7187 23.9063 27.7344 22.4219 28.5156C21.3282 29.1406 10.8594 34.2969 7.10944 36.0937C6.87506 36.25 6.56256 36.3281 6.40631 36.4062C6.71881 36.5625 6.95319 36.4844 7.26569 36.3281Z" fill="url(#paint7_linear)"/>
<path d="M25.3906 24.4531L25.3124 24.5312C25.3124 24.5312 25.3124 24.6875 25.4687 24.6094C25.5468 24.5313 27.8124 23.3594 28.5937 22.8906L25.8593 4.14063C25.7812 3.4375 25.4687 3.125 24.9218 2.89062L25.2343 24.6094L25.3906 24.4531Z" fill="url(#paint8_linear)"/>
<path d="M25.3906 24.4531L25.3124 24.5312C25.3124 24.5312 25.3124 24.6875 25.4687 24.6094C25.5468 24.5313 27.8124 23.3594 28.5937 22.8906L25.8593 4.14063C25.7812 3.4375 25.4687 3.125 24.9218 2.89062L25.2343 24.6094L25.3906 24.4531Z" fill="url(#paint9_linear)"/>
<path d="M3.98444 34.6875C3.43756 33.4375 0.312561 27.3437 3.75006 15.625H2.42194C1.71881 17.9687 1.17194 19.375 0.859436 21.4844C0.859436 21.4844 0.703186 22.2656 0.625061 23.125C0.546936 23.9844 0.546936 24.4531 0.546936 25C0.546936 29.6875 1.71881 32.4219 1.71881 32.4219C2.96881 36.3281 5.15631 39.8438 8.12506 42.5C10.7032 44.7656 14.6876 46.4844 17.9688 47.1094C17.4219 47.0312 8.04694 43.0469 3.98444 34.6875Z" fill="url(#paint10_linear)"/>
<path d="M25.3125 25.4688H24.6094C24.6875 25.4688 24.7656 25.4688 24.7656 25.5469L24.9219 29.1407H25L25.1563 25.5469C25.1563 25.4688 25.2344 25.3906 25.3125 25.4688Z" fill="url(#paint11_linear)"/>
<path d="M32.8125 1.79688C41.0156 4.92187 48.75 13.5156 48.75 24.375C48.75 37.5 38.2812 48.2031 25 48.2031V49.4531C38.2812 49.4531 49.4531 38.5156 49.4531 25C49.4531 14.2187 42.5781 5.15625 32.8125 1.79688Z" fill="url(#paint12_linear)"/>
<path d="M45.9375 15.7813C40.4688 3.20319 28.125 2.50006 27.4219 2.42194H27.3438C36.7969 4.14069 42.8125 10.3126 44.9219 16.7969V16.8751C45.8594 19.3751 46.3281 22.0313 46.4063 24.9219C46.4844 27.6563 45.8594 30.7032 44.6875 33.5157C44.6094 33.9063 44.5313 34.3751 44.4531 34.3751H45.7031C49.4531 27.3438 47.8125 20.2344 45.9375 15.7813Z" fill="url(#paint13_linear)"/>
<path d="M1.71881 25.0781C1.71881 12.2656 12.1094 1.71875 25.0001 1.71875C37.8907 1.71875 48.2813 12.1875 48.2813 25.0781C48.2813 37.8906 37.8907 48.2813 25.0001 48.2813C12.1094 48.2813 1.71881 37.8906 1.71881 25.0781ZM8.98444 8.98438C4.84381 13.125 2.26569 18.8281 2.26569 25.0781C2.26569 31.3281 4.84381 37.0312 8.90631 41.0938C13.0469 45.1562 18.7501 47.7344 25.0001 47.7344C31.2501 47.7344 36.9532 45.2344 41.0157 41.0938C45.1563 37.0312 47.6563 31.3281 47.6563 25.0781C47.6563 18.8281 45.0782 13.125 41.0157 8.98438C36.9532 4.84375 31.2501 2.26563 25.0001 2.26563C18.7501 2.26563 13.0469 4.84375 8.98444 8.98438Z" fill="#FBFBFB"/>
<path d="M6.17181 34.9999L22.1093 23.5156C22.9687 23.9843 24.3749 24.6093 24.5312 24.6093C24.6874 24.6874 24.6874 24.5312 24.6874 24.5312L22.7343 22.8906C22.4999 22.7343 22.4218 22.4999 22.4218 22.2656L24.2968 3.43744C24.2187 3.51556 24.2187 3.67181 24.1406 3.74994C24.0624 3.90619 24.0624 3.98431 24.0624 4.14056L21.3281 22.9687L6.32806 34.7656C6.24994 34.8437 6.17181 34.9218 6.17181 34.9999Z" fill="#333F47"/>
<defs>
<linearGradient id="paint0_linear" x1="6.2485" y1="9.29531" x2="43.7516" y2="40.7047" gradientUnits="userSpaceOnUse">
<stop stop-color="white"/>
<stop offset="0.1" stop-color="#CDD0D0"/>
<stop offset="0.2" stop-color="#A5ACAF"/>
<stop offset="0.3" stop-color="#98A0A4"/>
<stop offset="0.4" stop-color="#828A8F"/>
<stop offset="0.5" stop-color="#667075"/>
<stop offset="0.6" stop-color="#535C63"/>
<stop offset="0.7" stop-color="#475158"/>
<stop offset="0.8" stop-color="#434D54"/>
<stop offset="1" stop-color="#475157"/>
</linearGradient>
<linearGradient id="paint1_linear" x1="7.39928" y1="10.2024" x2="42.5555" y2="39.7337" gradientUnits="userSpaceOnUse">
<stop stop-color="#0B1F2A"/>
<stop offset="0.2" stop-color="#333F47"/>
<stop offset="0.5" stop-color="#81898D"/>
<stop offset="0.7" stop-color="#B3B8B8"/>
<stop offset="0.8" stop-color="#DEE0DD"/>
<stop offset="1" stop-color="#FBFBFB"/>
</linearGradient>
<linearGradient id="paint2_linear" x1="33.5445" y1="48.4867" x2="16.4352" y2="1.45625" gradientUnits="userSpaceOnUse">
<stop stop-color="#E1E3E1"/>
<stop offset="0.1" stop-color="#C1C5C4"/>
<stop offset="0.3" stop-color="#9BA1A2"/>
<stop offset="0.5" stop-color="#7D8487"/>
<stop offset="0.7" stop-color="#687074" stop-opacity="0"/>
<stop offset="0.8" stop-color="#5B6469" stop-opacity="0"/>
<stop offset="1" stop-color="#576065" stop-opacity="0"/>
</linearGradient>
<linearGradient id="paint3_linear" x1="14.2195" y1="6.32885" x2="35.7804" y2="43.671" gradientUnits="userSpaceOnUse">
<stop stop-color="#E1E3E1"/>
<stop offset="0.1" stop-color="#C1C5C4"/>
<stop offset="0.3" stop-color="#9BA1A2"/>
<stop offset="0.5" stop-color="#7D8487"/>
<stop offset="0.7" stop-color="#687074" stop-opacity="0"/>
<stop offset="0.8" stop-color="#5B6469" stop-opacity="0"/>
<stop offset="1" stop-color="#576065" stop-opacity="0"/>
</linearGradient>
<linearGradient id="paint4_linear" x1="34.7563" y1="30.7758" x2="33.4282" y2="32.9633" gradientUnits="userSpaceOnUse">
<stop stop-color="#27343C"/>
<stop offset="1" stop-color="#00111E" stop-opacity="0"/>
</linearGradient>
<linearGradient id="paint5_linear" x1="30.9218" y1="22.7437" x2="28.7343" y2="19.2281" gradientUnits="userSpaceOnUse">
<stop offset="0.1" stop-color="#02131F"/>
<stop offset="0.9" stop-color="#02131F" stop-opacity="0"/>
</linearGradient>
<linearGradient id="paint6_linear" x1="24.9859" y1="28.3875" x2="21.7046" y2="29.325" gradientUnits="userSpaceOnUse">
<stop offset="0.2" stop-color="#02131F"/>
<stop offset="0.9" stop-color="#02131F" stop-opacity="0"/>
</linearGradient>
<linearGradient id="paint7_linear" x1="16.243" y1="32.7375" x2="15.7743" y2="31.5656" gradientUnits="userSpaceOnUse">
<stop stop-color="#02131F"/>
<stop offset="0.1" stop-color="#02131F"/>
<stop offset="1" stop-color="#02131F" stop-opacity="0"/>
</linearGradient>
<linearGradient id="paint8_linear" x1="27.814" y1="13.4484" x2="25.1578" y2="13.7609" gradientUnits="userSpaceOnUse">
<stop offset="0.3" stop-color="#02131F"/>
<stop offset="0.8" stop-color="#02131F" stop-opacity="0"/>
</linearGradient>
<linearGradient id="paint9_linear" x1="27.8968" y1="13.4039" x2="26.0992" y2="13.6383" gradientUnits="userSpaceOnUse">
<stop offset="0.4" stop-color="#27343C"/>
<stop offset="1" stop-color="#3B474E" stop-opacity="0"/>
</linearGradient>
<linearGradient id="paint10_linear" x1="-0.281189" y1="25.6492" x2="21.5157" y2="38.2273" gradientUnits="userSpaceOnUse">
<stop stop-color="#25323B" stop-opacity="0"/>
<stop offset="0.1" stop-color="#27343C"/>
</linearGradient>
<linearGradient id="paint11_linear" x1="24.9609" y1="29.2188" x2="24.9609" y2="25.4688" gradientUnits="userSpaceOnUse">
<stop offset="0.3" stop-color="#A5ABAF"/>
<stop offset="1" stop-color="#A5ABAF" stop-opacity="0"/>
</linearGradient>
<linearGradient id="paint12_linear" x1="37.2266" y1="1.79688" x2="37.2266" y2="49.4531" gradientUnits="userSpaceOnUse">
<stop stop-color="#6B7378"/>
<stop offset="0.2" stop-color="#333F47"/>
<stop offset="0.5" stop-color="#27343C"/>
<stop offset="0.8" stop-color="#333F47"/>
<stop offset="1" stop-color="#434D54"/>
</linearGradient>
<linearGradient id="paint13_linear" x1="44.757" y1="6.32272" x2="34.2102" y2="21.7915" gradientUnits="userSpaceOnUse">
<stop offset="0.7" stop-color="#49545B"/>
<stop offset="0.8" stop-color="white" stop-opacity="0"/>
</linearGradient>
</defs>
</svg>
