<svg width="115" height="27" viewBox="0 0 115 27" fill="none" xmlns="http://www.w3.org/2000/svg">
<path d="M57.4993 21.4009C57.2891 21.4009 57.1347 21.5599 57.1329 21.5635C57.1237 21.571 53.4025 25.1614 53.4025 25.1614C52.0304 26.5006 50.2084 25.9401 50.0138 25.8748C50.0138 25.8748 34.1076 21.4874 34.1054 21.486C31.07 20.56 30.4669 19.5612 30.0023 18.3481C30.0023 18.3481 29.7324 17.594 29.0718 17.3965C29.0718 17.3965 9.6277 11.6249 9.62594 11.6249C8.83245 11.3773 8.39578 11.1508 8.08382 10.54C8.08382 10.54 7.01653 8.63995 7.013 8.63459C6.77629 8.17913 6.3474 8.13091 6.32267 8.12733C4.85192 7.92658 4.42091 7.09747 4.23861 6.74453L3.37128 5.2042C3.09995 4.72695 2.71204 4.68659 2.70003 4.68516C1.86379 4.63157 1.46598 4.41831 1.12011 3.84426C1.12011 3.84426 0.272214 2.41824 0.268681 2.41109C-0.148202 1.63235 -0.00405957 1.07509 0.188131 0.744302C0.593708 0.0659405 1.33491 0.0145008 1.63238 0.00378418H48.1269C49.4432 0.00378418 50.507 0.407086 51.2934 1.20476C51.8583 1.77381 52.2473 2.51647 52.4487 3.41095C52.4522 3.43203 52.5069 3.61886 52.9047 3.61886H62.0945C62.4927 3.61886 62.5471 3.43239 62.5506 3.41095C62.752 2.51647 63.141 1.77381 63.7059 1.20476C64.4923 0.407086 65.5557 0.00378418 66.8728 0.00378418H113.367C113.665 0.0141436 114.406 0.0659405 114.811 0.743945C115.003 1.07473 115.147 1.63199 114.73 2.41074C114.727 2.41788 113.879 3.8439 113.879 3.8439C113.533 4.41796 113.136 4.63122 112.299 4.6848C112.287 4.68623 111.899 4.7266 111.628 5.20384L110.76 6.74418C110.578 7.09711 110.147 7.92622 108.677 8.12698C108.652 8.13055 108.223 8.17877 107.986 8.63423C107.982 8.63959 106.915 10.5396 106.915 10.5396C106.604 11.1505 106.167 11.3773 105.374 11.6245C105.372 11.6245 85.9279 17.3961 85.9279 17.3961C85.2672 17.5937 84.9973 18.3478 84.9973 18.3478C84.5331 19.5609 83.93 20.5597 80.8942 21.4856C80.8924 21.487 64.9859 25.8744 64.9859 25.8744C64.7912 25.9398 62.9693 26.5003 61.5971 25.161C61.5971 25.161 57.8763 21.5703 57.8664 21.5631C57.865 21.5595 57.7106 21.4006 57.5004 21.4006H57.4993V21.4009V21.4009Z" fill="black"/>
<path d="M63.3954 3.60103C63.5582 2.87266 63.8691 2.27538 64.3157 1.8235C64.934 1.19729 65.7953 0.878653 66.8707 0.878653H88.2296C87.4955 1.43413 87.11 2.13678 87.0842 2.18358C86.7908 2.73565 86.4827 3.27965 86.1604 3.815H63.3201C63.3675 3.73106 63.3957 3.60103 63.3954 3.60103V3.60103ZM113.969 1.99139L113.135 3.39348C112.979 3.65354 112.883 3.77106 112.242 3.81214L86.9471 3.81572C87.199 3.38521 87.4421 2.94954 87.6763 2.50901C87.6834 2.49579 88.5794 0.881154 90.1702 0.881154L113.343 0.87901C113.586 0.88937 113.901 0.916876 114.069 1.19586C114.089 1.23337 114.136 1.31125 114.136 1.45163C114.136 1.57595 114.097 1.75277 113.969 1.99139V1.99139ZM110.876 4.77092L109.992 6.33876C109.872 6.5706 109.686 6.92889 109.096 7.13501C108.603 7.25968 107.621 7.18037 107.282 7.13858L85.7665 5.69327C86.0445 5.27639 86.3027 4.87523 86.5373 4.49444H111.061C110.997 4.57695 110.934 4.66662 110.876 4.77092V4.77092ZM107.218 8.22488C107.224 8.2181 106.372 9.7345 106.195 10.0492C106.151 10.1081 105.909 10.3743 105.121 10.2685L84.5045 7.47222C84.7871 7.09857 85.0549 6.72778 85.3061 6.36948L107.207 7.83873C107.239 7.84266 107.331 7.85302 107.463 7.86481C107.367 7.97471 107.285 8.09557 107.218 8.22488V8.22488ZM100.127 12.2711C99.3512 12.479 97.8331 12.2436 97.306 12.1329L83.1394 9.18866C83.4496 8.82037 83.747 8.45529 84.0293 8.09378L104.734 10.9037L100.127 12.2711ZM93.105 14.3548C92.1087 14.6245 90.8086 14.1883 90.7963 14.1847L90.7807 14.1797C90.7807 14.1797 90.7789 14.178 90.7772 14.178L81.2952 11.2205C81.7534 10.7514 82.1993 10.2702 82.6324 9.77736L97.1703 12.7987C97.2021 12.8037 97.4999 12.8659 97.9179 12.9252L93.105 14.3548ZM85.6979 16.5545C85.0249 16.7396 84.0325 16.3466 83.7032 16.1787C83.7032 16.1787 81.1659 14.9778 78.5604 13.7454C79.3192 13.1166 80.0512 12.4556 80.7547 11.7642L90.5878 14.8324C90.6069 14.8395 90.7857 14.8985 91.0595 14.9606L85.6979 16.5545V16.5545ZM84.1802 18.0549C83.8937 18.7972 83.5944 19.562 81.5775 20.3282C80.7448 20.5897 79.7545 19.8453 79.746 19.837C79.7425 19.8335 77.497 18.2085 74.9399 16.3584C75.9902 15.7024 77.0036 14.9878 77.9753 14.218L83.4086 16.7896C83.4386 16.805 83.9989 17.0911 84.6776 17.219C84.3533 17.5926 84.2063 17.9788 84.1802 18.0549V18.0549ZM76.5802 21.7689L75.8231 21.9764C75.1854 22.1307 74.4074 21.492 74.1587 21.2266C74.1587 21.2266 72.9367 19.941 71.3663 18.2831C72.3737 17.8214 73.3565 17.3068 74.3107 16.7414L79.3465 20.3843C79.3669 20.4014 79.6545 20.6194 80.0771 20.8047C78.9585 21.1127 76.5802 21.7685 76.5802 21.7689V21.7689ZM69.9224 23.605C69.3907 23.6897 68.7739 22.8073 68.5951 22.4783L67.0763 19.8792C68.3125 19.5204 69.5255 19.0845 70.7085 18.5743L73.6708 21.6999C73.697 21.726 74.0248 22.07 74.5004 22.3419L69.9224 23.605ZM64.8806 24.9942C64.5227 25.0775 64.2207 25.041 63.961 24.8824C63.4039 24.5377 63.2184 23.745 63.2081 23.6986L62.4334 20.8723C63.7719 20.6855 65.098 20.4168 66.4044 20.0678L68.0111 22.818C68.0662 22.9163 68.3923 23.491 68.8809 23.8926L64.8806 24.9942V24.9942ZM61.613 23.9686C61.613 23.9686 59.4587 21.89 58.7281 21.187C59.7533 21.1509 60.7651 21.0748 61.7586 20.9569L62.5507 23.8468C62.5733 23.9472 62.7315 24.5809 63.1714 25.0846C62.5644 24.9099 62.3804 24.7281 61.613 23.9686V23.9686ZM57.8363 20.5258V11.721H59.2262L61.5763 20.2943C60.3532 20.4361 59.1068 20.514 57.8363 20.5258V20.5258ZM53.4216 20.2943L55.7731 11.721H57.1633V20.5247C55.8904 20.514 54.6444 20.4347 53.4216 20.2943V20.2943ZM52.8044 24.5273C52.5314 24.7954 52.1944 24.9875 51.8262 25.085C52.2692 24.5795 52.4232 23.9444 52.4465 23.8458L53.239 20.9609C54.2324 21.0766 55.2443 21.1527 56.2692 21.1873C55.4485 21.9761 52.8044 24.5273 52.8044 24.5273V24.5273ZM51.7898 23.6932C51.7898 23.7018 51.6071 24.5291 51.0355 24.8824C50.7762 25.041 50.4752 25.0778 50.1173 24.9942L46.1166 23.8922C46.6052 23.4885 46.9349 22.9141 46.9914 22.8088C46.9896 22.8105 47.669 21.6492 48.5907 20.0692C49.8977 20.4187 51.2247 20.6868 52.5642 20.8719L51.7898 23.6932ZM45.0751 23.605L40.4976 22.3415C40.9724 22.0682 41.3016 21.7239 41.3267 21.6982C41.3267 21.6982 42.6353 20.3164 44.2887 18.5739C45.4715 19.0841 46.6842 19.5205 47.9198 19.8806L46.4074 22.4715C46.2233 22.807 45.6065 23.6897 45.0751 23.605V23.605ZM39.1734 21.9764L34.9202 20.8047C35.1811 20.6913 35.4286 20.5485 35.6578 20.3789C35.6543 20.3825 38.0341 18.6604 40.6866 16.7417C41.6416 17.3066 42.625 17.8211 43.6327 18.2831L40.8385 21.2266C40.5901 21.492 39.8118 22.1307 39.1734 21.9764V21.9764ZM33.4151 20.3286C31.4063 19.562 31.1053 18.7993 30.8199 18.0588C30.7038 17.7512 30.5345 17.4669 30.32 17.2193C30.7631 17.1306 31.193 16.9845 31.5992 16.7846C31.5936 16.7864 34.316 15.5007 37.0236 14.218C37.9938 14.989 39.0066 15.7037 40.057 16.3584L35.2583 19.8303C35.2427 19.846 34.2478 20.5936 33.4151 20.3286V20.3286ZM29.3014 16.5545C29.0986 16.4935 26.8443 15.824 23.9385 14.9606C24.1005 14.9252 24.2607 14.8812 24.4182 14.8288C24.4098 14.8324 32.3864 12.344 34.244 11.7642C34.9477 12.4549 35.6797 13.1154 36.4382 13.7439L31.3042 16.1737C30.9647 16.3466 29.9744 16.7396 29.3014 16.5545ZM21.8982 14.3562C20.2915 13.8799 18.6849 13.4029 17.0786 12.9252C17.3301 12.8907 17.5803 12.848 17.829 12.7969C17.8276 12.7991 28.0925 10.6651 32.3669 9.77772C32.8006 10.2696 33.246 10.7508 33.7027 11.2209L24.2101 14.1819C24.1886 14.1883 22.8941 14.6231 21.8982 14.3562V14.3562ZM14.8773 12.2733C13.3403 11.8147 11.8028 11.3582 10.2647 10.9037L30.9718 8.09378C31.2544 8.45351 31.5505 8.81858 31.8603 9.18759L17.6919 12.1332C17.1662 12.2436 15.6549 12.479 14.8773 12.2733V12.2733ZM9.87891 10.2689C9.09566 10.3746 8.84977 10.1132 8.80455 10.051L7.774 8.21631C7.70842 8.09023 7.62825 7.97247 7.53518 7.86552C7.66731 7.85338 29.696 6.36984 29.696 6.36984C29.9563 6.7419 30.2228 7.10942 30.4955 7.47222L9.87891 10.2689V10.2689ZM5.90368 7.13465C5.31298 6.92889 5.12574 6.5706 5.00491 6.33841C4.64385 5.71756 4.16867 4.7895 3.93515 4.49372H28.4631C28.7127 4.89814 28.9699 5.29782 29.2343 5.69255L7.71606 7.13786C7.37832 7.18002 6.39652 7.25932 5.90368 7.13465V7.13465ZM2.76293 3.815C2.17223 3.77035 2.04645 3.69962 1.86062 3.39098C1.86274 3.39313 1.08974 2.09392 1.02827 1.99139C0.900027 1.75277 0.857632 1.57595 0.863284 1.45128C0.877416 1.13264 1.09186 0.887226 1.65572 0.878296L24.8291 0.880439C26.3977 0.880439 27.3226 2.50865 27.3226 2.50865C27.5572 2.94923 27.8009 3.38477 28.0536 3.815H2.76293V3.815ZM48.1265 0.878296C49.204 0.878296 50.0629 1.19694 50.6819 1.8235C51.1288 2.27503 51.4386 2.8723 51.6036 3.60103C51.6036 3.60103 51.6368 3.7257 51.6792 3.81536H28.8393C28.4903 3.23595 27.9148 2.18394 27.9148 2.18394C27.8897 2.1375 27.5035 1.43449 26.769 0.87901L48.1265 0.878296V0.878296ZM81.2005 5.38856V4.49372H85.7417C85.4974 4.88076 85.2462 5.26328 84.9882 5.64111L81.2005 5.38856V5.38856ZM81.2005 7.02534V6.09478L84.5165 6.31626C84.2717 6.66026 84.0095 7.01141 83.7364 7.37006L81.2005 7.02534ZM81.2005 8.78751V7.71084L83.2514 7.98948C82.9762 8.33419 82.6868 8.68177 82.3855 9.03292C81.8566 8.92254 81.4489 8.8393 81.2005 8.78751ZM81.2005 9.48158L81.87 9.61947C81.6508 9.86504 81.4276 10.1069 81.2005 10.345V9.48158V9.48158ZM74.2824 11.721H79.8248C79.2599 12.2886 77.9266 13.3871 77.8828 13.4239C76.5353 12.7848 75.2211 12.1654 74.2824 11.721V11.721ZM68.5301 11.721H72.6954L77.2896 13.8947C76.3451 14.6266 75.3619 15.3058 74.3442 15.9294C72.127 14.3237 69.791 12.633 68.5301 11.721ZM65.1413 11.721H67.3759L73.7093 16.307C72.7887 16.8408 71.8413 17.3259 70.871 17.7605C68.7855 15.5629 66.2733 12.913 65.1413 11.721V11.721ZM62.3108 11.721H64.2083L70.2093 18.0481C69.0719 18.526 67.9074 18.9351 66.722 19.2733L62.3108 11.721V11.721ZM61.5289 11.721L66.0497 19.4562C64.7995 19.7834 63.5312 20.0348 62.2514 20.2093L59.9239 11.7206H61.5289V11.721ZM53.469 11.721H55.074L52.7465 20.2096C51.4669 20.035 50.1986 19.7841 48.9483 19.4584C50.6419 16.5617 52.9019 12.6916 53.469 11.721V11.721ZM50.7893 11.721H52.6875L48.276 19.2733C47.0898 18.9359 45.925 18.5261 44.7879 18.0459C47.1942 15.5107 50.0901 12.4579 50.7893 11.721V11.721ZM47.622 11.721H49.8566L44.129 17.7605C43.1579 17.3257 42.2096 16.8406 41.2879 16.307C44.0365 14.3169 46.9017 12.2418 47.622 11.721V11.721ZM37.1148 13.4239C37.0643 13.3824 35.7366 12.2543 35.1728 11.721H40.7145L37.1148 13.4239V13.4239ZM42.3025 11.721H46.4668L40.653 15.928C39.6352 15.3056 38.6523 14.6268 37.7087 13.8947C39.891 12.8612 41.9121 11.906 42.3025 11.721V11.721ZM33.7917 9.48158V10.3378C33.5671 10.1019 33.3463 9.86231 33.1293 9.61911C33.3953 9.56303 33.6179 9.51766 33.7917 9.48158V9.48158ZM33.7917 7.71084V8.78715L32.6125 9.03292C32.3189 8.68993 32.0309 8.34207 31.7487 7.98948L33.7917 7.71084V7.71084ZM33.7917 6.09478V7.02534L31.2629 7.37006C30.9979 7.02313 30.7385 6.67182 30.4849 6.31626L33.7917 6.09478ZM33.7917 5.38856L30.0137 5.64111C29.7547 5.26378 29.5032 4.88124 29.2594 4.49372H33.7917V5.38856V5.38856Z" fill="white"/>
<path d="M34.4753 11.0409L34.4655 11.0305V4.49731H80.5292V11.0337C80.5278 11.0373 80.5257 11.0373 80.5243 11.0391L34.4753 11.0409V11.0409Z" fill="url(#paint0_linear)"/>
<path d="M37.5262 5.54077H37.334L35.3655 9.99352H35.8986L35.9071 9.9678C36.0664 9.4259 36.2717 8.90686 36.4709 8.40889L36.5123 8.30315H38.0346C38.2694 8.85006 38.4836 9.40582 38.6765 9.96923L38.6854 9.99352H39.4213L37.5262 5.54077V5.54077ZM36.6614 7.96344C36.7016 7.8652 37.2181 6.64137 37.2796 6.49633C37.3404 6.64137 37.8671 7.8652 37.9085 7.96344H36.6614ZM39.6332 9.67666L39.6495 9.69381C39.8819 9.95029 40.4062 10.07 40.6882 10.07C41.6117 10.07 42.2585 9.46733 42.2585 8.60286C42.2585 7.88592 41.7219 7.6748 41.2033 7.46726C40.7426 7.28186 40.3045 7.11075 40.3045 6.58135C40.3045 6.17948 40.6179 5.88906 41.0475 5.88906C41.3909 5.88906 41.6502 6.07232 41.7816 6.40774L41.7904 6.43168H41.9077L42.0918 5.86977L42.0713 5.85048C41.8205 5.62186 41.4343 5.54077 41.1594 5.54077C40.2985 5.54077 39.7431 6.02695 39.7431 6.78175C39.7431 7.55013 40.3098 7.77304 40.8086 7.97415C41.2598 8.15062 41.683 8.3203 41.683 8.84827C41.683 9.33802 41.322 9.72382 40.862 9.72382C40.4405 9.72382 40.161 9.54021 39.8887 9.09047L39.8781 9.07332H39.7608L39.6332 9.67666V9.67666ZM45.7342 5.63258H42.4959V6.09125L42.5376 6.08768C42.9746 6.03696 43.4141 6.01144 43.854 6.01123V10.0074H44.4761V6.01337C44.916 6.01337 45.336 6.03874 45.7289 6.08768L45.7727 6.09268V5.63258H45.7342V5.63258ZM47.9652 5.54077C46.5916 5.54077 45.6307 6.47705 45.6307 7.81483C45.6307 9.16441 46.5651 10.0696 47.9532 10.0696C49.3883 10.0696 50.3542 9.1244 50.3542 7.71946C50.3545 6.21377 49.1537 5.54077 47.9652 5.54077V5.54077ZM49.1152 9.29265C48.8096 9.61951 48.4263 9.78597 47.9702 9.78597C46.9647 9.78597 46.3143 9.04224 46.3143 7.89128C46.3143 6.616 46.9714 5.82476 48.0267 5.82476C48.5245 5.82476 48.9944 6.04624 49.2848 6.41632C49.6038 6.82819 49.6688 7.25757 49.6688 7.77161C49.6706 7.79947 49.6723 7.83055 49.6723 7.8602C49.6723 8.27851 49.5038 8.8722 49.1152 9.29265V9.29265ZM54.6675 5.63258H54.2817V8.86006H54.2747C54.2524 8.83398 51.3282 5.63258 51.3282 5.63258H51.0307V9.99352H51.455V6.61886H51.4639C51.4865 6.64494 54.1291 9.60272 54.1291 9.60272L54.4605 9.99388H54.706V5.63258H54.6675ZM61.6365 5.63258H61.4839L60.4392 7.54799C60.4392 7.54799 59.7782 8.76647 59.7182 8.87578C59.0738 7.78876 58.4933 6.64494 57.9994 5.6533L57.9892 5.63258H57.7698L57.7662 5.66901C57.7048 6.31308 57.3338 8.93793 57.1716 9.95029L57.1632 9.99352H57.686V9.95601C57.686 9.34159 57.7938 8.42568 57.9082 7.45476L57.9771 6.85427C58.0503 6.99573 58.8618 8.55392 59.1716 9.19585L59.5224 9.92636H59.6397L59.6496 9.90207C60.0103 9.06403 60.5198 8.1074 61.2168 6.84748C61.3154 7.59872 61.4461 9.09904 61.5185 9.95887L61.5224 9.99388H62.1831L62.1774 9.95065C62.0283 8.89292 61.8655 7.49298 61.675 5.66937L61.6711 5.63293H61.6365V5.63258V5.63258ZM64.5943 5.54077H64.4007L62.4314 9.99352H62.9677L62.9748 9.9678C63.1348 9.42089 63.3412 8.90007 63.5415 8.39782C63.5415 8.39782 63.5662 8.33566 63.5782 8.3028H65.1016C65.336 8.84977 65.5497 9.40553 65.7425 9.96887L65.7509 9.99316H66.4876L64.5943 5.54077V5.54077ZM63.7284 7.96344C63.7686 7.8652 64.2855 6.64137 64.3473 6.49633L64.9762 7.96344H63.7284ZM68.3816 7.83912C69.1598 7.68016 69.6255 7.23185 69.6255 6.62601C69.6255 5.96015 69.163 5.63293 68.2102 5.63293H66.8585V9.99388H67.4792V7.90342H67.6605C67.8211 8.09584 67.982 8.28791 68.1434 8.47962C68.1413 8.47748 68.8744 9.43661 68.8744 9.43661L69.2757 9.99388H70.0887C70.0887 9.99352 68.4554 7.93093 68.3816 7.83912V7.83912ZM67.4792 7.59014V5.94264C67.735 5.9305 68.1318 5.91335 68.3469 5.94836C68.7776 6.01873 68.9963 6.27307 68.9963 6.70031C68.9963 7.13862 68.7119 7.45833 68.2325 7.55585C67.9629 7.6105 67.6372 7.6005 67.4792 7.59014V7.59014ZM73.216 5.63258H69.9763V6.09125L70.0187 6.08768C70.4552 6.03703 70.8943 6.01151 71.3336 6.01123V10.0074H71.959V6.01337C72.3971 6.01337 72.8182 6.03874 73.2114 6.08768L73.2548 6.09268V5.63258H73.216V5.63258ZM73.7661 9.99352H74.3529V5.63258H73.7661V9.99352ZM78.5189 5.63258V8.86006H78.5136C78.4906 8.83398 75.5671 5.63258 75.5671 5.63258H75.2689V9.99352H75.6936V6.61886H75.701C75.7236 6.64494 78.3698 9.60272 78.3698 9.60272L78.7012 9.99388H78.9432V5.63258H78.5189Z" fill="white"/>
<defs>
<linearGradient id="paint0_linear" x1="47.7769" y1="-2.06067" x2="67.4298" y2="17.3761" gradientUnits="userSpaceOnUse">
<stop stop-color="#339966"/>
<stop offset="1" stop-color="#004F32"/>
</linearGradient>
</defs>
</svg>
