<svg width="41" height="53" viewBox="0 0 41 53" fill="none" xmlns="http://www.w3.org/2000/svg">
<path d="M40.4233 3.78302C38.3308 2.97241 36.1692 2.23092 34.0076 1.69052C30.9663 0.949035 27.9312 0.477752 24.8207 0.20755C23.3378 0.0755912 21.9176 0.00646973 20.4284 0.00646973H20.2964C18.7443 0.00646973 17.3933 0.0755912 15.9041 0.20755C12.7999 0.471469 9.76481 0.942751 6.72347 1.69052C4.56185 2.23092 2.40023 2.97241 0.307739 3.78302C0.238617 3.85214 0.175781 3.85214 0.175781 3.85214C0.175781 3.85214 0.445983 19.5239 0.647064 27.2906C0.716185 29.5842 1.11835 31.8149 1.85983 33.9765C2.73956 36.4084 3.95233 38.771 5.37246 40.9327C6.85543 43.1634 8.68401 45.1868 10.7765 46.8771C11.5871 47.5495 12.4668 48.159 13.3403 48.7685C14.7604 49.6483 16.2434 50.3897 17.7326 50.9993C18.2039 51.2003 18.6752 51.4014 19.0836 51.5397C19.4858 51.6716 19.8943 51.8099 20.3655 51.9418C20.7677 51.8099 21.2453 51.7407 21.6474 51.5397C22.0496 51.4077 22.458 51.2003 22.9984 50.9993C24.5505 50.3897 25.9707 49.6483 27.3908 48.7685C28.2705 48.2281 29.144 47.5558 29.9546 46.8771C32.0471 45.1868 33.8694 43.1634 35.3586 40.9327C36.7787 38.771 37.9915 36.4084 38.8712 33.9765C39.6127 31.8149 40.0212 29.5842 40.084 27.2906C40.2851 19.5239 40.5553 3.85214 40.5553 3.85214C40.4924 3.78302 40.4924 3.78302 40.4233 3.78302Z" fill="url(#paint0_linear)"/>
<path d="M19.8254 43.6282H8.34499C9.22472 44.5707 10.0982 45.4505 11.1161 46.2611C11.9267 46.9334 12.7373 47.543 13.6171 48.0834C14.9681 48.894 16.3882 49.6355 17.8712 50.245C18.3425 50.4461 18.7509 50.6471 19.1531 50.7854C19.4233 50.8545 19.6935 50.9865 19.8946 51.0556L19.8254 43.6282ZM19.8254 35.0508C18.0723 34.9189 16.4511 34.2402 15.1629 33.0903C15.0938 33.0212 15.0309 32.9583 14.8927 32.8892H2.19946C2.26858 33.1594 2.40054 33.4296 2.46966 33.6998C2.94095 35.0508 3.55047 36.4018 4.22284 37.6146H19.8254V35.0508ZM39.4811 21.88H28.2708V26.8128H39.3491C39.4119 25.3927 39.4119 23.7086 39.4811 21.88ZM39.6821 11.6187H20.5669V16.344H39.613C39.613 14.7228 39.613 13.1016 39.6821 11.6187Z" fill="#B12B28"/>
<path d="M39.481 31.9468C39.2108 32.9585 38.8715 33.9073 38.8715 33.9073C37.9918 36.3391 36.779 38.7018 35.3589 40.8634C33.8759 43.0942 32.0473 45.1176 29.9549 46.8079C29.1442 47.4803 28.2645 48.0898 27.3911 48.6993C25.9709 49.579 24.488 50.3205 22.9987 50.93C22.5274 51.1311 22.0562 51.3322 21.6477 51.4704C21.2455 51.6024 20.8371 51.7406 20.3658 51.8726C19.9637 51.7406 19.4861 51.6715 19.0839 51.4704C18.6818 51.3385 18.2733 51.1311 17.7329 50.93C16.1808 50.3205 14.7607 49.579 13.3406 48.6993C12.4608 48.1589 11.5874 47.4865 10.7768 46.8079C9.02362 45.3878 7.46524 43.7665 6.11423 41.9443L6.18335 42.0134C7.53436 43.9048 9.15557 45.5951 10.9087 47.009C11.7194 47.6813 12.5991 48.2909 13.5416 48.9004C14.8927 49.7801 16.3128 50.5216 17.7958 51.1311C18.267 51.3322 18.7383 51.5333 19.1468 51.6715C19.5552 51.8098 19.9574 51.9417 20.4287 52.0737C20.8308 51.9417 21.3084 51.8035 21.7105 51.6715C22.1127 51.5396 22.5211 51.3322 23.0616 51.1311C24.6136 50.5216 26.0338 49.7801 27.4539 48.9004C28.3336 48.36 29.2071 47.6876 30.0177 47.009C32.1102 45.3186 33.9325 43.2953 35.4217 41.0645C36.8419 38.9029 38.0546 36.5402 38.9344 34.1084C39.0726 33.4297 39.2737 32.6883 39.481 31.9468ZM39.8141 4.72549C39.745 4.72549 39.745 4.65637 39.6821 4.65637H39.613C37.5896 3.84576 35.4908 3.1734 33.3984 2.63299C30.4953 1.96063 27.523 1.42022 24.5508 1.21286C23.0678 1.0809 21.7797 1.01178 20.2967 1.01178H20.1647C18.6818 1.01178 17.3936 1.0809 15.9106 1.21286C12.9384 1.48306 9.96618 1.95434 7.06308 2.63299C4.97058 3.1734 2.94093 3.84576 0.917554 4.65637C-1.10582 5.46697 0.848434 4.65637 0.848434 4.72549V4.45528L0.980391 4.38616C3.00377 3.57556 5.03342 2.90319 7.12592 2.36279C10.029 1.69043 13.0012 1.15002 15.9735 0.942658C17.4564 0.810699 18.7446 0.741577 20.2276 0.741577H20.3595C21.8425 0.741577 23.1307 0.810699 24.6136 0.942658C27.5859 1.21286 30.5581 1.68414 33.4612 2.36279C35.5537 2.90319 37.6462 3.57556 39.6758 4.38616H39.745C39.8141 4.38616 39.8141 4.45528 39.8769 4.45528L39.8141 4.72549ZM19.8254 6.6169C18.5435 6.6169 17.3245 6.68602 15.9735 6.81798C13.0012 7.08818 10.029 7.55947 7.12592 8.23811C5.03342 8.77852 2.94093 9.45088 0.911272 10.2615V9.99129C2.93465 9.18068 4.9643 8.50832 7.12592 7.96791C10.029 7.29555 13.0012 6.75514 15.9735 6.54778C17.2554 6.41582 18.4744 6.41582 19.8254 6.3467V6.6169Z" fill="#613E18"/>
<path d="M34.1463 35.9999V36.1318C34.1463 36.2009 34.1463 36.2009 34.0771 36.2638C33.6059 36.3957 33.1974 36.6031 32.8644 36.8733L32.7953 36.9424V36.8733C32.7953 36.8042 32.8644 36.7413 32.9272 36.6722C33.1974 36.402 33.6059 36.2009 34.1463 35.9999C34.1463 36.0627 34.1463 36.0627 34.1463 35.9999ZM31.9155 34.718C31.5762 34.8499 31.2432 35.1201 30.973 35.3903C30.7719 35.5914 30.6336 35.7925 30.5708 36.0627V36.1318C30.6399 35.9307 30.7719 35.7297 30.973 35.5223C31.2432 35.2521 31.5825 34.9819 31.9155 34.8499L31.9847 34.7808L31.9155 34.718ZM29.5528 34.2404C29.0816 34.5106 28.6103 34.9819 28.3401 35.5223C28.2081 35.7925 28.139 36.0627 28.139 36.402V36.4711C28.139 36.2009 28.2081 35.9307 28.3401 35.6605C28.6103 35.1201 29.0124 34.718 29.49 34.4478C29.5591 34.3158 29.5591 34.2467 29.5591 34.1084C29.6157 34.1776 29.6157 34.1776 29.5528 34.2404ZM26.5115 34.8499C26.3104 34.9819 26.1722 35.1893 26.0402 35.3903C25.77 35.8616 25.638 36.402 25.7009 36.9424C25.7009 36.4711 25.8328 35.9999 26.0402 35.5914C26.1722 35.3903 26.3104 35.1892 26.4424 35.051C26.5115 34.9819 26.5115 34.919 26.5115 34.8499ZM21.5787 38.903C21.5787 38.903 21.6479 38.903 21.5787 38.903C21.3776 38.7019 21.2394 38.4317 21.2394 38.2306C21.1703 38.5008 21.3085 38.771 21.5096 38.9721C21.5159 38.9721 21.5787 38.9721 21.5787 38.903ZM31.8464 29.0437C31.5071 29.1757 31.2369 29.383 31.0358 29.6532C30.8347 29.8543 30.6336 30.1937 30.5645 30.4639V30.533C30.6965 30.2628 30.8347 29.9926 31.0358 29.7915C31.2369 29.5213 31.5071 29.3202 31.8464 29.182C31.9155 29.1128 31.9155 29.05 31.9155 28.9118C31.9155 28.9746 31.9155 29.0437 31.8464 29.0437ZM34.8878 29.515C34.4856 29.5841 34.1463 29.7161 33.8069 29.9863C33.5367 30.1874 33.3357 30.4576 33.1346 30.7278C33.1346 30.7278 33.0655 30.7969 33.1346 30.8597C33.2665 30.5895 33.4739 30.3884 33.7441 30.2502C34.0834 29.98 34.4165 29.848 34.8249 29.7789C34.894 29.7789 34.894 29.7098 34.894 29.7098V29.515C34.9569 29.515 34.9569 29.515 34.8878 29.515ZM37.1813 31.0671C37.1813 31.0671 37.1813 31.1362 37.1813 31.0671C36.71 31.1362 36.3016 31.2682 35.9686 31.5384C35.8994 31.6075 35.7675 31.6703 35.6984 31.7395L35.6292 31.8086L35.6984 31.8777C35.7675 31.8086 35.8303 31.7457 35.8994 31.7457C36.2388 31.4755 36.6409 31.2745 37.1122 31.2745C37.1813 31.2682 37.1813 31.1362 37.1813 31.0671ZM23.6084 34.919C23.6084 34.9819 23.6084 34.9819 23.6084 34.919C23.6084 35.1893 23.4073 35.3903 23.2062 35.4595C22.936 35.5914 22.5967 35.5286 22.3956 35.3275C22.2637 35.5286 21.9935 35.5977 21.7233 35.5286C21.5222 35.4595 21.3211 35.3966 21.252 35.1892C21.1829 35.1201 21.1829 34.9882 21.1829 34.9882C20.9818 34.9882 20.7116 35.0573 20.5105 35.0573V35.2584C20.7116 35.2584 20.9818 35.2584 21.1829 35.1892C21.1829 35.2584 21.252 35.3212 21.252 35.3903C21.3839 35.5223 21.5222 35.6605 21.7233 35.7297C21.9935 35.7988 22.2637 35.6605 22.3956 35.5286C22.5967 35.7297 22.936 35.7988 23.2062 35.6605C23.4073 35.5914 23.5456 35.3903 23.6084 35.1892V34.919ZM24.2179 40.7944C23.9477 40.9955 23.5455 40.9955 23.2753 40.7944C23.1434 40.7253 23.0743 40.5933 22.936 40.455L22.8669 40.3859C22.6658 40.587 22.3956 40.6561 22.1254 40.6561C21.8552 40.6561 21.5159 40.455 21.3839 40.254C21.252 40.0529 21.1829 39.8518 21.1829 39.6444C21.1829 39.9146 21.252 40.1848 21.3839 40.455C21.5159 40.7253 21.7861 40.8572 22.0563 40.9263C22.3265 40.9263 22.5967 40.8572 22.8669 40.6561C22.8669 40.6561 22.936 40.6561 22.936 40.7253C23.0051 40.8572 23.1371 40.9955 23.2753 41.0646C23.5455 41.2657 23.9477 41.2657 24.2179 41.0646C24.4881 40.8635 24.6892 40.5242 24.6892 40.1848C24.6201 40.3859 24.4881 40.6561 24.2179 40.7944ZM31.2369 42.2145C31.0358 42.2836 30.8347 42.4156 30.6274 42.5538C30.3572 42.7549 30.087 43.0942 29.955 43.4336C30.087 43.1634 30.2943 42.8932 30.5645 42.6921C30.7656 42.5601 30.9667 42.491 31.1741 42.3527C31.306 42.4156 31.306 42.2773 31.2369 42.2145C31.306 42.2145 31.306 42.2145 31.2369 42.2145ZM29.6848 41.2657C29.6848 41.3348 29.6157 41.3348 29.6848 41.2657C29.0124 41.4667 28.472 41.8752 28.1327 42.4784V42.5475H28.2018C28.5411 42.0071 29.0124 41.605 29.622 41.3976C29.6157 41.4667 29.6848 41.4039 29.6848 41.2657ZM26.8508 41.0646C26.5806 41.3348 26.3104 41.605 26.1785 41.9443C26.0465 42.2145 25.9774 42.4847 26.0465 42.824V42.8932C26.0465 42.6229 26.1156 42.4219 26.1785 42.2208C26.3795 41.8815 26.5806 41.6113 26.8508 41.3411C26.8508 41.1965 26.9199 41.1337 26.8508 41.0646ZM24.419 42.0763C24.1488 42.4156 24.0168 42.8177 24.0797 43.289C24.0797 42.9497 24.1488 42.5475 24.419 42.2773C24.4881 42.1454 24.4881 42.0763 24.419 42.0763C24.419 42.0071 24.419 42.0071 24.419 42.0763ZM23.1999 44.439C23.2691 44.3698 23.2691 44.3698 23.1999 44.307C23.1308 44.1059 22.9989 43.9677 22.9989 43.7666C22.9297 43.6346 22.9297 43.4273 22.9297 43.2262C22.9297 43.4273 22.9297 43.6284 22.9989 43.8986C23.068 44.0996 23.068 44.307 23.1999 44.439ZM24.419 46.8017C24.2179 47.0027 23.9477 47.0027 23.7466 46.9336C23.5455 46.8645 23.3445 46.7325 23.2062 46.5315H23.1371C23.0051 46.8708 22.7349 47.0719 22.3956 47.2038C22.1945 47.2038 21.9243 47.1347 21.7861 47.0027C21.6479 46.8708 21.5159 46.6634 21.5159 46.4623C21.5159 47.0027 21.585 47.0719 21.7861 47.2038C21.9872 47.3358 22.1883 47.4049 22.4585 47.4049C22.7978 47.2729 23.068 47.0656 23.1999 46.7325C23.1999 46.7325 23.2691 46.6634 23.2691 46.7325C23.401 46.9336 23.6084 47.0719 23.8095 47.1347C24.0797 47.2038 24.3499 47.1347 24.4818 47.0027C24.6829 46.8017 24.752 46.5315 24.752 46.2612C24.6892 46.4686 24.551 46.6697 24.419 46.8017ZM21.7861 45.79C21.8552 45.79 21.8552 45.7208 21.8552 45.7208V45.6517C21.585 45.5198 21.3148 45.2496 21.3148 44.9794C21.3085 45.2496 21.5159 45.5889 21.7861 45.79ZM2.06134 14.0506C2.06134 14.0506 2.13046 13.9815 2.06134 13.9815C1.99222 13.8496 1.99222 13.7804 1.99222 13.6422C1.99851 13.7113 2.06134 13.8433 2.06134 14.0506ZM2.67087 24.7205C2.73999 24.6514 2.73999 24.6514 2.73999 24.5885C2.67087 24.4566 2.60803 24.3874 2.53891 24.2492C2.53891 24.1801 2.46979 24.1172 2.46979 23.979C2.46979 24.111 2.46979 24.3183 2.53891 24.4503C2.53262 24.5822 2.60175 24.6514 2.67087 24.7205ZM5.50485 25.6002C5.50485 25.8704 5.37289 26.0715 5.10269 26.1406C4.90161 26.2726 4.6314 26.3417 4.3612 26.2726C4.16012 26.2035 4.02188 26.0715 3.88992 25.9333C3.8208 25.8641 3.75796 25.9333 3.75796 26.0024C3.626 26.0715 3.41864 26.2035 3.28668 26.2726C2.94735 26.4045 2.54519 26.3417 2.34411 26.0024C2.21215 25.8704 2.21215 25.6631 2.14303 25.5311C2.14303 25.8013 2.21215 26.0024 2.27499 26.2035C2.47607 26.5428 2.88452 26.6056 3.21756 26.4737C3.41864 26.4045 3.55688 26.3417 3.68884 26.2035C3.75796 26.1343 3.75796 26.0715 3.8208 26.1343C3.95276 26.2663 4.16012 26.4045 4.29208 26.4737C4.56228 26.5428 4.83248 26.4737 5.03356 26.3417C5.44201 26.2726 5.57397 25.9333 5.50485 25.6002ZM4.76336 20.3281C4.76336 20.5983 4.6314 20.7994 4.3612 20.9377C3.95904 21.2079 3.48148 21.0696 3.2804 20.6675C3.07931 20.2653 3.14843 20.5983 3.14843 20.6675C2.94735 20.7994 2.60803 20.9377 2.33783 20.8685C2.06763 20.8685 1.79742 20.6675 1.7283 20.3973C1.65918 20.3281 1.65918 20.2653 1.65918 20.1271C1.65918 20.259 1.65918 20.3973 1.7283 20.5292C1.79742 20.7994 2.06763 21.0005 2.33783 21.0005C2.60803 21.0005 2.94735 20.9314 3.14843 20.7303H3.2804C3.48148 21.1325 4.02188 21.2707 4.43032 21.0696C4.6314 21.0068 4.76336 20.8685 4.76336 20.3281ZM2.19959 19.3164C2.26871 19.3164 2.26871 19.3164 2.19959 19.3164C2.26871 19.2473 2.26871 19.2473 2.26871 19.1845C2.13675 19.0525 2.06762 18.9143 2.06762 18.7132C2.06134 18.908 2.13046 19.1154 2.19959 19.3164ZM6.25262 20.6675C5.98242 20.9377 5.78133 21.3398 5.64309 21.7483C5.57397 22.0185 5.57397 22.3578 5.64309 22.628C5.64309 22.4269 5.64309 22.1567 5.71221 21.9556C5.78133 21.5535 5.98242 21.2141 6.25262 20.8748V20.6675C6.31545 20.5983 6.25262 20.6675 6.25262 20.6675ZM8.81639 19.7877C8.00579 20.259 7.60363 21.1387 7.73559 22.0185C7.66646 21.2079 8.07491 20.3973 8.81639 19.9951C8.88552 19.9888 8.81639 19.8569 8.81639 19.7877ZM10.0983 21.3398L10.1674 21.4089H10.2365C10.5067 20.6675 11.0471 20.0579 11.6567 19.5866V19.3164C11.6567 19.3164 11.6567 19.3856 11.5875 19.3856C10.978 19.8569 10.4376 20.5292 10.0983 21.3398ZM6.4537 15.6027C6.25262 15.7347 6.05154 15.9421 5.91329 16.1431C5.64309 16.5453 5.51113 17.0857 5.57397 17.6261V17.6952C5.57397 17.224 5.64309 16.8155 5.91329 16.4133C6.04525 16.2123 6.18349 16.0112 6.38457 15.9421L6.4537 15.6027ZM9.15572 14.9241C8.88552 15.0561 8.61531 15.3263 8.41423 15.5336C8.14403 15.8729 8.01207 16.2751 7.87383 16.6835C7.87383 16.7527 7.87383 16.8155 7.94295 16.8155C8.01207 16.4762 8.21315 16.1431 8.41423 15.8038C8.61531 15.5336 8.81639 15.3325 9.0866 15.1315C9.15572 15.1315 9.15572 15.0623 9.15572 14.9995V14.8675C9.22484 14.8613 9.22484 14.8613 9.15572 14.9241ZM12.329 14.8613C11.9269 14.8613 11.5184 14.9932 11.1791 15.2634C10.7769 15.4645 10.5067 15.8729 10.4376 16.2751C10.4376 16.3442 10.4376 16.4071 10.5067 16.4071C10.6387 16.0049 10.9089 15.7347 11.2482 15.4645C11.5875 15.2634 11.9206 15.0623 12.329 15.0623C12.3981 15.0623 12.3981 14.9932 12.3981 14.9304V14.7984L12.329 14.8613ZM13.68 16.3442L13.812 16.2751C14.2142 16.0049 14.6226 15.8729 15.0939 15.8038C15.163 15.8038 15.163 15.8038 15.163 15.6719V15.5399H15.0939C14.5535 15.6719 14.0131 15.8792 13.5418 16.2123C13.4727 16.2814 13.4098 16.3442 13.5418 16.3442H13.68ZM7.12606 9.72741C6.7239 9.99762 6.31546 10.3369 6.04525 10.7391C5.77505 11.1413 5.64309 11.6817 5.70593 12.1592H5.77505C5.77505 11.7571 5.90701 11.3486 6.17721 10.9465C6.51653 10.5443 6.84958 10.205 7.25802 9.93478V9.59546C7.19518 9.65829 7.19518 9.72741 7.12606 9.72741ZM10.6387 8.91681C10.2365 9.18701 9.8972 9.45721 9.55788 9.79654C9.21855 10.1359 9.01748 10.6071 9.01748 11.0784C9.01748 11.0784 9.01747 11.1475 9.0866 11.1475H9.15572C9.22484 10.7454 9.42592 10.4061 9.69612 10.0667C10.0354 9.72741 10.3685 9.45721 10.7078 9.25613V9.12417L10.6387 8.91681ZM14.2896 8.70944C13.7492 8.8414 13.2779 9.18073 12.8066 9.52005C12.5364 9.85937 12.3353 10.1924 12.2662 10.67H12.3353C12.4044 10.3307 12.6055 9.99762 12.8757 9.79025C13.2779 9.38809 13.8183 9.11789 14.3587 8.97965C14.4278 8.97965 14.4278 8.91052 14.4278 8.84769V8.64661C14.3524 8.64661 14.3524 8.70944 14.2896 8.70944ZM17.3246 10.1296C16.9225 10.1296 16.4449 10.1987 16.0427 10.2615C15.7725 10.3307 15.5023 10.5317 15.3012 10.7328V10.8019L15.4332 10.8711C15.5652 10.7391 15.7725 10.6009 15.9736 10.5317C16.3758 10.4626 16.8533 10.3998 17.2555 10.3998L17.3246 10.3307V10.1296C17.3937 10.1296 17.3937 10.1296 17.3246 10.1296ZM4.83248 14.9932C4.76336 15.3325 4.6314 15.3325 4.3612 15.5336C4.16012 15.6656 3.8208 15.7347 3.5506 15.6656C3.34952 15.5965 3.21127 15.5336 3.14843 15.3954H3.07931C2.94735 15.5273 2.73999 15.5965 2.53891 15.6656C2.19958 15.7975 1.79742 15.6656 1.59634 15.3954C1.59634 15.3954 1.59634 15.3263 1.52722 15.3263V15.1252V15.1943C1.52722 15.3954 1.52722 15.5965 1.65918 15.8038C1.86026 16.074 2.2687 16.206 2.60174 16.1431C2.80283 16.074 2.94107 15.9421 3.14215 15.8729H3.21127C3.48147 16.2751 4.02188 16.3442 4.42404 16.074H4.49316C4.62512 16.0049 4.76336 15.8729 4.83248 15.6719V14.9932C4.83248 14.9241 4.83248 14.9932 4.83248 14.9932ZM17.1235 13.0327C17.1235 13.1018 17.0544 13.1018 16.9916 13.1646C16.9225 13.1646 16.9225 13.1646 16.8596 13.0955C15.9799 12.354 14.8991 11.9456 13.7554 11.8827C10.5821 11.9519 7.47167 12.7625 4.70681 14.1763C4.70681 14.1763 4.63769 14.2454 4.70681 14.2454L4.83877 14.3774C7.67275 12.9573 10.7141 12.1467 13.8874 12.0838C15.0373 12.1529 16.1181 12.5551 16.9916 13.2966C16.9916 13.3657 17.0607 13.3657 17.1235 13.3657C17.1864 13.3657 17.1927 13.2338 17.1927 13.2338C17.1927 13.0327 17.2618 12.8944 17.2618 12.6934C17.1927 12.8316 17.1235 12.9698 17.1235 13.0327ZM12.461 17.9654C12.1217 17.8335 11.7886 17.7644 11.4493 17.7644C9.0866 17.8335 6.7239 18.5058 4.62512 19.6558C4.62512 19.6558 4.556 19.7249 4.556 19.7877C4.556 19.8506 4.62512 19.9197 4.62512 19.9888L4.69424 19.9197C6.78674 18.7069 9.0866 18.0974 11.5184 18.0283C11.8577 18.0283 12.1279 18.0974 12.461 18.2294H12.5301L12.461 17.9654C12.5301 17.9654 12.5301 17.9654 12.461 17.9654ZM12.5301 22.6908C12.5301 22.76 12.461 22.76 12.461 22.76C11.2482 22.6908 9.96004 22.8291 8.81639 23.1621C7.53451 23.5643 6.38458 24.0418 5.23465 24.7142C5.16552 24.7833 5.16552 24.7833 5.23465 24.8462L5.30377 24.9153C6.4537 24.2429 7.59734 23.7654 8.88551 23.3632C10.0983 23.0239 11.3173 22.8228 12.5301 22.8919H12.5992L12.5301 22.6908ZM25.0914 33.4989C24.6201 33.8382 24.0797 34.1713 23.4701 34.3786L23.5393 34.5106C24.0797 34.3095 24.551 33.9702 25.0222 33.6309H25.0914C25.902 33.4298 29.1444 32.2799 31.1049 32.2107C32.3177 32.2107 33.5367 32.4809 34.6175 33.0905C35.158 33.4298 35.6984 33.832 36.1005 34.3032C36.1005 34.3032 36.1005 34.3724 36.1696 34.3724C36.1696 34.3724 36.2388 34.3724 36.2388 34.3032C36.3707 33.9639 36.4398 33.6309 36.4398 33.2224C36.4398 33.4926 36.3707 33.832 36.2388 34.1022L36.1696 34.1713C36.1005 34.1713 36.1005 34.1022 36.1005 34.1022C35.6984 33.6309 35.158 33.2224 34.6175 32.8894C33.5367 32.2799 32.324 32.0097 31.1049 32.0097C29.1444 32.0097 25.902 33.2224 25.0914 33.4298C25.1605 33.4989 25.0914 33.4989 25.0914 33.4989ZM33.5367 39.3051C33.4676 39.3742 33.4048 39.3742 33.2665 39.3742C32.9963 39.0349 32.7261 38.7647 32.3868 38.4945C31.9847 38.1552 31.5071 37.9541 31.0358 37.8222C30.2943 37.6902 29.4837 37.6211 28.7422 37.753C27.2593 37.9541 25.8391 38.4254 24.4881 39.236L24.419 39.3051L24.4881 39.3742C25.77 38.6328 27.2593 38.1615 28.7422 37.9541C29.4837 37.8221 30.2943 37.8221 31.0358 38.0232C31.5071 38.1552 31.9784 38.3626 32.3868 38.6956C32.7261 38.9658 32.9963 39.236 33.2665 39.5753C33.3357 39.5753 33.4676 39.5753 33.5367 39.5062C33.6059 39.3051 33.6687 39.1669 33.6687 38.9658C33.6687 39.104 33.6059 39.2423 33.5367 39.3051ZM30.3634 44.9794H30.2315C30.0304 44.7783 29.7602 44.5772 29.49 44.3698C28.8176 44.0305 28.007 43.8986 27.2593 44.0305C26.1784 44.2316 25.0976 44.64 24.2179 45.3815C24.1488 45.4506 24.1488 45.5135 24.1488 45.5135L24.2179 45.5826C25.0976 44.9102 26.1093 44.4327 27.2593 44.2316C28.0007 44.1625 28.8113 44.2316 29.49 44.5709C29.7602 44.7029 30.0304 44.9102 30.2315 45.1804H30.3634C30.5645 44.9794 30.6336 44.7783 30.6336 44.5081C30.6336 44.64 30.4954 44.8474 30.3634 44.9794Z" fill="#432918"/>
<path d="M27.2525 31.3372L27.4536 31.268L28.5344 30.9978C28.6035 30.9978 28.6035 30.9287 28.6035 30.9287C28.7355 30.3883 28.9428 29.917 29.2759 29.4457C29.8854 28.6351 31.029 28.4341 31.9088 28.9053C31.9779 28.9745 31.9779 29.0373 31.9088 29.0373L31.8396 29.1064C31.5003 29.2384 31.2301 29.4457 31.029 29.7159C30.828 29.917 30.6269 30.2564 30.5578 30.5266V30.5957C30.6269 30.5957 31.1673 30.5957 31.3684 30.6648C31.4375 30.6648 31.4375 30.6648 31.4375 30.5957C31.6386 30.0553 31.9088 29.5149 32.38 29.1127C32.8513 28.7105 33.4609 28.6414 34.0704 28.8425C34.4097 28.9116 34.7427 29.1818 34.881 29.5149C34.881 29.5149 34.881 29.584 34.8119 29.584C34.4097 29.6531 34.0704 29.8542 33.7311 30.0553C33.4609 30.2564 33.2598 30.5266 33.0587 30.7968C33.0587 30.7968 32.9896 30.8659 33.1278 30.9287L33.9384 31.1298H34.0704C34.4097 30.6585 34.881 30.3192 35.4214 30.2501C36.232 30.1181 36.9735 30.4511 37.1117 30.9916C37.1117 31.0607 37.1808 31.1926 37.1117 31.1235C36.6404 31.1235 36.232 31.3246 35.899 31.5948L35.6979 31.7959L35.6287 31.865C35.8298 32.0661 36.4394 32.4745 36.4394 33.0778C36.4394 33.4799 36.4394 33.8192 36.2383 34.2277L36.1692 34.2968C36.1 34.2968 36.1 34.2277 36.1 34.2277C35.6979 33.7564 35.1575 33.348 34.6171 33.0149C33.5363 32.4054 32.3235 32.1352 31.1044 32.1352C29.1439 32.1352 25.9015 33.348 25.0909 33.5553H25.0218C25.0909 33.5679 25.5684 33.0966 27.2525 31.3372ZM32.3863 35.3211C31.9842 35.5221 31.6448 35.7924 31.3746 36.2008C31.3746 36.2008 31.3055 36.3328 31.3055 36.2699C31.1044 36.2699 30.7651 36.2008 30.564 36.2008C30.4949 36.2008 30.4949 36.1317 30.4949 36.1317C30.564 35.8615 30.696 35.6604 30.8971 35.4593C31.1673 35.1891 31.5066 34.9189 31.8396 34.7869C31.8396 34.7869 31.9088 34.7869 31.9088 34.7178C31.6386 34.4476 31.2992 34.2465 30.8971 34.2465C30.4258 34.2465 29.8854 34.3785 29.5461 34.7869C29.1439 35.1891 28.8737 35.7986 28.8046 36.4082C28.8046 36.4773 28.7355 36.4773 28.7355 36.4773C28.5344 36.4773 28.3333 36.5464 28.1259 36.5464V36.4773C28.1259 36.138 28.1951 35.8678 28.327 35.5976C28.5972 35.0572 28.9994 34.655 29.5398 34.3157C29.6089 34.2465 29.6089 34.1837 29.6089 34.1146C28.9994 33.8444 28.327 33.9135 27.7175 34.3157C27.3782 34.5167 27.0451 34.8561 26.8378 35.1954C26.6367 35.7358 26.4984 36.2762 26.4356 36.8857C26.4356 36.9548 26.3665 36.9548 26.3665 36.9548C26.0963 37.024 25.8952 37.0868 25.625 37.1559C25.625 37.1559 25.5559 37.1559 25.5559 37.0868C25.4868 36.5464 25.625 36.006 25.8952 35.5347C26.0272 35.3336 26.1654 35.1326 26.3665 34.9943C26.4356 34.9943 26.4356 34.9252 26.3665 34.8624L26.2974 34.7932C25.8261 34.7241 25.3548 34.7932 24.8772 35.0634C24.3368 35.3336 23.9975 35.874 23.9347 36.4836C23.8655 36.8857 23.9347 37.3633 24.0038 37.7655C24.0038 37.7655 24.0038 37.8346 23.9347 37.8346C23.8027 37.9037 23.3251 38.1739 23.1932 38.2367H23.124C23.0549 37.8974 22.8538 37.6272 22.5145 37.4953C22.1752 37.3633 21.8422 37.3633 21.572 37.5644C21.3709 37.6963 21.2326 37.8346 21.1007 38.0357C20.9687 38.375 21.0316 38.7771 21.3709 39.0473C21.3709 39.0473 21.44 39.1165 21.3709 39.1165C21.1698 39.2484 21.1698 39.2484 21.0316 39.4558C20.8996 39.7951 20.8996 40.1282 21.1635 40.3984C21.5028 40.8696 22.1061 41.0079 22.5836 40.6686C22.6528 40.6686 22.6528 40.5994 22.7156 40.5994C22.7156 40.5994 22.7847 40.5994 22.7847 40.6686C22.8539 40.8005 22.9858 40.9388 23.124 41.0079C23.4634 41.209 23.7964 41.209 24.1357 41.0079C24.4751 40.8068 24.607 40.4675 24.607 40.1282C24.607 39.9271 24.5379 39.726 24.3368 39.5877C24.3368 39.5877 24.3368 39.5186 24.4059 39.5186C25.6878 38.7771 27.1771 38.3059 28.6601 38.0985C29.4015 37.9665 30.2121 37.9665 30.9536 38.1676C31.4249 38.2996 31.8962 38.5069 32.3046 38.84C32.644 39.1102 32.9142 39.3804 33.1844 39.7197C33.2535 39.7197 33.3854 39.7197 33.4546 39.6506C33.5865 39.3113 33.6556 38.9091 33.4546 38.5007C33.2535 38.0294 32.9833 37.5581 32.644 37.2188V37.1496C32.644 37.0805 32.644 37.0805 32.7759 36.9486C33.1152 36.6092 33.5174 36.4082 33.9887 36.2762C34.0578 36.2762 34.0578 36.2071 34.0578 36.1442C33.8065 35.3902 33.065 35.12 32.3863 35.3211ZM40.5615 3.85195C40.5615 3.85195 40.2913 19.5237 40.0902 27.2904C40.0211 29.584 39.6189 31.8147 38.8775 33.9763C37.9977 36.4082 36.785 38.7709 35.3648 40.9325C33.8819 43.1632 32.0533 45.1866 29.9608 46.8769C29.1502 47.5493 28.2705 48.1588 27.397 48.7683C25.9769 49.6481 24.4939 50.3895 23.0047 50.9991C22.5334 51.2002 22.0621 51.4012 21.6537 51.5395C21.2515 51.6714 20.843 51.8097 20.3718 51.9416C19.9696 51.8097 19.492 51.7406 19.0899 51.5395C18.6877 51.4075 18.2793 51.2002 17.7389 50.9991C16.1868 50.3895 14.7666 49.6481 13.3465 48.7683C12.4668 48.2279 11.5933 47.5556 10.7827 46.8769C8.69023 45.1866 6.86794 43.1632 5.37868 40.9325C3.95855 38.7709 2.74579 36.4082 1.86606 33.9763C1.12458 31.8147 0.716127 29.584 0.65329 27.2904C0.452209 19.5237 0.182007 3.85195 0.182007 3.85195C0.182007 3.85195 0.251131 3.85195 0.313968 3.78283C2.40646 2.97222 4.56808 2.23074 6.7297 1.69033C9.76476 0.942565 12.7998 0.471283 15.9103 0.201081C17.3933 0.0691215 18.8134 0 20.3026 0H20.4346C21.9867 0 23.3377 0.0691215 24.827 0.201081C27.9311 0.471283 30.9725 0.942565 34.0138 1.68405C36.1754 2.22445 38.3371 2.96594 40.4296 3.77655C40.4924 3.78283 40.5615 3.85195 40.5615 3.85195ZM2.06086 32.3488H14.3519C13.202 31.1361 12.5987 29.5149 12.5296 27.8245V27.6235H1.31937C1.38849 29.1755 1.65869 30.7968 2.06086 32.3488ZM19.8251 43.6282H8.34463C9.22435 44.5708 10.0978 45.4505 11.1158 46.2611C11.9264 46.9335 12.737 47.543 13.6167 48.0834C14.9677 48.894 16.3878 49.6355 17.8708 50.245C18.3421 50.4461 18.7505 50.6472 19.1527 50.7854C19.4229 50.8545 19.6931 50.9865 19.8942 51.0556L19.8251 43.6282ZM19.8251 38.2933H4.5618C4.96396 39.0348 5.3724 39.7763 5.84369 40.4549C6.45321 41.3346 7.05645 42.2081 7.80422 43.0187H19.8251V38.2933ZM19.8251 35.0509C18.0719 34.9189 16.4507 34.2403 15.1625 33.0903C15.0934 33.0212 15.0306 32.9584 14.8923 32.8893H2.1991C2.26822 33.1595 2.40018 33.4297 2.4693 33.6999C2.94058 35.0509 3.55011 36.4019 4.22247 37.6146H19.8251V35.0509ZM19.8251 6.41573C18.5432 6.41573 17.3241 6.48485 15.9731 6.61681C13.0009 6.88701 10.0287 7.35829 7.12557 8.03694C5.03308 8.57735 2.94058 9.24971 0.910926 10.0603C0.980048 15.0559 1.112 22.4205 1.25025 27.0139H12.4605V22.8289H12.3977C11.1849 22.7598 9.89672 22.8981 8.75307 23.3002C7.47118 23.7024 6.32125 24.1799 5.17132 24.8523C5.1022 24.9214 5.1022 24.9214 5.17132 24.9843C5.30328 25.1854 5.44152 25.3864 5.51065 25.5938C5.57977 25.864 5.44152 26.2033 5.17132 26.3353C4.97024 26.4672 4.70004 26.5364 4.42984 26.4672C4.22876 26.3981 4.09051 26.2662 3.95855 26.1279C3.88943 26.0588 3.88943 26.1279 3.82659 26.197C3.69463 26.2662 3.48727 26.3981 3.35531 26.4672C3.01599 26.5992 2.61383 26.5364 2.41274 26.197C2.21166 25.8577 2.21166 25.4556 2.41274 25.1853C2.5447 25.0534 2.68295 24.9843 2.81491 24.9151C2.81491 24.9151 2.88403 24.846 2.81491 24.846C2.74579 24.7141 2.68295 24.6449 2.61383 24.5067C2.48187 24.1674 2.61383 23.8343 2.88403 23.5641C3.15423 23.3631 3.49355 23.3631 3.82659 23.495C4.02767 23.5641 4.16592 23.8343 4.29788 24.0354C4.29788 24.1045 4.367 24.1045 4.367 24.1045L4.6372 23.9035C4.70632 23.9035 4.6372 23.7715 4.6372 23.7715C4.29788 22.8918 4.16592 22.2194 4.50524 21.6099C4.70632 21.2077 5.11477 20.9375 5.51693 20.7993C5.78713 20.7302 6.05733 20.7302 6.32754 20.8684V20.9375C6.05733 21.2077 5.85625 21.6099 5.71801 22.0183C5.64889 22.3577 5.64889 22.7598 5.78713 23.0991C5.78713 23.1683 5.85625 23.1683 5.91909 23.1683C6.05105 23.0991 6.45949 22.9672 6.59145 22.9672C6.66057 22.9672 6.59145 22.8981 6.59145 22.8352C6.45949 22.2948 6.4595 21.6853 6.66058 21.1449C6.9999 20.4034 7.81051 19.9321 8.62111 19.995C8.75307 19.995 8.96043 20.1269 8.82219 20.196C8.01158 20.6673 7.60943 21.547 7.74138 22.4268L7.8105 22.4959C8.08071 22.4268 8.42003 22.3639 8.62111 22.2257C8.69023 22.2257 8.69023 22.1566 8.69023 22.0937C8.69023 21.4214 8.96044 20.7427 9.3626 20.2023C9.83388 19.6619 10.5754 19.3917 11.3231 19.3917C11.4551 19.4608 11.5933 19.5237 11.6625 19.5928V19.7248C10.921 20.196 10.3806 20.8747 10.1104 21.6853L10.1795 21.7544C10.5816 21.7544 11.0592 21.6853 11.4614 21.6225C11.5305 21.6225 11.5305 21.6225 11.5305 21.5533C11.6625 21.082 12.0018 20.6108 12.4731 20.3406C12.4731 20.3406 12.5422 20.3406 12.5422 20.2714V18.2481H12.4605C12.1212 18.1161 11.7881 18.047 11.4488 18.047C9.08611 18.1161 6.72341 18.7885 4.62463 19.9384C4.62463 19.9384 4.55551 20.0075 4.55551 20.0704C4.82572 20.6799 4.68747 21.0129 4.28531 21.2831C3.88315 21.5533 3.40558 21.4151 3.13538 21.0129C3.13538 20.9438 3.06626 20.9438 3.00342 21.0129C2.80234 21.1449 2.46302 21.2831 2.19281 21.214C1.92261 21.214 1.65241 21.0129 1.58329 20.7427C1.45133 20.2714 1.71525 19.731 2.19281 19.5928C2.26193 19.5928 2.26193 19.5237 2.19281 19.5237C1.92261 19.1843 1.92261 18.7131 2.26194 18.4429L2.33106 18.3737C2.73322 18.1727 3.27362 18.2418 3.48099 18.6439C3.48099 18.7131 3.55011 18.7759 3.55011 18.845C3.55011 18.9141 3.55011 18.845 3.61923 18.845C3.75119 18.845 3.88943 18.7759 4.02139 18.7131C4.09051 18.7131 4.15335 18.512 4.15335 18.4429C4.15335 17.4312 4.15335 16.7525 4.82571 16.0802C5.09592 15.81 6.1076 15.5398 6.37781 15.8791V15.9482C6.17673 16.0802 5.97564 16.2875 5.8374 16.4886C5.5672 16.8908 5.43524 17.4312 5.49808 17.9716C5.49808 17.9716 5.49808 18.0407 5.5672 18.0407C5.8374 17.9716 6.17672 17.8396 6.44693 17.7014V17.6323C6.3778 16.9599 6.57889 16.2121 7.05645 15.6717C7.52774 15.2004 8.60854 14.66 9.14895 15.1313C9.21807 15.2004 9.14895 15.2633 9.07983 15.2633C8.80962 15.3952 8.53942 15.6026 8.33834 15.8728C8.06814 16.2121 7.93618 16.6143 7.79794 17.0227C7.79794 17.0919 7.86706 17.1547 7.86706 17.1547C8.13726 17.0856 8.53942 17.0227 8.80963 16.9536C8.94158 16.8845 8.87875 16.8845 8.94158 16.7525C9.0107 15.6717 9.88415 14.792 10.965 14.66C11.3671 14.5909 11.7064 14.66 12.0458 14.792L12.2468 14.9931V15.125C11.8447 15.125 11.4362 15.257 11.0969 15.5272C10.6948 15.7283 10.4246 16.1367 10.3554 16.5389C10.3554 16.608 10.3554 16.6708 10.4246 16.6708H11.4362C11.5054 16.6708 11.5054 16.6708 11.5054 16.6017C11.7064 15.9922 12.2468 15.5209 12.8564 15.3198C13.5287 15.0496 14.3393 15.2507 14.8797 15.7911C14.9489 15.8602 14.9489 15.9231 14.8797 15.9231C14.3393 16.055 13.7989 16.2624 13.3277 16.5954C13.2585 16.6646 13.1957 16.7274 13.3277 16.7274H19.6743L19.8251 6.41573ZM25.0909 33.5679C24.6196 33.9072 24.0792 34.2403 23.4697 34.4476L23.5388 34.5796C23.6079 34.7115 23.6079 34.8498 23.6079 35.0509C23.6079 35.2519 23.4759 35.453 23.2057 35.5221C22.9355 35.6541 22.5962 35.5913 22.3951 35.3902C22.2632 35.5913 21.993 35.6604 21.7228 35.5913C21.5217 35.5222 21.3206 35.3902 21.2515 35.2519C21.1824 35.1828 21.1824 35.0509 21.1824 35.0509C20.9813 35.0509 20.7111 35.12 20.51 35.12V51.1939C20.7802 51.1248 21.1195 50.9928 21.5217 50.8545C21.9238 50.7226 22.3323 50.5152 22.8036 50.3141C24.2865 49.7046 25.7067 48.9631 27.0577 48.1525C27.9374 47.6121 28.748 47.0026 29.5586 46.3302C31.582 44.6399 33.3415 42.7485 34.7616 40.5869C36.1817 38.4944 37.2625 36.1945 38.136 33.8318C38.8775 31.8084 39.2168 29.7097 39.2859 27.548H28.2076V27.9502C28.2013 30.1244 27.0514 32.286 25.0909 33.5679ZM39.4807 21.9492H28.2705V26.882H39.3487C39.4116 25.3927 39.4116 23.7087 39.4807 21.9492ZM39.5435 17.0856H28.2642V21.2706H39.4807C39.5435 19.8567 39.5435 18.4366 39.5435 17.0856ZM39.6818 11.6187H20.5666V16.3441H39.6127C39.6127 14.7229 39.6127 13.1017 39.6818 11.6187ZM39.6818 10.0603C37.6584 9.24971 35.5596 8.57735 33.4671 8.03694C30.564 7.36458 27.5918 6.82417 24.6196 6.61681C23.1995 6.48485 21.9176 6.41573 20.4974 6.41573V11.0783H39.6127C39.6818 10.6698 39.6818 10.3996 39.6818 10.0603ZM39.8137 4.52431C39.7446 4.52431 39.7446 4.45519 39.6818 4.45519C37.6584 3.64459 35.6288 2.97222 33.4671 2.43182C30.564 1.75946 27.5918 1.21905 24.6196 1.01169C23.1366 0.879728 21.8484 0.810606 20.3655 0.810606H20.2335C18.7505 0.810606 17.4624 0.879728 15.9794 1.01169C13.0072 1.28189 10.035 1.75317 7.13186 2.43182C5.03936 2.97222 2.94687 3.64459 0.917209 4.45519C0.848087 4.45519 0.785251 4.52431 0.785251 4.52431C0.785251 4.52431 0.785249 6.54769 0.854371 9.45707H0.923495C2.94687 8.64647 4.97652 7.9741 7.13814 7.4337C10.0412 6.76134 13.0135 6.22093 15.9857 6.01357C17.4687 5.88161 18.7568 5.81249 20.2398 5.81249H20.3718C21.8547 5.81249 23.1429 5.94445 24.6259 6.01357C27.5981 6.28377 30.5703 6.75505 33.4734 7.4337C35.5659 7.9741 37.6584 8.64647 39.6881 9.45707H39.7572C39.7509 6.48485 39.8137 4.52431 39.8137 4.52431ZM29.4141 41.875C29.0748 42.0761 28.8737 42.4154 28.6726 42.7548C28.6726 42.7548 28.6726 42.8239 28.6035 42.8239L28.1322 42.6919V42.6228C28.4715 42.0133 29.0119 41.6111 29.6152 41.41V41.3409C29.345 40.7314 28.1951 40.8005 27.5918 41.209C27.0514 41.5483 26.6492 42.0887 26.511 42.7611V42.8302C26.379 42.8993 26.1717 42.8993 26.0397 42.9621C26.0397 42.9621 25.9706 42.9621 25.9706 42.893C25.9015 42.6228 25.9706 42.2835 26.1026 42.0133C26.3036 41.674 26.5047 41.4038 26.7749 41.1336C26.844 41.0644 26.844 41.0644 26.7749 41.0016C26.4356 40.8005 26.0334 40.8005 25.6941 41.0016C25.2228 41.2718 24.8144 41.674 24.6824 42.2144C24.6133 42.6165 24.6133 43.025 24.6824 43.4271V43.4963C24.5505 43.5654 24.4122 43.6282 24.2111 43.6973H24.142C23.8718 43.1569 23.9409 42.5474 24.3431 42.0761C24.4122 42.0761 24.4122 42.007 24.3431 42.007C23.9409 41.9379 23.4634 42.0761 23.1932 42.4092C22.8539 42.8113 22.791 43.3517 22.923 43.8293C22.9921 44.0304 23.0549 44.2315 23.124 44.3697C23.124 44.3697 23.1932 44.4388 23.124 44.4388C22.9921 44.5079 22.923 44.5708 22.7847 44.709H22.7156C22.5836 44.4388 22.3763 44.3069 22.1061 44.1686C21.8359 44.0995 21.6348 44.1686 21.4337 44.3697C21.0944 44.6399 21.0944 45.1803 21.4337 45.4505C21.5028 45.5196 21.6348 45.5825 21.773 45.6516C21.773 45.6516 21.8422 45.6516 21.773 45.7207C21.572 45.8527 21.4337 45.9909 21.3709 46.192C21.2389 46.4622 21.3018 46.8644 21.572 47.0717C21.773 47.2037 21.9741 47.2728 22.1815 47.2728C22.5208 47.1408 22.791 46.9335 22.923 46.6004C22.923 46.6004 22.9921 46.5313 22.9921 46.6004C23.1241 46.8015 23.3314 46.9398 23.5325 47.0026C23.8027 47.0717 24.0729 47.0026 24.2049 46.8706C24.4751 46.6696 24.5442 46.3302 24.4751 45.9909C24.3431 45.7898 24.2049 45.6516 24.0729 45.5196C24.0729 45.5196 24.0729 45.4505 24.142 45.3877C25.0218 44.7153 26.0334 44.2377 27.1834 44.0367C27.9249 43.9675 28.7355 44.0367 29.4141 44.376C29.6843 44.5079 29.9545 44.7153 30.1556 44.9855C30.1556 44.9855 30.2875 45.0546 30.2875 44.9855C30.6269 44.6462 30.6897 44.1749 30.3567 43.7727C30.2247 43.6408 30.0865 43.5025 29.8854 43.4334C30.0174 43.0941 30.2247 42.8239 30.5578 42.5537C30.7588 42.4217 30.9599 42.3526 31.1673 42.2144C31.2364 42.2144 31.2364 42.1452 31.1673 42.1452C31.0353 41.5357 29.9545 41.5357 29.4141 41.875ZM16.3124 9.24971C16.8529 9.31883 17.255 9.65187 17.4624 10.1294L17.3933 10.1986C16.9911 10.1986 16.5135 10.2677 16.1114 10.3305C15.8412 10.4625 15.571 10.6007 15.3699 10.8018V10.8709C15.8412 11.0029 16.3124 11.2102 16.7209 11.6124C17.1231 11.9517 17.3304 12.555 17.1922 13.0954C17.1922 13.1645 17.123 13.1645 17.0602 13.2273C16.9911 13.2273 16.9283 13.2273 16.9283 13.1582C16.0485 12.4167 14.9677 12.0083 13.8241 11.9454C10.6508 12.0146 7.5403 12.8252 4.77544 14.239C4.77544 14.239 4.70632 14.3081 4.77544 14.3081C4.9074 14.5092 4.97653 14.7103 4.97653 14.9805C4.9074 15.3198 4.77545 15.3198 4.50524 15.5209C4.16592 15.7911 3.62551 15.7911 3.29247 15.389V15.3324H3.22335C3.09139 15.4644 2.88403 15.5335 2.68295 15.6026C2.34363 15.7346 1.94147 15.6026 1.74038 15.3324C1.5393 14.8611 1.67126 14.2516 2.14254 14.0505C2.61383 13.8494 2.21167 13.9814 2.14254 13.9814C1.94146 13.5792 2.07342 13.1017 2.41274 12.9006C2.75207 12.6995 3.49356 12.5613 3.69464 13.2399C3.69464 13.2399 3.69463 13.309 3.76376 13.309C3.96484 13.2399 4.10308 13.1771 4.23504 13.1079C4.30416 13.1079 4.30416 12.976 4.30416 12.9069C4.10308 12.0963 4.23504 11.2165 4.70632 10.475C5.37868 9.66444 6.25841 9.32511 7.13814 9.66444C7.20726 9.66444 7.13814 9.73356 7.13814 9.7964C6.79882 10.1357 6.32753 10.4059 6.05733 10.8081C5.78713 11.2102 5.65517 11.7506 5.65517 12.2282H5.72429C6.19558 12.0963 6.73598 11.8889 7.27638 11.6878C7.34551 11.6878 7.40834 11.6878 7.3455 11.6187C7.3455 11.3485 7.34551 11.0092 7.41463 10.739C7.54659 9.92836 8.08699 9.18687 8.8976 8.84755C9.438 8.57735 10.0475 8.57735 10.6508 8.84755C10.7199 8.84755 10.7199 8.91667 10.6508 8.97951C10.2486 9.24971 9.90928 9.51991 9.56996 9.85923C9.23064 10.1986 9.02956 10.6698 9.02956 11.1411V11.2102C9.50084 11.0783 9.97212 11.0092 10.5125 10.94C10.5816 10.94 10.5816 10.8709 10.5816 10.8709C10.6508 10.3996 11.0529 9.18059 11.6625 8.77843C12.3348 8.30714 13.1454 8.1689 13.8932 8.37627C14.0943 8.44539 14.2325 8.57735 14.2954 8.71559C14.2954 8.71559 14.2954 8.78471 14.2262 8.84755C13.6858 9.04863 13.2145 9.31883 12.7433 9.65815C12.4731 9.99748 12.272 10.3305 12.2029 10.8081H13.5539C13.5539 10.8081 13.623 10.8081 13.623 10.739C13.8241 10.1986 14.2325 9.7964 14.7038 9.5262C15.2316 9.24971 15.772 9.18687 16.3124 9.24971Z" fill="url(#paint1_linear)"/>
<path d="M34.1459 3.04156C35.7671 3.44372 37.3192 3.98413 38.8085 4.59365C38.8776 4.59365 38.8776 4.66277 38.8776 4.72561V5.40426C38.8776 5.47338 38.8085 5.47338 38.7457 5.47338C37.8031 5.13406 36.4521 4.66277 35.233 4.32345H35.1639V4.72561C35.1639 4.72561 35.1639 4.79473 35.233 4.79473C36.4458 5.13406 37.6648 5.53622 38.7457 5.94466C38.7457 5.94466 38.8148 5.94466 38.8148 6.01378V7.09459C37.734 6.69243 36.4521 6.28399 35.1702 5.94466H35.1011V6.34682C35.1011 6.34682 35.1011 6.41594 35.1702 6.41594C36.383 6.75527 37.602 7.15743 38.7519 7.56587L38.8211 7.635V8.51472C38.8211 8.51472 38.8211 8.58385 38.7519 8.58385C37.1998 7.97432 35.6478 7.50304 34.0894 7.10088L34.0203 7.03175C34.0768 5.60534 34.0768 4.39257 34.1459 3.04156ZM28.7419 5.87554C29.0812 5.94466 29.4143 6.0075 29.6845 6.0075C29.6845 6.0075 29.7536 6.0075 29.7536 5.93838V4.59365H29.8227C30.6333 4.72561 31.3748 4.86385 32.1854 5.06493C32.1854 5.06493 32.3174 5.06493 32.3174 5.13406V6.48507C32.3174 6.55419 32.3174 6.55419 32.3865 6.55419C32.7258 6.62331 32.996 6.68615 33.2662 6.75527H33.3353C33.4044 5.8127 33.4045 4.19149 33.4045 2.90332V2.8342C33.0651 2.76507 32.7949 2.70224 32.4619 2.63312L32.3928 2.70224C32.3928 3.17352 32.3928 3.6448 32.3236 4.12237C31.513 3.99041 30.7024 3.78304 29.8918 3.65109V3.58196V2.16183C29.8918 2.16183 29.8918 2.09271 29.8227 2.09271C29.4834 2.02359 29.2132 2.02359 28.943 1.96075C28.6728 1.89791 28.8738 1.96075 28.8738 2.02987C28.8047 2.63311 28.7419 5.13406 28.7419 5.87554ZM24.6197 1.42035C24.2176 1.42035 23.8091 1.69055 23.74 2.16183V4.72561C23.74 4.99581 23.9411 5.26601 24.2804 5.33514C25.6314 5.4671 26.9133 5.60534 28.4026 5.80642C28.4026 5.80642 28.4717 5.80642 28.4717 5.7373V4.85757L28.4026 4.78845C27.3909 4.65649 26.109 4.51825 24.9591 4.38629C24.8899 4.38629 24.8271 4.31716 24.8271 4.25433V2.50116C24.8271 2.43203 24.9591 2.3692 25.0282 2.3692C26.1781 2.43832 27.3218 2.6394 28.4717 2.77136C28.4717 2.77136 28.5408 2.77136 28.5408 2.70224V1.89163C28.5408 1.82251 28.5408 1.82251 28.4717 1.82251C27.1207 1.69055 26.1718 1.62143 24.6197 1.42035ZM22.8666 1.35123C21.5847 1.2821 20.2337 1.2821 18.9518 1.2821C18.6816 1.2821 18.3423 1.48319 18.3423 1.75339V3.17352C18.3423 3.44372 18.7444 3.71392 19.0146 3.71392C20.0263 3.71392 20.906 3.71392 21.8486 3.78305C21.9177 3.78305 21.9806 3.85217 21.9806 3.915V4.18521C21.9806 4.25433 21.9114 4.25433 21.9114 4.25433C20.7615 4.25433 19.6179 4.18521 18.4679 4.32345C18.3988 4.32345 18.3988 4.32345 18.3988 4.39257L18.3297 5.20318V5.2723C19.6807 5.20318 21.0317 5.20318 22.3827 5.2723C22.722 5.2723 22.9922 5.0021 23.0551 4.73189V3.3746C23.0551 3.1044 22.7158 2.90332 22.5147 2.90332C21.5721 2.8342 20.4913 2.90332 19.4733 2.8342C19.4042 2.8342 19.4042 2.76507 19.4042 2.70224V2.36291C19.4042 2.29379 19.4733 2.29379 19.4733 2.29379C20.4159 2.22467 21.836 2.29379 22.8477 2.36291C22.9168 2.36291 22.9797 2.29379 22.9797 2.23095V1.55231C22.9985 1.42035 22.9294 1.35123 22.8666 1.35123ZM17.1232 3.85217C17.3934 3.72021 17.5945 3.45001 17.5254 3.1798C17.5254 2.77764 17.5254 2.3692 17.4562 1.96704C17.3871 1.69683 17.1169 1.42663 16.7839 1.42663C15.8413 1.42663 13.8808 1.69683 12.7308 1.82879V5.8127L13.7425 5.68074V4.52453L15.7659 4.32345C15.967 4.32345 16.1681 4.39257 16.3063 4.66277C16.4383 4.86385 16.5074 5.13406 16.5765 5.40426L17.5882 5.33514H17.6573C17.7327 4.72561 17.5316 4.18521 17.1232 3.85217ZM16.3817 2.97244C16.3817 3.17352 16.2498 3.31176 16.1115 3.31176L13.8179 3.51284V2.70224L16.2498 2.50116C16.3189 2.50116 16.4508 2.57028 16.4508 2.63312L16.3817 2.97244ZM12.1904 2.63312C12.1904 2.43203 12.1213 2.29379 11.9894 2.23095C11.8574 2.09899 11.65 2.02987 11.5181 2.02987C10.3681 2.23095 9.15538 2.43203 8.00545 2.70224C7.80437 2.77136 7.66613 2.8342 7.53417 3.04156C7.40221 3.17352 7.33309 3.31176 7.33309 3.51284V5.94466C7.33309 6.14574 7.40221 6.34682 7.53417 6.48507C7.60329 6.61702 7.80437 6.75527 8.00545 6.75527C9.15538 6.48507 10.3681 6.28399 11.5181 6.0829C11.7192 6.01378 11.9202 5.88182 12.1276 5.74358C12.2596 5.61162 12.3287 5.40426 12.3287 5.2723L12.1904 2.63312ZM11.0468 4.86385C11.0468 4.93297 10.9777 5.06493 10.9148 5.06493C10.8457 5.13406 10.7829 5.13406 10.6446 5.19689C10.0351 5.32885 9.09254 5.46709 8.48302 5.59905C8.4139 5.59905 8.35106 5.59905 8.28194 5.52993C8.21281 5.46081 8.21282 5.39797 8.21282 5.32885V3.78305C8.21282 3.71392 8.21281 3.65109 8.28194 3.58196C8.35106 3.51284 8.41389 3.45001 8.55214 3.45001C9.16166 3.31805 9.97227 3.1798 10.6446 3.04784C10.7138 3.04784 10.7766 3.04784 10.9148 3.11697C10.984 3.18609 11.0468 3.24892 11.0468 3.31805V4.86385ZM6.79268 3.78305C6.79268 3.58196 6.66072 3.44372 6.52248 3.38088C6.3214 3.24892 6.12032 3.1798 5.91295 3.24892C4.49282 3.58825 3.07897 4.12865 1.65884 4.66906C1.58972 4.66906 1.58972 4.73818 1.58972 4.80102V8.7158C1.58972 8.7158 2.60141 8.31364 2.80249 8.24452V7.03175C2.80249 7.03175 2.80249 6.96263 2.87161 6.96263L6.38424 5.88182C6.5162 5.8127 6.58532 5.74986 6.65444 5.68074C6.72356 5.61162 6.7864 5.47966 6.7864 5.34142L6.79268 3.78305ZM5.64275 4.93297C5.64275 5.0021 5.51079 5.13406 5.44167 5.20318L2.87789 6.01378H2.80877V5.26601C2.80877 5.19689 2.87789 5.19689 2.87789 5.19689C3.75762 4.85757 4.56823 4.58737 5.5108 4.31716C5.57992 4.31716 5.64275 4.38629 5.64275 4.44912V4.93297Z" fill="url(#paint2_linear)"/>
<path d="M2.87161 5.33499C2.80249 5.33499 2.80249 5.40411 2.80249 5.40411V5.20303C2.80249 5.13391 2.87161 5.13391 2.87161 5.13391C3.75134 4.79458 4.56195 4.52438 5.43539 4.25418C5.50451 4.25418 5.56735 4.3233 5.56735 4.38614V4.58722C5.56735 4.5181 5.49822 4.45526 5.36627 4.45526C4.63106 4.72546 3.75134 4.99567 2.87161 5.33499ZM6.85552 5.26587C6.85552 5.39783 6.7864 5.53607 6.72356 5.60519C6.65444 5.67431 6.52248 5.80627 6.45336 5.80627L2.94073 6.88708L2.87161 6.9562V7.15728V7.08816L6.38424 6.00735C6.5162 5.93823 6.58532 5.87539 6.65444 5.80627C6.72356 5.73715 6.7864 5.60519 6.7864 5.46695V5.26587H6.85552ZM2.87161 8.10613C2.87161 8.10613 2.87161 8.17525 2.87161 8.10613C2.60141 8.23809 1.58972 8.64654 1.58972 8.64654V8.84762C1.58972 8.84762 2.60141 8.44546 2.80249 8.37633V8.10613H2.87161ZM10.9086 3.10425C10.8394 3.03513 10.7766 3.03513 10.6384 3.03513C9.96599 3.10425 9.15538 3.30533 8.54586 3.43729C8.47673 3.43729 8.34478 3.50641 8.27565 3.56925C8.20653 3.63209 8.20653 3.70121 8.20653 3.77033V3.97141C8.20653 3.90229 8.20653 3.83945 8.27565 3.77033C8.34478 3.70121 8.40761 3.63837 8.54586 3.63837C9.15538 3.50641 9.96599 3.36817 10.6384 3.23621C10.7075 3.23621 10.7703 3.23621 10.9086 3.30533C10.9777 3.37445 11.0405 3.43729 11.0405 3.50641V3.37445C11.0468 3.24249 11.0468 3.17337 10.9086 3.10425ZM11.449 6.01364C10.299 6.21472 9.08626 6.4158 7.93633 6.686C7.73525 6.686 7.59701 6.61688 7.46505 6.4158C7.33309 6.28384 7.26397 6.07647 7.26397 5.87539V6.07647C7.26397 6.27755 7.33309 6.47863 7.46505 6.61688C7.59701 6.75512 7.73525 6.88708 7.86721 6.88708C9.01714 6.61688 10.2299 6.4158 11.3798 6.21472C11.5809 6.1456 11.782 6.01364 11.9894 5.87539C12.1213 5.74343 12.1904 5.53607 12.1904 5.40411V5.20303C12.1904 5.40411 12.1213 5.54235 11.9894 5.67431C11.8574 5.80627 11.65 5.94451 11.449 6.01364ZM16.1806 2.43189L13.7488 2.63297V2.83405L16.1806 2.63297C16.2498 2.63297 16.3817 2.70209 16.3817 2.76493V2.56385C16.3817 2.50101 16.3126 2.43189 16.1806 2.43189ZM17.5316 3.37445V3.10425C17.5316 3.37445 17.3997 3.64465 17.1295 3.77661L17.2614 3.90857C17.4625 3.85202 17.5316 3.58182 17.5316 3.37445ZM17.7327 5.26587L16.721 5.33499C16.721 5.06479 16.5891 4.79458 16.4508 4.5935C16.3189 4.3233 16.0487 4.19134 15.9104 4.25418L13.8871 4.45526V4.65634L15.9104 4.45526C16.1115 4.45526 16.3126 4.52438 16.4508 4.79458C16.5828 4.99567 16.6519 5.26587 16.721 5.53607L17.7327 5.46695H17.8018L17.7327 5.26587ZM13.8117 5.67431L12.8 5.80627V6.00735L13.8117 5.87539V5.67431C13.8808 5.60519 13.8117 5.67431 13.8117 5.67431ZM22.8666 2.50101C22.9357 2.50101 22.9985 2.43189 22.9985 2.36905V2.16797C22.9985 2.23709 22.9294 2.29993 22.8666 2.29993C21.8549 2.29993 20.4347 2.23081 19.4922 2.23081C19.4231 2.23081 19.4231 2.23081 19.4231 2.29993V2.50101C19.4231 2.43189 19.4922 2.43189 19.555 2.43189C20.4347 2.43189 21.8486 2.50101 22.8666 2.50101ZM18.9455 3.91486C19.9572 3.91486 20.8369 3.91486 21.7795 3.98398C21.8486 3.98398 21.9114 4.0531 21.9114 4.11594V3.91486C21.9114 3.84574 21.8423 3.7829 21.7795 3.7829C20.8369 3.71378 19.9572 3.71378 18.9455 3.71378C18.6753 3.71378 18.2731 3.5127 18.2731 3.17337V3.37445C18.3423 3.64465 18.6753 3.91486 18.9455 3.91486ZM22.389 5.26587C21.038 5.19675 19.687 5.19675 18.336 5.26587V5.46695C19.687 5.39783 21.038 5.39783 22.389 5.46695C22.7283 5.46695 22.9985 5.19675 23.0614 4.92654V4.72546C22.9294 4.99567 22.6592 5.26587 22.389 5.26587ZM28.3334 2.83405C27.1835 2.70209 26.0399 2.49472 24.8899 2.43189C24.8208 2.43189 24.6889 2.43189 24.6889 2.56385V2.70209C24.6889 2.63297 24.8208 2.57013 24.8899 2.57013C26.0399 2.63925 27.1835 2.84033 28.3334 2.97229C28.3334 2.97229 28.4026 2.97229 28.4026 2.90317V2.70209C28.4026 2.83405 28.4026 2.83405 28.3334 2.83405ZM28.2706 5.80627C26.7876 5.60519 25.4995 5.46695 24.1485 5.33499C23.8783 5.26587 23.6772 4.99567 23.6081 4.72546V4.92654C23.6081 5.19675 23.8091 5.46695 24.1485 5.53607C25.4995 5.66803 26.7814 5.73715 28.2015 6.00735C28.2015 6.00735 28.2706 6.00735 28.2706 5.93823V5.73715C28.3334 5.80627 28.3334 5.87539 28.2706 5.80627ZM32.3174 5.33499V5.13391C32.3174 5.06479 32.2482 5.06479 32.1854 5.06479C31.3748 4.86371 30.6333 4.72546 29.8227 4.5935H29.7536V4.79458H29.8227C30.6333 4.92654 31.3748 5.06479 32.1854 5.26587L32.3174 5.33499ZM29.6845 6.07647C29.4143 6.00735 29.0121 5.94451 28.7419 5.94451V6.07647C29.0812 6.14559 29.4143 6.1456 29.6845 6.20843C29.6845 6.20843 29.7536 6.20843 29.7536 6.13931V6.00735C29.7536 6.07647 29.7536 6.07647 29.6845 6.07647ZM33.2662 6.82424C32.996 6.75512 32.6567 6.69228 32.3865 6.62316C32.3174 6.62316 32.3174 6.55404 32.3174 6.55404V6.75512C32.3174 6.82424 32.3174 6.82424 32.3865 6.82424C32.7258 6.89336 32.996 6.9562 33.2662 7.02532H33.3353V6.82424H33.2662ZM38.7331 5.47323C37.7905 5.13391 36.4395 4.66263 35.2205 4.3233H35.1513V4.52438H35.2205C36.4332 4.86371 37.7842 5.26587 38.664 5.67431C38.7331 5.67431 38.7959 5.67431 38.7959 5.60519V5.40411C38.8713 5.47323 38.8022 5.47323 38.7331 5.47323ZM38.8022 7.02532C37.7214 6.62316 36.4395 6.21472 35.1576 5.87539H35.0885V6.07647H35.1576C36.4395 6.4158 37.6586 6.81796 38.7394 7.2264V7.15728L38.8022 7.02532ZM38.7331 8.50829C37.181 7.89877 35.6289 7.42748 34.0705 7.02532L34.0014 6.9562V7.15728C34.0014 7.15728 34.0014 7.2264 34.0705 7.2264C35.6226 7.62856 37.1747 8.16897 38.7331 8.70937C38.8022 8.70937 38.8022 8.70937 38.8022 8.64025L38.7331 8.50829C38.8022 8.50829 38.8022 8.50829 38.7331 8.50829Z" fill="#432918"/>
<path d="M38.7334 4.99569V5.33501L38.4632 5.26589L38.2621 5.19677L37.0493 4.79461C36.6472 4.66265 36.3078 4.52441 35.9685 4.45528L35.6983 4.38616L35.359 4.31704L35.0888 4.24792V4.98941L35.2208 5.05853H35.3527L35.5538 5.12765L35.7549 5.19677C36.2262 5.32873 36.6346 5.46697 37.1059 5.59893C37.5772 5.73089 37.9856 5.86913 38.3878 6.00109L38.5197 6.07021L38.7208 6.13933V6.94994L38.5197 6.88082L38.3878 6.8117C37.9165 6.67974 37.4452 6.47237 36.9676 6.34042C36.4901 6.20846 35.956 6.00109 35.4847 5.86913L35.0825 5.73717V6.40954L35.2145 6.47866L35.5538 6.54778L35.824 6.6169L35.956 6.68602L36.0879 6.75514L37.3007 7.15731C37.7029 7.28926 38.1113 7.42751 38.4506 7.55947H38.6517L38.7837 7.62859V8.30095L38.5826 8.23183H38.4506C37.7091 7.96163 37.0305 7.76055 36.3581 7.55947C35.6858 7.35839 34.938 7.08818 34.3347 6.94994V5.47326C34.3347 4.93285 34.3347 3.38076 34.4039 3.31164C34.473 3.31164 35.824 3.7138 36.4964 3.92116C37.1687 4.12225 37.8474 4.39245 38.4569 4.59353L38.5889 4.66265L38.7899 4.73177C38.7334 4.72549 38.7334 4.93285 38.7334 4.99569ZM33.1974 3.04144C33.1283 3.04144 32.9963 2.97232 32.9272 2.97232C32.8581 2.97232 32.657 2.90319 32.525 2.90319V4.38616L32.3239 4.31704H31.9218C31.6516 4.24792 31.3814 4.18508 31.042 4.11596C30.7027 4.04684 30.4325 3.984 30.1623 3.91488H30.0304L29.8293 3.84576L29.6282 3.77664H29.5591V2.29367H28.8867V6.00738C28.9558 6.00738 29.0187 6.00738 29.0878 6.0765H29.4271C29.4962 6.0765 29.6282 6.0765 29.6973 6.14562V5.67434V5.40413V4.86373V4.73177H29.8293C29.9612 4.73177 30.3006 4.80089 30.709 4.86373C31.1175 4.92657 31.5887 5.06481 32.06 5.13393H32.4622V6.3467L32.6633 6.41582L32.7952 6.48494H32.9272L33.1283 6.55406V6.21474V4.79461V3.1734L33.1974 3.04144ZM25.9711 1.69043C25.3615 1.6213 24.8902 1.55847 24.6892 1.55847C24.4881 1.55847 24.287 1.62759 24.1488 1.75955C24.0168 1.82867 23.8786 2.02975 23.8786 2.16171V4.79461C23.8786 4.86373 23.8786 4.92657 23.9477 4.99569C23.9477 5.06481 24.0168 5.12765 24.0168 5.12765C24.0859 5.19677 24.1488 5.25961 24.287 5.25961H24.5572C25.0976 5.32873 25.7071 5.39157 26.2475 5.39157C26.7879 5.39157 27.3975 5.52353 28.0007 5.59265L28.2709 5.66177V4.99569L27.9316 4.92657L27.6614 4.85745L26.2413 4.65637L24.8211 4.45528C24.8211 4.45528 24.752 4.45528 24.752 4.38616V2.36279C24.752 2.29367 24.752 2.23083 24.8211 2.16171C24.8902 2.09259 24.9531 2.09259 25.0222 2.09259C25.3615 2.09259 27.9944 2.49475 28.4657 2.56387V2.22455V1.82239C27.7305 1.89151 26.7817 1.82239 25.9711 1.69043ZM17.4628 4.52441C17.5948 4.72549 17.5948 4.99569 17.6639 5.19677L16.7842 5.26589C16.7151 4.99569 16.6522 4.79461 16.514 4.59353C16.382 4.32333 16.1118 4.19137 15.8416 4.19137C15.5023 4.26049 13.68 4.39245 13.68 4.39245V5.54238L13.2778 5.6115L12.8757 5.68062V1.96063C12.8757 1.96063 16.3883 1.55847 16.7276 1.55847C17.067 1.55847 17.1989 1.75955 17.1989 1.96063C17.268 2.36279 17.268 2.84036 17.268 3.24252C17.1989 3.4436 17.0669 3.64468 16.8659 3.78292C17.1926 3.984 17.3246 4.2542 17.4628 4.52441ZM16.5831 2.56387C16.5831 2.49475 16.5831 2.43191 16.514 2.36279C16.4449 2.29367 16.3129 2.29367 16.2438 2.29367L13.7428 2.56387V3.64468L14.9556 3.51272L16.1684 3.38076C16.3003 3.38076 16.4386 3.31164 16.5077 3.2488C16.5768 3.17968 16.6397 3.04772 16.6397 2.90948L16.5831 2.56387ZM11.9897 2.63299V5.13393C11.9897 5.47326 11.7195 5.74346 11.3801 5.80629C11.0408 5.86913 8.20683 6.41582 7.93663 6.47866C7.66643 6.5415 7.32711 6.20846 7.32711 5.93825V3.4436C7.32711 3.1734 7.59731 2.97232 7.86751 2.90319C8.13771 2.83407 11.1099 2.23083 11.311 2.23083C11.7195 2.16171 11.9897 2.29367 11.9897 2.63299ZM11.2482 3.24252C11.2482 3.04144 11.1791 2.84036 10.846 2.90319C10.4439 2.97232 9.09285 3.24252 8.61528 3.30535C8.27596 3.37448 8.07488 3.50644 8.07488 3.84576V5.40413C8.07488 5.60521 8.20683 5.8063 8.47704 5.74346C8.74724 5.67434 10.7078 5.3413 10.9089 5.27217C11.1099 5.20305 11.2482 5.07109 11.2482 4.80089V3.24252ZM22.5275 2.97232H19.2851C19.2851 2.90319 19.216 2.90319 19.216 2.84036V2.57015V2.23083C19.216 2.16171 19.2851 2.16171 19.4171 2.16171H22.7915V1.48306C22.3893 1.48306 22.1191 1.48306 21.7798 1.41394H19.0086C18.8767 1.41394 18.8076 1.48306 18.7384 1.5459C18.6693 1.61502 18.6065 1.67786 18.6065 1.74698V3.22995C18.6065 3.29907 18.6756 3.36191 18.7384 3.43103C18.8076 3.50015 18.9395 3.50015 19.0778 3.56299H21.0383C21.0383 3.56299 21.7107 3.56299 22.05 3.63211C22.1191 3.63211 22.1819 3.70123 22.1819 3.76407V4.3736C22.1819 4.44272 22.1128 4.44272 21.9809 4.44272H19.348C19.0778 4.44272 18.8076 4.44272 18.6065 4.51184V5.1842C18.9458 5.1842 19.348 5.1842 19.6182 5.11508C19.8884 5.04596 20.2277 5.11508 20.4288 5.11508H22.5904C22.7223 5.11508 22.7915 5.04596 22.8606 4.98312C22.9297 4.92028 22.9925 4.85116 22.9925 4.71292V3.24252C22.9925 3.1734 22.9234 3.04144 22.8606 3.04144C22.6595 3.04144 22.5967 2.97232 22.5275 2.97232ZM6.65474 3.78292L6.72387 5.26589V5.40413C6.72387 5.47326 6.65474 5.53609 6.5919 5.60521C6.52278 5.67434 6.45995 5.73717 6.39083 5.73717L2.74624 6.8871V8.16899L1.80368 8.50832V6.75514V4.93285C1.80368 4.93285 1.80367 4.86373 1.8728 4.86373C1.94192 4.86373 3.02272 4.46157 4.43657 3.984C4.83873 3.85204 5.78758 3.58184 5.98866 3.51272C6.12062 3.51272 6.32799 3.51272 6.45995 3.58184C6.52278 3.51272 6.65474 3.64468 6.65474 3.78292ZM5.84414 4.93285V4.39245C5.84414 4.32333 5.77501 4.26049 5.77501 4.19137C5.70589 4.12224 5.64306 4.12224 5.57394 4.12224H5.50481C5.50481 4.12224 4.69421 4.32333 4.22293 4.52441C3.75164 4.72549 2.67083 5.06481 2.67083 5.06481V6.14562L5.44198 5.26589C5.5111 5.26589 5.57394 5.19677 5.64306 5.13393C5.77502 5.06481 5.77502 4.99569 5.84414 4.93285ZM17.9341 18.0345V19.0462C17.9341 19.1782 17.9341 19.2473 17.865 19.3855C17.7959 19.4546 17.733 19.5175 17.5948 19.5175C17.4565 19.5175 17.3937 19.4484 17.3246 19.3855C17.2555 19.3164 17.2555 19.1844 17.2555 19.0462V18.0345C17.2555 17.9654 17.1863 17.9026 17.1235 17.9026C17.0544 17.9026 16.9915 17.9717 16.9915 18.0345V18.9771C16.9915 19.1782 17.0607 19.3792 17.1235 19.5175C17.2555 19.6494 17.3937 19.7877 17.5948 19.7186C17.7959 19.7186 17.9969 19.6494 18.0661 19.5175C18.1352 19.3164 18.198 19.1782 18.198 18.9771V18.0345C18.198 17.9654 18.1289 17.9026 18.0661 17.9026C18.0032 17.8963 17.9341 17.9654 17.9341 18.0345ZM19.3542 18.1665C19.4234 18.1665 19.4862 18.0973 19.4862 18.0345C19.4862 17.9717 19.4171 17.9026 19.3542 17.9026H18.6128C18.5436 17.9026 18.4808 17.9717 18.4808 18.0345C18.4808 18.0973 18.5499 18.1665 18.6128 18.1665H18.883V19.6494C18.883 19.7186 18.9521 19.7814 19.0149 19.7814C19.0778 19.7814 19.1469 19.7123 19.1469 19.6494V18.1665H19.3542ZM20.567 18.1665C20.6361 18.1665 20.699 18.0973 20.699 18.0345C20.699 17.9717 20.6298 17.9026 20.567 17.9026H19.8255C19.7564 17.9026 19.6936 17.9717 19.6936 18.0345C19.6936 18.0973 19.7627 18.1665 19.8255 18.1665H20.0957V19.6494C20.0957 19.7186 20.1648 19.7814 20.2277 19.7814C20.2905 19.7814 20.3596 19.7123 20.3596 19.6494V18.1665H20.567ZM21.9871 18.7069H21.585C21.453 18.7069 21.453 18.776 21.453 18.8388C21.453 18.908 21.5221 18.9708 21.585 18.9708H21.8552V19.0399C21.8552 19.3101 21.7232 19.5112 21.5159 19.5803C21.3839 19.5803 21.2457 19.5112 21.1765 19.3792C21.1074 19.2473 21.0446 19.0399 21.1074 18.908C21.1074 18.776 21.1765 18.5686 21.2394 18.4367C21.3022 18.3047 21.3713 18.2356 21.5096 18.2356C21.6415 18.2356 21.7107 18.3047 21.7798 18.4367C21.7798 18.5058 21.8489 18.5058 21.9117 18.5058C21.9746 18.5058 21.9809 18.4367 21.9809 18.3738C21.9117 18.1728 21.7107 18.0345 21.4405 18.0345C21.2394 18.0345 21.0383 18.1036 20.9692 18.3047C20.8372 18.5058 20.7681 18.7069 20.7681 18.9771C20.7681 19.1782 20.8372 19.4484 20.9001 19.6494C20.9692 19.8505 21.1703 19.9888 21.3713 19.9888C21.5033 19.9888 21.5724 19.9888 21.7107 19.9196C21.8426 19.7877 21.9809 19.5803 22.05 19.3792V19.0399C22.1882 18.776 22.1191 18.7069 21.9871 18.7069ZM26.4423 18.1665C26.5115 18.1665 26.5743 18.0973 26.5743 18.0345C26.5743 17.9717 26.5052 17.9026 26.4423 17.9026H25.7008C25.6317 17.9026 25.5689 17.9717 25.5689 18.0345C25.5689 18.0973 25.638 18.1665 25.7008 18.1665H25.9711V19.6494C25.9711 19.7186 26.0402 19.7814 26.103 19.7814C26.1658 19.7814 26.235 19.7123 26.235 19.6494V18.1665H26.4423ZM24.8902 19.1153C25.0222 19.0462 25.0913 18.9834 25.1604 18.9142C25.2924 18.7823 25.3615 18.644 25.2924 18.5121C25.2924 18.311 25.2233 18.1728 25.0913 18.0408C24.9594 17.9717 24.8211 17.9088 24.62 17.9088H24.2179C24.1488 17.9088 24.1488 17.9088 24.0859 17.978C24.0859 17.978 24.0168 18.0471 24.0168 18.1099V19.662C24.0168 19.7311 24.0859 19.794 24.1488 19.794C24.2116 19.794 24.2807 19.7248 24.2807 19.662V19.1907H24.5509L24.9531 19.7311C24.9531 19.8002 25.0222 19.8002 25.085 19.8002C25.1479 19.8002 25.217 19.7311 25.217 19.6683C25.217 19.6055 25.217 19.5992 25.1479 19.5363L24.8902 19.1153ZM24.3498 18.8451V18.1728H24.6892C24.8211 18.1728 24.8902 18.1728 24.9594 18.2419C25.0285 18.311 25.0913 18.3738 25.0913 18.443C25.0913 18.644 24.8902 18.8451 24.6892 18.8451H24.3498ZM23.269 18.0345C23.269 17.9654 23.1371 17.9026 23.068 17.9026C22.9988 17.9026 22.936 17.9717 22.8669 18.0345L22.3956 19.5866V19.7186L22.4647 19.7877C22.5338 19.7877 22.5967 19.7877 22.5967 19.7186L22.6658 19.4484H23.4073L23.4764 19.7186C23.4764 19.7877 23.5455 19.7877 23.6084 19.7877C23.6712 19.7877 23.6775 19.7877 23.7403 19.7186V19.5866L23.269 18.0345ZM23.3381 19.1782H22.7977L23.068 18.1665L23.3381 19.1782ZM15.4332 18.8451C15.2321 18.7132 15.031 18.7132 14.8236 18.644C14.6917 18.644 14.6226 18.5121 14.6226 18.3738C14.6917 18.2419 14.8236 18.1728 14.9619 18.1728C15.0938 18.1728 15.2321 18.2419 15.3012 18.3047C15.3703 18.3738 15.5023 18.3047 15.5023 18.2356C15.5023 18.1665 15.3703 17.8963 14.9619 17.8963C14.8299 17.8963 14.6917 17.9654 14.5597 18.0282C14.4278 18.0973 14.3586 18.2293 14.3586 18.3675C14.3586 18.5058 14.4278 18.7069 14.4906 18.7697C14.5597 18.8388 14.6917 18.9017 14.8928 18.9017C15.0247 18.9017 15.2321 18.9708 15.2949 19.1028C15.364 19.1719 15.2949 19.3038 15.2258 19.373C15.1567 19.4421 15.0247 19.5049 14.8865 19.5049C14.7545 19.5049 14.6163 19.4358 14.5472 19.373C14.478 19.3038 14.4152 19.3038 14.3461 19.3038C14.277 19.3038 14.277 19.4358 14.277 19.5049C14.4089 19.706 14.6163 19.8442 14.8174 19.7751C15.0184 19.7751 15.2195 19.706 15.3578 19.574C15.4269 19.4421 15.4897 19.3038 15.4897 19.1719C15.6405 19.0462 15.5714 18.908 15.4332 18.8451ZM16.6522 18.1665C16.7213 18.1665 16.7842 18.0973 16.7842 18.0345C16.7842 17.9717 16.7151 17.9026 16.6522 17.9026H15.9107C15.8416 17.9026 15.7788 17.9717 15.7788 18.0345C15.7788 18.0973 15.8479 18.1665 15.9107 18.1665H16.1809V19.6494C16.1809 19.7186 16.2501 19.7814 16.3129 19.7814C16.382 19.7814 16.4449 19.7123 16.4449 19.6494V18.1665H16.6522ZM5.64306 11.0784C5.84414 10.6071 6.18346 10.1987 6.58562 9.92845C6.7867 9.79649 6.7867 9.72737 6.7867 9.72737C6.7867 9.72737 6.71758 9.65825 6.44738 9.65825C6.04522 9.72737 5.63677 9.85933 5.29745 10.1295C4.89529 10.4689 4.62508 10.9401 4.48684 11.4114C4.41772 11.9518 4.41772 12.5613 4.55597 13.1646L3.6134 13.6359C3.54428 13.4348 3.48144 13.2965 3.3432 13.0955C3.14212 12.8944 2.80279 12.8944 2.53259 13.0263C2.33151 13.1583 2.19327 13.3657 2.19327 13.6359C2.19327 13.837 2.26239 13.9752 2.39435 14.1072C2.19327 14.1763 2.05503 14.3082 1.85394 14.4465C1.65286 14.6476 1.58374 14.9178 1.65286 15.1188C1.72198 15.3199 1.99219 15.4582 2.19327 15.4582C2.46347 15.389 2.73367 15.2571 3.00387 15.056C3.073 15.188 3.20496 15.2571 3.3432 15.3953C3.47516 15.4644 3.6134 15.5273 3.74536 15.5273C3.87732 15.5273 3.94644 15.5273 4.08468 15.4582C4.28576 15.3262 4.42401 15.1188 4.35488 14.8486C4.28576 14.5093 4.01556 14.3774 4.01556 14.2391C5.63677 13.3594 7.32711 12.687 9.08028 12.2786C10.293 11.9393 11.5121 11.7382 12.7249 11.6691C13.5355 11.5999 14.277 11.6691 15.0876 11.9393C15.6971 12.0712 16.3003 12.4105 16.7779 12.8818C16.7779 12.2723 16.4386 11.801 15.8982 11.5308C15.496 11.2606 15.0184 11.1286 14.5472 11.0595C14.6791 10.8584 14.8174 10.6574 14.9493 10.5191C15.2195 10.2489 15.5588 10.117 15.8919 10.0478C16.2249 9.97872 16.5014 9.97872 16.8344 9.97872C16.7025 9.70852 16.4951 9.57656 16.1621 9.50744C15.8228 9.43831 15.4206 9.50743 15.0813 9.57656C14.4718 9.84676 13.9313 10.3872 13.6611 10.9967C12.9888 10.9276 12.3793 10.9967 11.7006 10.9967C11.7697 10.4563 11.9708 9.985 12.241 9.51372C12.5803 9.11156 13.0516 8.77223 13.592 8.63399C13.6611 8.63399 13.724 8.56487 13.7931 8.50203C13.6611 8.37007 13.5229 8.30095 12.9825 8.30095C12.241 8.30095 11.6315 8.70311 11.2293 9.24352C10.89 9.78392 10.6889 10.3243 10.6889 10.9967C9.67724 11.1978 8.45818 11.468 8.45818 11.468C8.45818 11.0658 8.59014 10.5882 8.72839 10.2552C8.99859 9.78392 9.33791 9.37548 9.80919 9.04244L10.0103 8.91048C9.87832 8.84136 9.74007 8.84136 9.53899 8.84136C9.19967 8.84136 8.86663 8.97331 8.52731 9.11156C7.85495 9.45088 7.51562 10.1232 7.51562 10.8647V11.8073C6.70501 12.0084 5.89441 12.2786 5.15292 12.5488C5.37286 12.0901 5.44198 11.5497 5.64306 11.0784ZM14.4215 15.5336C14.4215 15.5336 14.6917 15.4644 14.7608 15.4016C14.6917 15.3325 14.6288 15.3325 14.5597 15.2697C14.2895 15.1377 14.0884 15.0686 13.8182 15.0686C13.548 15.0686 13.2778 15.1377 13.0076 15.2005C12.4672 15.4707 12.1279 15.942 11.9268 16.5515C11.9268 16.5515 11.3173 16.5515 11.0471 16.6207L10.1674 16.6898C10.1674 16.5578 10.1674 16.4196 10.2365 16.2185C10.3056 15.9483 10.4376 15.609 10.6387 15.4079C10.978 15.0057 11.4493 14.7355 11.9897 14.6664H12.1216C11.9205 14.5345 11.7195 14.4653 11.5121 14.5345C10.3622 14.5345 9.4196 15.4142 9.28136 16.5578C9.28136 16.6269 9.21224 16.828 9.21224 16.828C9.21224 16.828 8.74095 16.8971 8.60271 16.96C8.26339 17.0291 7.86123 17.0919 7.52191 17.2302C7.52191 16.828 7.65386 16.3505 7.86123 16.0174C8.06231 15.6781 8.33251 15.3451 8.60271 15.0749C8.67183 15.0057 8.73467 14.9429 8.87292 14.8738C8.74096 14.8738 8.67183 14.8047 8.53359 14.8047C7.86123 14.8047 7.2517 15.2068 7.05062 15.8163C6.84954 16.3567 6.78042 16.9663 6.78042 17.5067C6.44109 17.5758 5.69961 17.846 5.36029 17.978C5.29117 17.5758 5.29117 17.1674 5.36029 16.6961C5.42941 16.3567 5.63049 16.0237 5.90069 15.7535L6.10177 15.5524C6.10177 15.5524 6.03265 15.4833 5.69961 15.5524C5.15921 15.6844 4.68792 16.0928 4.54968 16.6332C4.41772 17.1736 4.41772 17.7832 4.41772 18.3236C4.21664 18.3927 3.60712 18.6629 3.53799 18.7257C3.53799 18.5938 3.46887 18.4555 3.40604 18.3236C3.27408 18.1916 3.13583 18.0534 2.93475 18.0534C2.80279 18.0534 2.73367 18.0534 2.59543 18.1225C2.52631 18.1916 2.39435 18.2544 2.39435 18.3927C2.32523 18.5246 2.32523 18.6629 2.39435 18.7948C2.46347 18.864 2.46347 18.9268 2.52631 18.9959C2.59543 19.065 2.65827 19.197 2.65827 19.197C2.45719 19.2661 2.25611 19.329 2.11786 19.4672C1.84766 19.5992 1.77854 19.9385 1.91678 20.2087C1.9859 20.4098 2.18698 20.4789 2.38806 20.4789C2.72739 20.4789 2.99759 20.3469 3.19867 20.0767C3.19867 20.0767 3.39975 20.4161 3.46887 20.4789C3.538 20.6109 3.73908 20.68 3.94016 20.68C4.00928 20.68 4.14124 20.68 4.21036 20.6109C4.41144 20.4789 4.54968 20.2715 4.48056 20.0704C4.48056 19.8694 4.41144 19.6683 4.27948 19.53L4.21036 19.4609L4.68164 19.2598C5.42313 18.8577 6.16461 18.5184 6.91238 18.2482C8.12515 17.846 9.41332 17.5067 10.6952 17.3684C10.9654 17.2993 11.2356 17.2993 11.5058 17.2993C11.8451 17.2993 12.1782 17.3684 12.4484 17.5004V16.1494H12.9888C13.4098 15.942 13.8811 15.6718 14.4215 15.5336ZM12.5301 20.5292V22.4897C12.329 22.4897 12.0588 22.4206 11.9205 22.4206C10.1674 22.4897 8.40791 22.961 6.85582 23.6333C6.11434 23.9727 5.43569 24.3057 4.76333 24.7142C5.03353 24.8461 5.16549 25.0535 5.30373 25.3237C5.43569 25.7258 5.17178 26.0652 4.63137 26.0652C4.16009 26.0652 4.09096 25.663 3.88988 25.5248C3.82076 25.5248 3.48772 25.9269 3.34948 25.996C3.21752 26.0652 3.07928 26.0652 3.01016 26.128C2.80908 26.128 2.67083 26.0589 2.53887 25.9269C2.40691 25.795 2.40692 25.6567 2.40692 25.4556C2.47604 25.2546 2.608 25.1163 2.74624 24.9844C2.8782 24.9152 3.01644 24.8524 3.1484 24.7142C3.1484 24.5822 2.8782 24.3748 2.80908 24.1738C2.73996 23.9036 2.80908 23.6333 3.01016 23.4323C3.21124 23.3003 3.48144 23.3003 3.68252 23.4323C3.95272 23.5642 4.08468 24.0418 4.08468 24.1046C4.21664 24.0355 4.62508 23.7025 4.89529 23.5642C4.62508 23.0238 4.42401 22.4834 4.49313 21.8739C4.62509 20.9942 5.57393 20.3218 5.9761 20.592C5.63677 20.9942 5.36657 21.4717 5.36657 22.0121C5.29745 22.4143 5.36657 22.8227 5.56765 23.1621C5.56765 23.1621 6.57934 22.7599 6.91866 22.6908C6.64846 22.0813 6.64846 21.3398 6.84954 20.7302C7.18887 20.1207 7.79211 19.7186 8.47075 19.7186C7.59103 20.3281 7.18886 21.4089 7.52819 22.3515C7.72927 22.2823 8.8792 21.9493 9.01116 21.8802C8.94203 21.2078 9.14312 20.5292 9.55156 19.9888C9.89089 19.5175 10.3622 19.2473 10.9717 19.109C11.1037 19.109 11.1728 19.109 11.311 19.1782C11.311 19.2473 11.311 19.2473 11.2419 19.3101L11.1728 19.3792C10.7015 19.7814 10.293 20.1898 9.96001 20.7302C9.82805 21.0696 9.68981 21.4026 9.68981 21.7419V21.8111C9.68981 21.8111 10.2993 21.6791 10.7706 21.6791C11.2419 21.6791 11.6503 21.61 11.6503 21.61C11.7195 21.4089 11.7823 21.2078 11.9205 21.0696C12.1907 20.7994 12.329 20.6674 12.5301 20.5292ZM31.507 28.9746C31.1049 29.1065 30.8347 29.3139 30.6273 29.6469C30.288 30.1873 30.156 30.7968 30.3571 30.7968H30.8284C31.0986 30.7968 31.2997 30.7968 31.5699 30.866C31.639 30.866 31.639 30.866 31.7018 30.7968C31.7647 30.7277 31.771 30.7277 31.771 30.6649C31.9721 30.0554 32.3114 29.515 32.8518 29.1819C33.0529 29.05 33.3231 28.9808 33.5241 28.9117C33.9263 28.9117 34.2656 29.0437 34.5358 29.3139C34.605 29.4458 34.1337 29.1819 33.3231 29.9862C33.0529 30.2564 32.8518 30.5266 32.7135 30.866C32.7135 30.866 32.7135 30.9351 32.7827 30.9351C33.122 31.067 33.7943 31.2053 34.1337 31.3372C34.2028 31.3372 34.2656 31.3372 34.3347 31.2681C34.5358 30.9979 34.7369 30.7968 35.0071 30.5958C35.2773 30.3947 35.6166 30.3256 35.9497 30.3256H36.0188C36.7603 30.3947 36.8294 30.7968 36.8294 30.866C36.8294 30.9351 36.6974 30.9351 36.5592 30.9351C36.0188 31.067 35.6166 31.3372 35.2773 31.7457C35.2082 31.8148 35.4093 32.0159 35.4093 32.0159C35.9497 32.3552 36.289 32.9585 36.1508 33.568C36.1508 33.6999 36.1508 33.6999 36.0816 33.6999C35.9497 33.6308 35.8806 33.568 35.8114 33.4989L34.7997 32.6883C34.1902 32.2861 33.587 32.0787 32.8392 31.9468C32.2988 31.8777 31.7584 31.8148 31.218 31.8148C30.0052 31.8148 28.8553 32.0159 27.7054 32.3552C27.5043 32.4243 26.7628 32.6254 26.0842 32.8265L25.682 32.9585L25.9522 32.7574C26.2224 32.4872 26.4926 32.217 26.7628 31.8777L26.9639 31.6766L27.3032 31.6075L28.6542 31.3372C28.7862 31.2681 28.9244 31.2053 28.9244 31.067C28.9935 30.5266 29.1946 30.0554 29.5339 29.716C29.8041 29.2448 30.2754 28.9746 30.8158 28.9054C31.3751 28.7043 31.6453 28.9054 31.507 28.9746ZM21.9871 38.9029C21.7861 38.7709 21.6478 38.5007 21.585 38.2305C21.585 37.9603 21.7169 37.6901 21.9871 37.621C22.2573 37.4891 22.5275 37.5519 22.7977 37.6901C23.0679 37.8912 23.1371 38.0923 23.1999 38.4316H23.269C23.5392 38.2997 23.9414 38.0923 24.2807 37.9603L24.4127 37.8912C24.4127 37.8912 24.4818 37.8912 24.4818 37.7593C24.3498 37.4199 24.3498 37.0869 24.3498 36.7476C24.3498 36.3454 24.4818 36.0061 24.6892 35.6668C25.1604 34.8562 26.0402 34.9253 25.9711 34.9944C25.6317 35.3337 25.4306 35.805 25.3615 36.2763C25.2924 36.5465 25.2924 36.8167 25.3615 37.0869C25.3615 37.2189 25.3615 37.3571 25.4306 37.3571C25.4998 37.3571 25.77 37.2251 25.9711 37.156C26.1721 37.0869 26.5115 37.0241 26.7125 36.9549C26.8445 36.9549 26.7817 36.8858 26.7817 36.823C26.7817 36.0815 26.9827 35.34 27.3912 34.7305C27.7305 34.3283 28.2018 34.0581 28.6731 33.989C28.8742 33.989 29.1444 34.0581 29.0752 34.121C28.9433 34.1901 28.8742 34.2529 28.7359 34.322C28.4657 34.5231 28.1955 34.7933 27.9944 35.1326C27.7933 35.6039 27.6551 36.0752 27.7242 36.6156C28.1264 36.6156 28.5348 36.5465 28.937 36.4837C29.0061 36.4837 29.069 36.4145 29.069 36.3517C29.2009 35.8804 29.4083 35.0007 29.8796 34.6614C30.1498 34.4603 30.42 34.322 30.7593 34.322C30.9604 34.322 31.5699 34.5231 31.4316 34.5922C31.0295 34.7242 30.7593 34.9944 30.4891 35.3337C30.288 35.6039 30.1498 35.8741 30.1498 36.2135C30.0806 36.4145 30.2817 36.4145 30.2817 36.4145C30.621 36.4145 30.9541 36.4837 31.2934 36.5465C31.3625 36.5465 31.4945 36.4145 31.4945 36.4145C31.6264 36.1443 31.8338 35.9432 32.0349 35.805C32.236 35.6039 32.5062 35.4657 32.8455 35.4657C33.455 35.4657 33.7881 35.937 33.6561 35.937C33.1157 36.0689 32.6444 36.4083 32.3051 36.8167C32.3051 36.8167 32.236 36.8858 32.3051 36.9487C32.8455 37.4199 33.2477 38.0295 33.3168 38.771C33.3168 38.8401 33.3859 39.1103 33.2477 39.1103C32.8455 38.639 32.3679 38.2305 31.8966 37.8975C31.2243 37.5582 30.4137 37.3571 29.6031 37.3571C28.6605 37.3571 27.7117 37.4891 26.7691 37.7593C25.7574 38.0986 24.7457 38.5007 23.866 39.0412C23.9979 39.1731 24.1362 39.3114 24.2053 39.4433C24.3373 39.7135 24.2744 40.0528 24.0042 40.2539C23.8723 40.3859 23.6649 40.3859 23.4638 40.323C22.9925 40.2539 22.9234 39.7826 22.8543 39.6507C22.7852 39.7826 22.7223 39.9209 22.515 39.99C22.2448 40.1911 21.8426 40.1911 21.5724 39.858C21.5724 39.858 21.5724 39.7889 21.5033 39.7889C21.3022 39.5187 21.3713 39.1794 21.5724 38.9783C21.9871 38.972 21.9871 38.9029 21.9871 38.9029ZM23.5392 44.3698C23.4701 44.2378 23.4073 44.0996 23.3381 43.8985C23.2062 43.5592 23.1371 43.2261 23.2062 42.8868C23.2753 42.4847 23.6775 42.1453 24.0859 42.0762C23.8848 42.2773 23.7466 42.6166 23.8157 42.9559C23.8157 43.2953 23.9477 43.5655 24.0859 43.8357C24.155 43.9048 24.155 43.8357 24.155 43.8357C24.4252 43.7037 24.6263 43.5655 24.8965 43.4963V43.4272C24.6954 42.8177 24.8274 42.2145 25.0976 41.674C25.2987 41.2719 25.7071 41.0017 26.1784 40.9326C26.6497 40.8634 26.4486 40.9326 26.5177 41.0645C26.1784 41.2656 25.9773 41.6049 25.7763 41.9443C25.6443 42.2836 25.6443 42.6857 25.7071 43.0942H25.7763C26.0465 43.0251 26.3167 42.9622 26.656 42.8931C26.656 42.8931 26.7251 42.8931 26.7251 42.824C26.8571 42.2836 27.1273 41.8123 27.5357 41.4038C27.875 41.1336 28.2081 41.0017 28.6165 40.9326C29.1569 40.9326 29.226 41.0645 29.226 41.1336C29.2952 41.2028 29.0941 41.1336 28.8867 41.2028C28.6165 41.3347 28.3463 41.5421 28.1452 41.8123C27.9442 42.0134 27.8059 42.2836 27.8059 42.6229V42.692C28.0761 42.7611 28.4154 42.824 28.6856 42.8931H28.7548C28.8867 42.5538 29.1569 42.2836 29.3643 42.0134C29.6345 41.8123 29.9047 41.674 30.244 41.674C30.4451 41.674 30.6462 41.7432 30.7844 41.8751C30.7844 41.8751 30.9855 42.0071 30.9164 42.0762C30.577 42.1453 30.244 42.3464 30.0366 42.6166C29.6973 43.0188 29.6973 43.157 29.6345 43.2261C29.5654 43.2953 29.6345 43.3581 29.7036 43.4272C30.244 43.7665 30.3131 44.0996 30.376 44.3069C30.376 44.508 30.3069 44.8474 30.1058 44.5772C29.9047 44.3069 29.5654 44.0367 29.1632 43.9048C28.6228 43.7037 28.0824 43.5655 27.542 43.5655C27.0016 43.5655 26.5303 43.6346 26.059 43.8357C25.3867 44.0367 24.7771 44.3069 24.2367 44.7154C24.1676 44.7845 24.1048 44.8474 23.9665 44.9165C23.7654 45.0484 23.6272 45.1867 23.4952 45.3186C23.4261 45.3878 23.5644 45.4506 23.5644 45.4506C24.1739 45.7208 24.2367 46.123 24.0356 46.3303C23.9037 46.4623 23.6963 46.5314 23.4952 46.3994C23.024 46.0601 23.0931 45.7899 22.8857 45.859C22.7538 45.9282 22.6155 46.2612 22.4836 46.3994C22.3516 46.6005 22.0123 46.6696 21.8112 46.4686C21.6101 46.2675 21.541 45.9282 21.6792 45.7271C21.8112 45.5951 21.9494 45.526 22.0814 45.3878C22.0814 45.3878 21.7421 45.1867 21.6101 45.0484C21.409 44.8474 21.409 44.508 21.6101 44.3069C21.8803 44.1059 22.2196 44.175 22.4207 44.4389C22.6218 44.7091 22.6218 44.7782 22.6909 44.7782H22.76C22.9988 44.8474 23.4701 44.508 23.5392 44.3698C23.5392 44.4389 23.5392 44.4389 23.5392 44.3698ZM26.5115 26.5427H26.3104C26.2413 26.5427 26.1784 26.4736 26.1093 26.4108C26.0402 26.3417 26.0402 26.2788 26.0402 26.2097C26.0402 26.1406 26.1093 26.1406 26.1093 26.0777C26.2412 26.0086 26.3104 25.8767 26.3795 25.8075C26.4486 25.6756 26.4486 25.6065 26.4486 25.4682H26.3795C26.3104 25.5373 26.2475 25.6693 26.1784 25.6693C26.1093 25.7384 25.9773 25.7384 25.9082 25.7384C25.8391 25.7384 25.7763 25.6693 25.7071 25.6693C25.638 25.6002 25.638 25.5373 25.638 25.4682C25.638 25.3991 25.7071 25.3991 25.77 25.3363C25.9019 25.3363 26.0402 25.2671 26.1093 25.2043C26.1784 25.1415 26.2413 25.0723 26.2413 25.0032V24.733C26.1721 24.733 26.1093 24.8021 26.0402 24.8021C25.9082 24.8713 25.8391 24.8021 25.7008 24.8021C25.5689 24.733 25.4998 24.601 25.4306 24.5319V24.4628C25.5626 24.4628 25.6317 24.3308 25.7008 24.1926C25.7008 24.1926 25.7009 24.1235 25.77 24.1235C25.77 24.0544 25.8391 24.0544 25.8391 24.0544V23.7842C25.8391 23.715 25.77 23.6522 25.77 23.5831H25.7008C25.6317 23.6522 25.7008 23.7842 25.6317 23.8533L25.4306 24.0544C25.3615 24.0544 25.3615 24.1235 25.2987 24.1235C25.2296 24.0544 25.1667 23.9915 25.1667 23.9224C25.1667 23.7904 25.1667 23.7213 25.2359 23.6522C25.305 23.4511 25.4369 23.3129 25.5752 23.1118C25.6443 22.9798 25.7763 22.9107 25.8454 22.7725C25.9145 22.7033 25.9773 22.5023 25.8454 22.4331C25.7134 22.364 25.7134 22.5651 25.6443 22.6342C25.3741 22.7662 25.1039 22.9044 24.9028 23.0364C24.7708 23.1684 24.7017 23.3757 24.7017 23.5077C24.6326 23.5768 24.7017 23.7779 24.6326 23.847C24.6326 23.9161 24.5635 23.9161 24.5006 23.9161C24.4315 23.847 24.3687 23.715 24.2996 23.5768V23.3066C24.2996 23.3066 24.2996 23.2375 24.2304 23.2375C24.0985 23.3066 24.0294 23.3694 24.0294 23.5077C23.9602 23.6396 24.0294 23.847 24.0985 23.979L24.5006 24.5885C24.6326 24.7896 24.7708 24.9906 24.84 25.198C24.9719 25.33 24.9719 25.5373 24.9719 25.7384C24.9028 25.9395 24.84 26.0777 24.7017 26.2097H24.6326C24.5006 26.0777 24.3624 25.9395 24.1613 25.8075C23.9602 25.6756 23.7592 25.6064 23.489 25.5373C23.2188 25.5373 22.9486 25.4682 22.6092 25.5373C22.339 25.5373 21.9997 25.6065 21.7295 25.6065C21.4593 25.6065 21.2582 25.6064 20.988 25.5373C20.7869 25.4682 20.6487 25.3362 20.5859 25.198C20.5167 24.9969 20.4539 24.8587 20.5167 24.6576C20.5167 24.5256 20.5859 24.3183 20.6487 24.1863C20.7178 24.0544 20.7807 23.9852 20.9189 23.9161C21.0509 23.847 21.1891 23.847 21.3902 23.847C21.4593 23.847 21.5221 23.9161 21.5913 23.979L21.7232 24.1109H21.7923C21.7923 23.9098 21.7923 23.7088 21.7232 23.5014C21.6541 23.3694 21.5913 23.2312 21.453 23.0992H21.585C21.7169 23.0992 21.9243 23.1683 22.0563 23.2312L22.2573 23.4323C22.2573 23.1621 22.1882 22.961 22.0563 22.7599C21.9871 22.6279 21.8552 22.5588 21.7861 22.4897C21.7169 22.4897 21.8552 22.4206 21.918 22.4206C22.05 22.4206 22.1882 22.4206 22.3202 22.4897C22.3893 22.4897 22.3893 22.5588 22.4521 22.5588L22.5213 22.6279C22.5213 22.6279 22.5904 22.6279 22.5904 22.5588C22.5904 22.4897 22.5213 22.4269 22.5213 22.3577C22.3202 22.1567 22.1191 22.0184 21.9117 21.8173C21.9117 21.8173 21.8426 21.8173 21.8426 21.7482C21.7735 21.6791 21.7107 21.5471 21.7107 21.478C21.7107 21.4089 21.6415 21.4089 21.6415 21.3461V21.2141C21.7107 21.0821 21.7735 21.0821 21.9117 21.013C21.9809 21.013 22.1128 20.9439 22.2511 20.9439H22.3202V20.8748C22.1882 20.8057 22.05 20.7428 21.918 20.7428C21.7169 20.7428 21.5159 20.7428 21.3085 20.8119C21.1765 20.8811 21.0383 20.9439 20.8372 20.9439C20.7053 20.9439 20.6361 20.9439 20.4979 20.8748C20.4288 20.8748 20.3659 20.8057 20.3659 20.6737C20.3659 20.5417 20.3659 20.4035 20.4351 20.3344L20.6361 20.1333C20.7052 20.1333 20.7052 20.0642 20.7052 20.0642H20.5733C20.3722 20.1333 20.234 20.1961 20.0329 20.2652L19.6936 20.6046L19.6244 20.6737H19.4925L19.0903 20.8748C18.9584 20.9439 18.8892 21.0067 18.751 21.0759C18.6819 21.0759 18.5499 21.145 18.4808 21.145C18.2797 21.145 18.0095 21.145 17.9404 21.3461C17.9404 21.4152 17.9404 21.478 18.0095 21.478C18.0786 21.478 18.0786 21.5471 18.1415 21.5471L18.2734 21.6163C18.2734 21.6163 18.3426 21.6163 18.3426 21.6854C18.3426 21.7545 18.2734 21.7545 18.2734 21.7545C18.1415 21.7545 18.0724 21.7545 17.9341 21.6854H17.8022C17.6011 21.8865 17.3309 22.0247 17.1298 22.1567L17.0607 22.2258V22.3577C17.0607 22.4269 16.9915 22.4269 16.9915 22.4269C16.9224 22.4269 16.9224 22.496 16.9224 22.5588V22.6908C16.9224 22.7599 16.9915 22.8227 17.0544 22.8227H17.1235C17.1926 22.8227 17.2555 22.7536 17.3246 22.7536H17.3937V22.8227C17.3937 22.8919 17.3246 22.8919 17.3246 22.9547C17.3246 23.0175 17.2555 23.0238 17.3246 23.0867C17.3937 23.1495 17.5257 23.1558 17.5948 23.0867C17.6639 23.0175 17.6639 23.0175 17.6639 22.9547C17.6639 22.8919 17.733 22.8856 17.7959 22.8227C17.9278 22.7536 17.997 22.7536 18.1352 22.7536C18.2043 22.7536 18.2672 22.7536 18.3363 22.8227C18.3363 22.8227 18.4054 22.8227 18.4054 22.8919C18.4054 22.961 18.3363 23.0238 18.3363 23.0929C18.3363 23.1621 18.3363 23.2249 18.2672 23.2249C18.198 23.2249 18.198 23.3569 18.198 23.3569C18.198 23.3569 18.198 23.426 18.1289 23.426C18.0598 23.4951 17.9278 23.5579 17.7896 23.6962C17.6576 23.8281 17.4503 24.0355 17.3874 24.2366C17.3183 24.3057 17.3183 24.3685 17.3183 24.4377C17.2492 24.6388 17.2492 24.8398 17.0481 24.7079C16.847 24.5759 16.6459 24.5068 16.5077 24.3685L16.3066 24.1675C16.1055 23.8973 15.9045 24.1675 15.7662 24.2994L15.1567 25.11C15.0876 25.1792 15.0876 25.1792 15.0876 25.242C15.0876 25.3048 15.0184 25.374 14.9556 25.4431C14.8865 25.5122 14.8865 25.6442 14.8865 25.7133C14.8865 25.9144 14.8174 26.0526 14.7545 26.1846C14.6854 26.2537 14.6226 26.3856 14.6226 26.4548V26.725C14.6226 26.7941 14.6226 26.8569 14.7545 26.8569H14.8236L15.2258 26.6558C15.2258 26.6558 15.2949 26.6558 15.2949 26.5867C15.364 26.5176 15.364 26.5176 15.2949 26.4548V26.3856C15.2949 26.3165 15.2258 26.3165 15.2258 26.3165V26.2474V26.1406C15.2258 26.0715 15.2258 26.0715 15.2949 26.0086C15.364 25.9395 15.4269 25.8767 15.496 25.8767C15.5651 25.8075 15.628 25.6756 15.5651 25.5373V25.4682V25.3991C15.5651 25.33 15.5651 25.2671 15.6342 25.2671C15.7034 25.198 15.7034 25.1352 15.7662 25.066C15.8353 24.9341 15.8982 24.865 16.0364 24.865C16.1747 24.865 16.3066 24.865 16.4386 24.9969C16.5705 25.1289 16.6397 25.3362 16.6397 25.5373L16.8407 25.9395C16.9099 26.0714 17.0418 26.0715 17.1109 26.0086H17.1801C17.2492 26.0086 17.2492 26.0086 17.312 26.0777L17.5131 26.2788C17.5822 26.3479 17.5131 26.4108 17.444 26.4108H17.1738C16.8344 26.4799 16.5014 26.5427 16.2312 26.5427H16.1621C16.093 26.5427 16.093 26.5427 16.093 26.6119V26.681C16.093 26.681 16.093 26.7501 16.0238 26.7501V26.9512C16.1558 27.4225 16.1558 27.8937 16.093 28.3713C16.0238 28.5033 16.093 28.7106 16.2249 28.8426C16.294 28.9117 16.294 28.9117 16.3569 28.9117C16.3569 28.9117 16.426 28.9117 16.426 28.9808C16.4951 29.05 16.4951 29.1128 16.4951 29.1819C16.4951 29.251 16.5643 29.383 16.6271 29.4521C16.6962 29.5841 16.8282 29.6532 16.8973 29.7223H16.9664C17.0355 29.7223 17.0984 29.7223 17.0984 29.6532C17.1675 29.5212 17.2303 29.3139 17.1675 29.1819C17.1675 29.1128 17.0984 29.05 17.0355 29.05H16.9664H16.8973C16.8282 29.05 16.8282 28.9808 16.8282 28.918C16.759 28.8489 16.759 28.7169 16.8282 28.6478V28.5787V28.4467C16.8282 28.3776 16.8282 28.3776 16.759 28.3148C16.6899 28.2456 16.6899 28.1828 16.6271 28.1828C16.5643 28.1828 16.558 28.1828 16.558 28.1137V28.0257C16.6271 27.8246 16.6271 27.6235 16.558 27.3533C16.558 27.2842 16.558 27.2214 16.6271 27.1523C16.759 27.0203 17.0292 27.1523 17.1675 27.2214C17.3686 27.2905 17.5696 27.3533 17.777 27.3533C18.1163 27.4225 18.4494 27.2842 18.7887 27.0831H18.8578C18.9898 27.1523 19.0589 27.2151 19.128 27.2842C19.3982 27.4853 19.6684 27.5544 19.9386 27.6864C20.3408 27.7555 20.7492 27.7555 21.1514 27.6864C21.2834 27.6864 21.3525 27.6864 21.4216 27.7555C21.4216 27.7555 21.4907 27.7555 21.4907 27.8246C21.4907 27.9566 21.4216 28.0948 21.4216 28.2268C21.4216 28.2959 21.4907 28.3587 21.4907 28.4279C21.5598 28.497 21.5598 28.5598 21.5598 28.6289L21.629 28.6981C21.83 28.9683 21.8992 29.3704 21.629 29.7098C21.497 29.8417 21.2896 29.98 21.1577 30.1119C21.0257 30.2439 20.8184 30.313 20.6173 30.313C20.4853 30.313 20.3471 30.3821 20.278 30.445C20.146 30.5769 20.0078 30.646 19.8758 30.7152C19.8067 30.7152 19.7438 30.7843 19.7438 30.8471C19.6747 30.9791 19.6119 31.1864 19.6119 31.3875C19.6119 31.5195 19.681 31.5195 19.7438 31.5195C19.8758 31.5195 20.014 31.4504 20.146 31.3875C20.2151 31.3875 20.278 31.2556 20.2151 31.1864L20.146 31.0545V30.9854V30.9162L20.2151 30.8471C20.2842 30.8471 20.2842 30.778 20.3471 30.778H20.4162C20.6173 30.8471 20.8184 30.778 20.8875 30.5769C20.8875 30.5769 20.8875 30.5078 20.9566 30.5078C21.0257 30.4387 21.0257 30.3758 21.0886 30.3758C21.4907 30.1056 21.8992 29.9046 22.3013 29.7663C22.3704 29.7663 22.3704 29.6972 22.3704 29.6972V29.5652V29.0939C22.3704 28.962 22.4396 28.8237 22.5715 28.8237C22.6407 28.8237 22.7035 28.8929 22.7035 28.8929C22.8354 29.0939 23.0428 29.2322 23.2439 29.295C23.313 29.295 23.3759 29.3641 23.445 29.3641C23.5769 29.4333 23.7152 29.5652 23.7843 29.7663C23.7843 29.8354 23.7843 29.9674 23.7152 30.0365L23.313 30.646C23.2439 30.778 23.1811 30.8471 23.0428 30.9162C22.9109 31.0482 22.7035 31.1173 22.5715 31.2556C22.4396 31.3247 22.3704 31.4566 22.3013 31.5258L22.1003 32.1353C22.0311 32.2672 22.1694 32.2672 22.2322 32.2672C22.3642 32.1981 22.5715 32.1353 22.7035 32.0662C22.7035 32.0662 22.7726 32.0662 22.7726 31.997V31.9279C22.7726 31.8588 22.7726 31.796 22.7035 31.796C22.6344 31.7268 22.6344 31.664 22.7035 31.5949L22.7726 31.5258C22.9046 31.4566 22.9737 31.4566 23.1119 31.4566C23.2439 31.4566 23.3821 31.3875 23.5141 31.2556L23.5832 31.1864C23.7152 30.7152 24.0545 30.3067 24.4629 30.0365C24.5321 30.0365 24.5321 29.9674 24.5321 29.9045V29.7035L24.1927 29.1631C24.1236 29.0311 24.0608 28.8929 23.9917 28.6918C23.9917 28.4907 24.0608 28.3525 24.1236 28.2205C24.1236 28.1514 24.1927 28.1514 24.1927 28.0885C24.2619 27.9566 24.3938 27.8875 24.4629 27.8183C24.5321 27.6864 24.664 27.6173 24.7332 27.479C24.8023 27.3471 24.8651 27.1397 24.9342 27.0077C25.0033 26.8758 24.9342 26.7375 24.9342 26.6056C24.9342 26.5364 24.9342 26.5364 25.0033 26.4736L25.2044 26.2725H25.4746C25.6757 26.3417 25.7448 26.4045 25.9459 26.4045H26.2161C26.3104 26.6747 26.4423 26.6747 26.5115 26.5427ZM20.4351 23.7088C20.4351 23.8407 20.3659 23.979 20.234 24.0481C20.1648 24.0481 20.102 24.1172 20.0329 24.1172C19.9638 24.1172 19.9638 23.9852 19.9638 23.847V23.6459V23.4385V23.3066V23.1055V22.7034C19.9638 22.5714 19.8946 22.364 19.8318 22.2321C19.8318 22.1629 19.7627 22.031 19.7627 21.9619C19.7627 21.8927 19.6936 21.8927 19.6936 21.8299C19.6936 21.7608 19.6244 21.7608 19.6244 21.7608C19.5553 21.6917 19.4925 21.6917 19.4925 21.6288V21.5597C19.6936 21.4906 19.8946 21.4906 20.0329 21.6288C20.3031 21.8299 20.4351 22.1001 20.4351 22.4394C20.4979 22.8981 20.4979 23.3003 20.4351 23.7088ZM2.06131 32.2861H14.3524C13.2024 31.0733 12.5992 29.4521 12.5301 27.7618V27.5607H1.31982C1.38895 29.1756 1.65915 30.7277 2.06131 32.2861ZM19.8255 38.2243H4.56225C4.96441 38.9657 5.37286 39.7072 5.84414 40.3859C6.45366 41.2656 7.05691 42.139 7.80468 42.9497H19.8255V38.2243ZM39.544 17.0228H28.2646V21.2078H39.4812C39.4812 19.8568 39.544 18.4367 39.544 17.0228ZM39.6822 9.99757C37.6589 9.18696 35.5601 8.5146 33.4676 7.9742C30.5645 7.30183 27.5923 6.76143 24.62 6.55406C23.1999 6.4221 21.918 6.35298 20.4979 6.35298V11.0155H39.6131C39.6822 10.6699 39.6822 10.3306 39.6822 9.99757ZM27.5923 16.8846H13.2087V27.6235C13.2087 29.5841 14.0884 31.4064 15.5714 32.6191C16.9224 33.7691 18.6756 34.4414 20.4351 34.5106C21.7861 34.5106 23.0679 34.1084 24.2179 33.4297C25.638 32.6191 26.7817 31.2681 27.3221 29.716C27.5231 29.1756 27.5923 28.6352 27.6614 28.0948L27.5923 16.8846ZM27.2529 27.9629C27.2529 28.5033 27.121 29.0437 26.9827 29.5841C26.4423 31.067 25.3615 32.3552 24.0105 33.1658C22.9297 33.8382 21.7169 34.1775 20.4288 34.1775C18.7384 34.1775 17.0544 33.5051 15.7662 32.4243C14.3461 31.2116 13.5355 29.4521 13.4726 27.6298V17.293H27.2529V27.9629ZM23.1371 34.5106C22.6658 34.7116 22.1254 34.8499 21.6541 34.9127C21.6541 34.9818 21.6541 34.9818 21.7232 35.0447C21.7923 35.1766 21.8552 35.2458 21.9934 35.2458C22.1254 35.2458 22.2636 35.1766 22.3956 34.9064C22.3956 34.9064 22.4647 34.8373 22.5275 34.9064C22.6595 35.1075 22.9297 35.3086 23.1371 35.1766C23.269 35.1075 23.3382 34.8373 23.269 34.7053L23.1371 34.5106Z" fill="black"/>
<defs>
<linearGradient id="paint0_linear" x1="0.116133" y1="25.9702" x2="40.5609" y2="25.9702" gradientUnits="userSpaceOnUse">
<stop stop-color="#E1BE78"/>
<stop offset="1" stop-color="#E3AB36"/>
</linearGradient>
<linearGradient id="paint1_linear" x1="-2.90358" y1="9.07521" x2="39.643" y2="33.6397" gradientUnits="userSpaceOnUse">
<stop stop-color="#E1BE78"/>
<stop offset="0.34" stop-color="#FFFAD1"/>
<stop offset="0.75" stop-color="#C69632"/>
<stop offset="0.995" stop-color="#FCDC99"/>
</linearGradient>
<linearGradient id="paint2_linear" x1="1.59059" y1="4.99947" x2="38.8719" y2="4.99947" gradientUnits="userSpaceOnUse">
<stop stop-color="#FFE3A8"/>
<stop offset="1" stop-color="#D2A249"/>
</linearGradient>
</defs>
</svg>
