<svg width="165" height="30" viewBox="0 0 165 30" fill="none" xmlns="http://www.w3.org/2000/svg">
<path d="M0 3.77095C0.614334 3.77095 1.22867 3.74976 1.86419 3.74976C2.66918 3.74976 3.45298 3.74976 4.25797 3.74976C4.59691 3.74976 4.95704 4.10989 4.95704 4.44883C4.95704 4.55475 4.95704 4.68186 4.95704 4.85133C6.37637 3.60148 8.00753 3.22016 9.78698 3.34727C11.6088 3.47437 13.0917 4.23699 14.1509 5.74105C14.4686 5.44448 14.7652 5.12672 15.1041 4.85133C16.6294 3.60148 18.3877 3.1778 20.3154 3.36845C23.3023 3.66503 25.2301 5.74105 25.9503 8.55852C26.141 9.36351 26.2257 10.1897 26.2257 11.0159C26.2257 14.6171 26.2257 18.1972 26.2257 21.7985C26.2257 22.1586 25.8656 22.5187 25.5055 22.5187C24.1921 22.5187 22.8575 22.5187 21.5441 22.5187C21.1839 22.5187 20.8238 22.1586 20.8238 21.7985C20.8238 18.4726 20.8238 15.1467 20.8238 11.7997C20.8238 11.2912 20.7603 10.7616 20.612 10.2744C20.2942 9.08812 19.4045 8.49497 18.1758 8.5797C16.8412 8.66444 15.9515 9.49061 15.6973 10.8888C15.6337 11.2277 15.6126 11.5666 15.6126 11.9056C15.6126 15.1891 15.6126 18.4726 15.6126 21.7773C15.6126 22.1798 15.2736 22.5187 14.8711 22.5187C13.5577 22.5187 12.2231 22.5187 10.9097 22.5187C10.5708 22.5187 10.2107 22.1586 10.2107 21.8197C10.2107 18.4726 10.2107 15.1467 10.2107 11.7997C10.2107 11.2912 10.1471 10.7828 10.02 10.2956C9.70224 9.1093 8.79134 8.49497 7.56267 8.60089C6.22808 8.70681 5.35954 9.51179 5.10533 10.8888C5.04178 11.2277 5.02059 11.5666 5.02059 11.9056C5.02059 15.1891 5.02059 18.4726 5.02059 21.7773C5.02059 22.201 4.68165 22.5399 4.25797 22.5399C2.94457 22.5399 1.65235 22.5399 0.338943 22.5399C0.254207 22.5399 0.148288 22.5399 0.0635518 22.5187C-1.26266e-08 16.2695 0 10.0202 0 3.77095Z" fill="white"/>
<path d="M121.297 22.8154C122.419 24.2771 124.008 24.616 125.703 24.6796C126.381 24.7007 127.08 24.6372 127.737 24.4465C129.431 23.9381 130.321 22.7518 130.596 21.0783C130.66 20.697 130.681 20.2945 130.724 19.8708C130.66 19.9132 130.618 19.9132 130.618 19.9344C129.198 21.2266 127.504 21.7562 125.618 21.7774C123.521 21.7774 121.593 21.2266 119.92 19.9132C118.077 18.4515 116.996 16.5237 116.615 14.2359C116.234 11.8633 116.594 9.5966 117.865 7.54176C119.369 5.1056 121.614 3.77101 124.453 3.43207C125.936 3.2626 127.398 3.3897 128.775 3.98285C129.41 4.25825 129.961 4.61837 130.49 5.06324C130.554 5.12679 130.618 5.16915 130.724 5.25389C130.724 4.93613 130.724 4.68192 130.724 4.40653C130.724 4.15233 131.105 3.77101 131.359 3.77101C132.736 3.77101 134.113 3.77101 135.511 3.77101C135.765 3.77101 136.147 4.15233 136.147 4.42772C136.147 5.1056 136.147 5.78349 136.147 6.46137C136.147 11.1007 136.168 15.7399 136.147 20.358C136.125 22.8154 135.342 24.9973 133.626 26.798C132.27 28.2173 130.575 29.0223 128.669 29.3824C125.661 29.9544 122.758 29.6154 120.026 28.1961C118.966 27.6453 118.056 26.9462 117.335 25.993C117.187 25.8023 117.293 25.2092 117.505 25.0821C118.776 24.3406 120.026 23.5992 121.297 22.8577C121.254 22.8366 121.275 22.8366 121.297 22.8154ZM126.254 8.26201C123.754 8.24083 121.996 9.97791 121.975 12.4988C121.953 15.0197 123.712 16.7991 126.211 16.8203C128.732 16.8415 130.49 15.0832 130.49 12.5624C130.512 10.0203 128.775 8.28319 126.254 8.26201Z" fill="white"/>
<path d="M37.7074 3.34729C42.3679 3.34729 46.181 6.18594 47.3461 10.5075C48.7866 15.9305 45.7362 21.3748 40.2919 22.6882C35.1018 23.9593 30.06 21.2477 28.4501 16.333C26.8189 11.376 29.1279 5.82581 34.2968 3.94044C35.4408 3.51676 36.6059 3.32611 37.7074 3.34729ZM37.8134 8.57972C35.9068 8.57972 34.4027 9.61773 33.7672 11.376C33.4918 12.1174 33.4071 12.9012 33.4918 13.7062C33.6825 15.7187 35.0171 17.4558 37.199 17.71C39.2962 17.9642 41.1181 16.9686 41.8595 14.9561C42.1349 14.1935 42.1984 13.4097 42.1349 12.6047C41.9654 10.2533 40.1648 8.57972 37.8134 8.57972Z" fill="white"/>
<path d="M70.1832 23.0057C65.4803 23.0057 61.5825 19.9552 60.5656 15.4006C59.3582 9.914 62.6417 4.61801 68.1707 3.53763C73.1489 2.58436 77.8094 5.14761 79.4617 9.70216C81.4318 15.1676 78.5508 21.2474 72.6617 22.7091C71.8567 22.8998 71.0093 22.9633 70.1832 23.0904C70.2043 23.048 70.1832 23.0269 70.1832 23.0057ZM74.5682 13.2187C74.5682 13.1128 74.547 12.8798 74.5259 12.6679C74.3776 10.719 73.1065 8.89717 70.7551 8.62178C68.6155 8.38876 66.8996 9.42677 66.1794 11.291C65.8193 12.223 65.7345 13.1763 65.9252 14.1296C66.2218 15.6972 67.0479 16.9047 68.5732 17.4555C70.1408 18.0063 71.666 17.858 72.9794 16.7564C74.081 15.8879 74.5047 14.6804 74.5682 13.2187Z" fill="white"/>
<path d="M147.758 23.0057C142.971 22.9845 139.052 19.8493 138.119 15.1677C136.997 9.63866 140.45 4.40622 146.085 3.45295C150.258 2.75388 154.325 4.61806 156.359 8.1346C159.473 13.5577 156.973 20.9721 150.3 22.6668C149.919 22.7727 149.516 22.8363 149.135 22.8786C148.669 22.9634 148.203 22.9845 147.758 23.0057ZM147.779 8.57946C145.894 8.57946 144.39 9.59629 143.754 11.3546C143.479 12.096 143.394 12.8798 143.458 13.6848C143.627 15.6337 144.898 17.4555 147.207 17.7309C149.347 17.9639 151.105 16.9259 151.825 14.9982C152.101 14.2356 152.186 13.4306 152.122 12.6256C151.931 10.253 150.131 8.57946 147.779 8.57946Z" fill="white"/>
<path d="M109.225 10.9523C109.374 9.44819 108.42 8.41018 106.895 8.24071C105.391 8.07124 104.078 8.49492 102.828 9.27872C102.658 9.38464 102.51 9.49056 102.319 9.61766C102.213 9.53293 102.107 9.46938 102.002 9.38464C101.048 8.66439 100.116 7.94413 99.1629 7.22388C98.8875 7.01204 98.8663 6.41889 99.1205 6.18587C101.387 4.21576 104.014 3.28367 107.001 3.34722C108.336 3.3684 109.628 3.58024 110.856 4.13102C112.848 5.04193 113.949 6.6731 114.415 8.74912C114.606 9.63885 114.67 10.5286 114.67 11.4183C114.67 14.8925 114.67 18.3454 114.67 21.8196C114.67 22.1797 114.309 22.5399 113.949 22.5399C112.636 22.5399 111.322 22.5399 110.009 22.5399C109.585 22.5399 109.246 22.2009 109.246 21.7772C109.246 21.6925 109.246 21.5866 109.246 21.5019C109.204 21.5019 109.183 21.5019 109.162 21.523C107.827 22.5822 106.281 22.9847 104.607 23.0059C102.807 23.0271 101.154 22.5822 99.7137 21.4595C98.485 20.5274 97.8071 19.2564 97.7224 17.7311C97.5741 14.8925 98.8663 12.9224 101.557 11.8632C102.785 11.3759 104.078 11.1217 105.391 11.0582C106.556 10.9946 107.742 10.9946 108.929 10.9734C109.056 10.9523 109.141 10.9523 109.225 10.9523ZM109.289 15.9517C109.289 15.6127 109.289 15.295 109.289 14.956C109.289 14.7654 109.246 14.7018 109.056 14.7018C108.145 14.7442 107.234 14.7442 106.344 14.8077C105.645 14.8501 104.946 14.9772 104.311 15.2738C103.612 15.5915 103.273 16.1423 103.294 16.9049C103.315 17.6887 103.675 18.2607 104.417 18.5573C104.988 18.7903 105.56 18.8327 106.175 18.7903C107.298 18.7268 108.293 18.3454 109.056 17.4769C109.225 17.2651 109.352 17.0532 109.331 16.7778C109.268 16.5024 109.289 16.2271 109.289 15.9517Z" fill="white"/>
<path d="M89.0592 15.3585C89.1015 15.2526 89.1439 15.189 89.1651 15.1255C90.4149 11.4395 91.6436 7.73227 92.8723 4.04627C92.9358 3.83443 93.0417 3.77087 93.2536 3.77087C94.7788 3.79206 96.3253 3.77087 97.8505 3.77087C98.0411 3.77087 98.1683 3.85561 98.2954 4.0039C98.5496 4.27929 98.5496 4.5335 98.4225 4.89362C97.681 6.86373 96.9396 8.83383 96.2193 10.8039C94.8 14.6171 93.3807 18.4513 91.9825 22.2645C91.8978 22.4763 91.8131 22.5822 91.5589 22.561C89.9065 22.5398 88.233 22.5398 86.5806 22.561C86.3688 22.561 86.2841 22.4975 86.2205 22.3068C84.0386 16.4177 81.8566 10.5497 79.6747 4.6606C79.5264 4.27929 79.8865 3.77087 80.289 3.77087C81.8354 3.77087 83.3819 3.77087 84.9071 3.77087C85.0978 3.77087 85.2037 3.81324 85.2672 4.02508C86.4959 7.73227 87.7246 11.4183 88.9532 15.1255C88.9744 15.1678 89.0168 15.2314 89.0592 15.3585Z" fill="white"/>
<path d="M50.2257 8.77015C49.5901 8.77015 48.9758 8.77015 48.3827 8.77015C48.0649 8.77015 47.6836 8.38884 47.6836 8.07108C47.6836 6.8636 47.6836 5.65611 47.6836 4.42744C47.6836 4.10968 48.0437 3.72837 48.3615 3.72837C48.8699 3.72837 49.3995 3.72837 49.9079 3.72837C49.9926 3.72837 50.0986 3.72837 50.2045 3.72837C50.2045 3.60127 50.2045 3.51653 50.2045 3.4318C50.2045 2.4997 50.2045 1.5888 50.2045 0.656702C50.2045 0.381311 50.5858 0 50.8612 0C52.217 0 53.5939 0 54.9497 0C55.2251 0 55.6064 0.381311 55.6064 0.677886C55.6064 1.60998 55.6064 2.56326 55.6064 3.49535C55.6064 3.68601 55.6488 3.74956 55.8394 3.74956C56.7927 3.74956 57.746 3.74956 58.7204 3.74956C59.0382 3.74956 59.4195 4.10968 59.4195 4.44863C59.4195 5.65611 59.4195 6.8636 59.4195 8.09227C59.4195 8.43121 59.0594 8.79134 58.6992 8.79134C57.7672 8.79134 56.8562 8.79134 55.9241 8.79134C55.8394 8.79134 55.7335 8.79134 55.6276 8.79134C55.6276 8.89725 55.6064 8.98199 55.6064 9.08791C55.6064 11.058 55.6064 13.0281 55.6064 14.977C55.6064 15.3584 55.6488 15.7609 55.6911 16.1422C55.8182 17.0319 56.2631 17.4768 57.1528 17.5403C57.6612 17.5827 58.1696 17.5615 58.6781 17.5403C58.9958 17.5403 59.3983 17.9004 59.3983 18.2182C59.3983 19.5528 59.3983 20.8874 59.3983 22.2008C59.3983 22.3279 59.4195 22.4338 59.25 22.4762C57.0257 23.0693 54.8649 22.921 52.916 21.65C51.4755 20.7179 50.7341 19.2986 50.4163 17.6462C50.268 16.9048 50.2257 16.1422 50.2045 15.4007C50.1833 13.3035 50.2045 11.2063 50.2045 9.13028C50.2257 9.00317 50.2257 8.91844 50.2257 8.77015Z" fill="white"/>
<path d="M161.97 22.9845C160.275 22.9845 158.898 21.6287 158.898 19.9128C158.898 18.1969 160.275 16.8199 161.97 16.8199C163.644 16.8199 165.021 18.2181 164.999 19.9128C165.021 21.6287 163.665 22.9845 161.97 22.9845Z" fill="white"/>
</svg>
