<svg width="0" height="0" class="hidden">

  <!-- search -->
  <symbol fill="none" xmlns="http://www.w3.org/2000/svg" viewBox="0 0 24 24" id="search">
    <path fill-rule="evenodd" clip-rule="evenodd" d="M10.5 19a8.5 8.5 0 116.676-3.238l4.531 4.53a1 1 0 01-1.414 1.415l-4.531-4.531A8.463 8.463 0 0110.5 19zm4.66-3.968a1.01 1.01 0 00-.128.128 6.5 6.5 0 11.128-.128z" fill="currentColor"></path>
    <mask id="a" maskUnits="userSpaceOnUse" x="2" y="2" width="20" height="20">
      <path fill-rule="evenodd" clip-rule="evenodd" d="M10.5 19a8.5 8.5 0 116.676-3.238l4.531 4.53a1 1 0 01-1.414 1.415l-4.531-4.531A8.463 8.463 0 0110.5 19zm4.66-3.968a1.01 1.01 0 00-.128.128 6.5 6.5 0 11.128-.128z" fill="currentColor"></path>
    </mask>
    <g mask="url(#a)">
      <path d="M0 0h24v24H0z"></path>
    </g>
  </symbol>
  <!-- home -->
  <symbol id="home" viewBox="0 0 16.751 13.331" xmlns="http://www.w3.org/2000/svg">
    <path data-name="Path 83" d="M8.376 2.691L2.402 7.616a.141.141 0 0 1-.005.031.142.142 0 0 0-.005.031v4.987a.675.675 0 0 0 .665.665h3.99V9.34h2.66v3.99h3.986a.675.675 0 0 0 .665-.665V7.678a.146.146 0 0 0-.01-.062z" fill="currentColor"/>
    <path data-name="Path 84" d="M16.636 6.494l-2.275-1.888V.364a.32.32 0 0 0-.333-.332h-1.994a.32.32 0 0 0-.332.332V2.39L9.167.27a1.289 1.289 0 0 0-1.579 0L.116 6.494a.3.3 0 0 0-.115.223.336.336 0 0 0 .073.244l.644.769a.354.354 0 0 0 .218.114.386.386 0 0 0 .249-.073l7.19-6 7.19 6a.32.32 0 0 0 .218.072h.031a.355.355 0 0 0 .218-.114l.644-.769a.336.336 0 0 0 .072-.244.3.3 0 0 0-.112-.222z" fill="currentColor"/>
  </symbol>

  <!-- chevron down -->
  <symbol id="chevron-down" viewBox="0 0 20.374 11.003" xmlns="http://www.w3.org/2000/svg">
    <g data-name="Group 1">
      <path data-name="Path 130" d="M10.746 10.771l9.398-9.423A.79.79 0 0 0 19.025.232l-8.838 8.862L1.349.232A.79.79 0 0 0 .231 1.348l9.4 9.423a.789.789 0 0 0 1.118 0z" fill="#fff"/>
    </g>
  </symbol>

  <!-- chevron up -->
  <symbol id="chevron-up" viewBox="0 0 20.374 11.003" xmlns="http://www.w3.org/2000/svg">
    <g data-name="Group 1">
      <path data-name="Path 130" d="M9.628.232L.23 9.655a.79.79 0 0 0 1.119 1.116l8.838-8.862 8.838 8.862a.79.79 0 0 0 1.118-1.116l-9.4-9.423a.789.789 0 0 0-1.118 0z" fill="currentColor"/>
    </g>
  </symbol>

  <!-- chevron right -->
  <symbol id="chevron-right" viewBox="0 0 11.316 20.952" xmlns="http://www.w3.org/2000/svg">
    <path data-name="Path 130" d="M11.077 9.9L1.386.237a.812.812 0 0 0-1.147 1.15l9.114 9.089-9.114 9.089a.812.812 0 0 0 1.147 1.15l9.691-9.664a.812.812 0 0 0 0-1.15z" fill="currentColor"/>
  </symbol>

  <!-- chevron left -->
  <symbol id="chevron-left" viewBox="0 0 11.316 20.952" xmlns="http://www.w3.org/2000/svg">
    <g data-name="001-next">
    <g data-name="Group 1">
    <path data-name="Path 130" d="M.239 11.052l9.691 9.663a.812.812 0 0 0 1.147-1.15l-9.114-9.089 9.114-9.089A.812.812 0 0 0 9.93.237L.239 9.901a.812.812 0 0 0 0 1.15z" fill="currentColor"/>
    </g>
    </g>
  </symbol>

  <!-- world -->
  <symbol id="world" fill="none" viewBox="0 0 16 16" xmlns="http://www.w3.org/2000/svg">
    <path d="M7.752.25A7.77 7.77 0 0 1 15.5 8.026a7.75 7.75 0 0 1-7.521 7.72l-.246.004a7.75 7.75 0 0 1-7.73-7.513L0 7.992A7.75 7.75 0 0 1 7.752.25zm1.949 8.5H5.798c.155 2.897 1.176 5.343 1.886 5.493l.068.007c.68-.002 1.72-2.365 1.932-5.23l.017-.27zm4.255 0h-2.752c-.091 1.96-.53 3.783-1.188 5.076a6.257 6.257 0 0 0 3.905-4.829l.035-.247zm-9.661 0h-2.75a6.257 6.257 0 0 0 3.934 5.075c-.615-1.208-1.036-2.875-1.162-4.686l-.022-.39v.001zm1.188-6.576l-.115.046a6.257 6.257 0 0 0-3.823 5.03h2.75c.085-1.83.471-3.54 1.059-4.81l.129-.266zm2.262-.424c-.702.002-1.784 2.512-1.947 5.5h3.904C9.546 4.347 8.524 1.907 7.81 1.756l-.065-.007v.001zm2.28.432l.023.05c.643 1.288 1.069 3.084 1.157 5.018h2.748a6.275 6.275 0 0 0-3.929-5.068h.001z" fill="currentColor"/>
  </symbol>

  <!-- profile -->
  <symbol id="profile" fill="none" viewBox="0 0 30 30" xmlns="http://www.w3.org/2000/svg">
    <path d="M15 .656C7.09.656.656 7.09.656 15 .656 22.91 7.09 29.344 15 29.344c7.91 0 14.344-6.434 14.344-14.344C29.344 7.09 22.91.656 15 .656zm0 26.25c-3.77 0-7.13-1.766-9.312-4.51a11.648 11.648 0 0 1 6.048-4.124 6.1 6.1 0 0 1-2.83-5.147A6.1 6.1 0 0 1 15 7.031a6.1 6.1 0 0 1 6.094 6.094 6.107 6.107 0 0 1-2.83 5.148 11.644 11.644 0 0 1 6.048 4.125C22.13 25.14 18.77 26.906 15 26.906z" fill="currentColor"/>
  </symbol>

  <!-- profile outline -->
   <symbol fill="none" xmlns="http://www.w3.org/2000/svg" viewBox="0 0 24 24" id="profile-outline">
    <path fill-rule="evenodd" clip-rule="evenodd" d="M6.4856 18.4283C10.5926 17.8283 13.4204 17.8799 17.5328 18.4493C17.8306 18.4925 18.1028 18.642 18.2989 18.8702C18.4951 19.0983 18.6021 19.3898 18.6002 19.6907C18.6002 19.9787 18.5012 20.2583 18.3224 20.4767C18.0108 20.8575 17.6915 21.232 17.3648 21.5999H18.9494C19.049 21.4811 19.1492 21.3599 19.2506 21.2369C19.6065 20.8005 19.8006 20.2545 19.8002 19.6913C19.8002 18.4763 18.9134 17.4293 17.6972 17.2613C13.4876 16.6787 10.5452 16.6229 6.3122 17.2415C5.0834 17.4209 4.2002 18.4841 4.2002 19.7075C4.2002 20.2505 4.3772 20.7875 4.7126 21.2225C4.8116 21.3509 4.9094 21.4769 5.0066 21.6005H6.5528C6.24885 21.2366 5.95239 20.8666 5.6636 20.4905C5.49197 20.2654 5.39939 19.99 5.4002 19.7069C5.4002 19.0607 5.8646 18.5189 6.4856 18.4283Z" fill="currentColor"></path>
    <path fill-rule="evenodd" clip-rule="evenodd" d="M12.0002 12.6C12.473 12.6 12.9411 12.5068 13.3779 12.3259C13.8146 12.145 14.2115 11.8798 14.5458 11.5455C14.8801 11.2112 15.1452 10.8144 15.3262 10.3776C15.5071 9.94084 15.6002 9.47271 15.6002 8.99995C15.6002 8.52719 15.5071 8.05906 15.3262 7.62229C15.1452 7.18552 14.8801 6.78866 14.5458 6.45437C14.2115 6.12008 13.8146 5.8549 13.3779 5.67399C12.9411 5.49307 12.473 5.39995 12.0002 5.39995C11.0454 5.39995 10.1297 5.77924 9.45461 6.45437C8.77948 7.1295 8.4002 8.04517 8.4002 8.99995C8.4002 9.95473 8.77948 10.8704 9.45461 11.5455C10.1297 12.2207 11.0454 12.6 12.0002 12.6ZM12.0002 13.8C13.2732 13.8 14.4941 13.2942 15.3943 12.3941C16.2945 11.4939 16.8002 10.273 16.8002 8.99995C16.8002 7.72691 16.2945 6.50601 15.3943 5.60584C14.4941 4.70566 13.2732 4.19995 12.0002 4.19995C10.7272 4.19995 9.50626 4.70566 8.60608 5.60584C7.70591 6.50601 7.2002 7.72691 7.2002 8.99995C7.2002 10.273 7.70591 11.4939 8.60608 12.3941C9.50626 13.2942 10.7272 13.8 12.0002 13.8Z" fill="currentColor"></path>
    <path fill-rule="evenodd" clip-rule="evenodd" d="M12 22.8C17.9646 22.8 22.8 17.9646 22.8 12C22.8 6.0354 17.9646 1.2 12 1.2C6.0354 1.2 1.2 6.0354 1.2 12C1.2 17.9646 6.0354 22.8 12 22.8ZM12 24C18.6276 24 24 18.6276 24 12C24 5.3724 18.6276 0 12 0C5.3724 0 0 5.3724 0 12C0 18.6276 5.3724 24 12 24Z" fill="currentColor"></path>
  </symbol>

  <!-- clsoe  -->
  <symbol fill="none" xmlns="http://www.w3.org/2000/svg" viewBox="0 0 15 15" id="close">
    <path d="M1.72029 0.280712C1.53169 0.0985537 1.27908 -0.00224062 1.01689 3.78026e-05C0.75469 0.00231622 0.503878 0.107485 0.31847 0.292894C0.133061 0.478302 0.0278923 0.729114 0.0256139 0.991311C0.0233355 1.25351 0.12413 1.50611 0.306288 1.69471L6.08129 7.46971L0.305288 13.2447C0.209778 13.337 0.133595 13.4473 0.0811864 13.5693C0.0287774 13.6913 0.00119157 13.8225 3.77571e-05 13.9553C-0.00111606 14.0881 0.0241854 14.2198 0.0744663 14.3427C0.124747 14.4656 0.199 14.5772 0.292893 14.6711C0.386786 14.765 0.498438 14.8393 0.621334 14.8895C0.74423 14.9398 0.87591 14.9651 1.00869 14.964C1.14147 14.9628 1.27269 14.9352 1.39469 14.8828C1.5167 14.8304 1.62704 14.7542 1.71929 14.6587L7.49529 8.88371L13.2703 14.6587C13.4589 14.8409 13.7115 14.9417 13.9737 14.9394C14.2359 14.9371 14.4867 14.8319 14.6721 14.6465C14.8575 14.4611 14.9627 14.2103 14.965 13.9481C14.9672 13.6859 14.8664 13.4333 14.6843 13.2447L8.90929 7.46971L14.6843 1.69471C14.8664 1.50611 14.9672 1.25351 14.965 0.991311C14.9627 0.729114 14.8575 0.478302 14.6721 0.292894C14.4867 0.107485 14.2359 0.00231622 13.9737 3.78026e-05C13.7115 -0.00224062 13.4589 0.0985537 13.2703 0.280712L7.49529 6.05571L1.72029 0.280712Z" fill="currentColor"></path>
  </symbol>

  <!-- arrow right -->
  <symbol id="arrow-right" fill="none" viewBox="0 0 17 14" xmlns="http://www.w3.org/2000/svg">
    <path d="M14.476 7.609H0V6.087h14.476L9.823 1.3a.773.773 0 0 1 0-1.077.73.73 0 0 1 .523-.223.73.73 0 0 1 .523.223l5.913 6.086a.764.764 0 0 1 .217.539.781.781 0 0 1-.217.538l-6.208 6.39a.73.73 0 0 1-.524.224.73.73 0 0 1-.523-.223.773.773 0 0 1 0-1.077l4.947-5.091z" fill="currentColor"/>
  </symbol>

  <!-- arrow left -->
  <symbol id="arrow-left" fill="none" viewBox="0 0 22 18" xmlns="http://www.w3.org/2000/svg">
    <path d="M3.962 8.247H22v1.85H3.962L9.76 15.92a.928.928 0 0 1-.652 1.581.92.92 0 0 1-.652-.271L1.087 9.827a.925.925 0 0 1 0-1.31L8.823.745a.92.92 0 0 1 1.574.655.929.929 0 0 1-.27.655L3.962 8.247z" fill="currentColor"/>
  </symbol>

  <!-- badge check -->
  <symbol id="badge-check" fill="none" viewBox="0 0 16 16" xmlns="http://www.w3.org/2000/svg">
    <path fill-rule="evenodd" clip-rule="evenodd" d="M4.267 1.455A3.066 3.066 0 0 0 6.012.732a3.066 3.066 0 0 1 3.976 0 3.066 3.066 0 0 0 1.745.723 3.066 3.066 0 0 1 2.812 2.812c.051.643.304 1.254.723 1.745a3.066 3.066 0 0 1 0 3.976 3.067 3.067 0 0 0-.723 1.745 3.066 3.066 0 0 1-2.812 2.812 3.065 3.065 0 0 0-1.745.723 3.066 3.066 0 0 1-3.976 0 3.065 3.065 0 0 0-1.745-.723 3.066 3.066 0 0 1-2.812-2.812 3.066 3.066 0 0 0-.723-1.745 3.066 3.066 0 0 1 0-3.976 3.066 3.066 0 0 0 .723-1.745 3.066 3.066 0 0 1 2.812-2.812zm7.44 5.252a1 1 0 0 0-1.414-1.414L7 8.586 5.707 7.293a1 1 0 0 0-1.414 1.414l2 2a1 1 0 0 0 1.414 0l4-4z" fill="currentColor"/>
  </symbol>

  <!-- filter -->
  <symbol id="filter" fill="none" viewBox="0 0 18 16" xmlns="http://www.w3.org/2000/svg">
    <path fill-rule="evenodd" clip-rule="evenodd" d="M3.381.5h-1.25v6.25h1.25V.5zm7.625 6.25h-4l-.5-.688v-1.25l.5-.562h4l.5.625v1.25l-.5.625zm-6.25 3.75h-4l-.5-.625v-1.25L.756 8h4l.5.625v1.25l-.5.625zM9.631.5h-1.25V3h1.25V.5zM8.381 8h1.25v7.5h-1.25V8zm-5 3.75h-1.25v3.75h1.25v-3.75zm9.875 0h3.988l.5-.625V9.937l-.5-.624h-3.988l-.5.624v1.188l.5.625zM15.881.5h-1.25V8h1.25V.5zM14.631 13h1.25v2.5h-1.25V13z" fill="currentColor"/>
  </symbol>

  <!-- plus -->
  <symbol id="plus" fill="none" viewBox="0 0 16 16" xmlns="http://www.w3.org/2000/svg">
    <path d="M8.872 6.748V.34H6.568v6.408H.16v2.304h6.408v6.408h2.304V9.052h6.408V6.748H8.872z" fill="currentColor"/>
  </symbol>

  <!-- plus-rounded -->
  <symbol id="plus-rounded" fill="none" viewBox="0 0 31 31" xmlns="http://www.w3.org/2000/svg">
    <path d="M15.664.552a1.889 1.889 0 0 1 1.89 1.89v11.333h11.333a1.89 1.89 0 1 1 0 3.778H17.553v11.334a1.89 1.89 0 1 1-3.778 0V17.553H2.441a1.889 1.889 0 1 1 0-3.778h11.334V2.441a1.889 1.889 0 0 1 1.89-1.889z" fill="#B0B0B0"/>
  </symbol>

  <!-- pdf -->
  <symbol id="pdf" fill="none" viewBox="0 0 16 20" xmlns="http://www.w3.org/2000/svg">
    <path d="M14 20H2a2 2 0 0 1-2-2V2a2 2 0 0 1 2-2h7a.104.104 0 0 1 .027 0h.006a.15.15 0 0 0 .029.006c.088.006.175.023.259.051h.042A.421.421 0 0 1 9.415.1a.988.988 0 0 1 .293.2l6 6a.987.987 0 0 1 .2.293.732.732 0 0 1 .023.066l.01.028c.028.083.044.17.049.258a.1.1 0 0 0 .007.029v.006A.112.112 0 0 1 16 7v11a2 2 0 0 1-2 2zm-3.576-8v5h.94v-2.04h1.46v-.838h-1.46v-1.281H13V12h-2.576zm-3.7 0v5H7.93a1.67 1.67 0 0 0 1.332-.56 2.3 2.3 0 0 0 .486-1.549v-.81a2.287 2.287 0 0 0-.5-1.526c-.325-.37-.8-.574-1.293-.555H6.724zM3 12v5h.94v-1.759h.626c.418.023.826-.132 1.124-.426a1.62 1.62 0 0 0 .41-1.16 1.725 1.725 0 0 0-.412-1.194A1.4 1.4 0 0 0 4.585 12H3zM9 2v5h5L9 2zM7.946 16.162h-.282v-3.321h.342a.717.717 0 0 1 .62.292c.147.303.21.64.182.976v.869c.022.32-.047.64-.2.921a.764.764 0 0 1-.662.263zM4.585 14.4h-.646v-1.559h.655a.475.475 0 0 1 .4.227c.108.179.16.385.15.594a.89.89 0 0 1-.147.55.499.499 0 0 1-.412.188z" fill="currentColor"/>
  </symbol>

  <!-- check   -->
  <symbol id="check" fill="none" viewBox="0 0 17 15" xmlns="http://www.w3.org/2000/svg">
    <path fill-rule="evenodd" clip-rule="evenodd" d="M16.992 2.231l-9.516 11.9L0 7.9l1.41-1.693 5.748 4.79L15.273.856l1.72 1.374z" fill="currentColor"/>
  </symbol>

  <!-- success -->
  <symbol id="success" fill="none" viewBox="0 0 36 36" xmlns="http://www.w3.org/2000/svg">
    <path d="M18 2a16 16 0 1 0 0 32 16 16 0 0 0 0-32zm0 30a14 14 0 1 1 0-28 14 14 0 0 1 0 28z" fill="currentColor"/>
    <path d="M28 12.1a1 1 0 0 0-1.41 0l-11.1 11.05-6-6A1.015 1.015 0 1 0 8 18.53L15.49 26 28 13.52a.997.997 0 0 0 .219-1.095.999.999 0 0 0-.22-.325z" fill="currentColor"/>
  </symbol>

  <!-- more -->
  <symbol id="more" fill="none" viewBox="0 0 20 3" xmlns="http://www.w3.org/2000/svg">
    <path d="M3.952 1.515c0 .293-.088.58-.253.824s-.4.435-.674.547a1.519 1.519 0 0 1-1.637-.322A1.468 1.468 0 0 1 1.062.947c.114-.271.307-.503.554-.666A1.515 1.515 0 0 1 3.51.466c.282.278.44.655.44 1.049zM18.469.03c-.297 0-.587.087-.834.25s-.44.395-.553.666a1.468 1.468 0 0 0 .325 1.617 1.519 1.519 0 0 0 1.637.322c.274-.112.509-.303.674-.547a1.472 1.472 0 0 0-.187-1.873 1.513 1.513 0 0 0-1.062-.435zm-8.01 0c-.296 0-.587.087-.834.25s-.44.395-.553.666a1.467 1.467 0 0 0 .326 1.617 1.507 1.507 0 0 0 1.636.322c.275-.112.51-.303.674-.547a1.472 1.472 0 0 0-.187-1.873A1.513 1.513 0 0 0 10.46.031z" fill="currentColor"/>
  </symbol>

  <!-- listing -->
  <symbol id="listing" fill="none" viewBox="0 0 25 20" xmlns="http://www.w3.org/2000/svg">
    <path d="M23.913 1.036H7.05a.23.23 0 0 0-.231.228v1.601a.23.23 0 0 0 .23.229h16.864a.23.23 0 0 0 .232-.229v-1.6a.23.23 0 0 0-.232-.23zm0 8.118H7.05a.23.23 0 0 0-.231.23v1.6a.23.23 0 0 0 .23.229h16.864a.23.23 0 0 0 .232-.229v-1.6a.23.23 0 0 0-.232-.23zm0 8.12H7.05a.23.23 0 0 0-.231.228v1.601a.23.23 0 0 0 .23.229h16.864a.23.23 0 0 0 .232-.229v-1.601a.23.23 0 0 0-.232-.229zM.581 2.063a1.587 1.587 0 0 0 .474 1.133 1.618 1.618 0 0 0 1.143.469 1.631 1.631 0 0 0 1.144-.47 1.6 1.6 0 0 0 .474-1.131A1.587 1.587 0 0 0 3.342.933a1.618 1.618 0 0 0-1.144-.47 1.631 1.631 0 0 0-1.143.47 1.6 1.6 0 0 0-.474 1.132zm0 8.12a1.587 1.587 0 0 0 .474 1.132 1.618 1.618 0 0 0 1.143.468 1.632 1.632 0 0 0 1.144-.468 1.6 1.6 0 0 0 .474-1.132 1.587 1.587 0 0 0-.474-1.132 1.618 1.618 0 0 0-1.144-.47 1.631 1.631 0 0 0-1.143.47 1.6 1.6 0 0 0-.474 1.132zm0 8.118a1.587 1.587 0 0 0 .474 1.133 1.617 1.617 0 0 0 1.143.468 1.63 1.63 0 0 0 1.144-.468 1.6 1.6 0 0 0 .474-1.133 1.587 1.587 0 0 0-.474-1.131 1.617 1.617 0 0 0-1.144-.47 1.63 1.63 0 0 0-1.143.47 1.599 1.599 0 0 0-.474 1.131z" fill="currentColor"/>
  </symbol>

  <!-- credit -->
  <symbol id="credit" fill="none" viewBox="0 0 25 25" xmlns="http://www.w3.org/2000/svg">
    <path d="M13.54.56v3.636c4.068.588 7.2 4.068 7.2 8.304 0 1.08-.216 2.1-.576 3.048l3.12 1.836A11.852 11.852 0 0 0 24.34 12.5c0-6.216-4.74-11.34-10.8-11.94zm-1.2 20.34a8.394 8.394 0 0 1-8.4-8.4c0-4.236 3.132-7.716 7.2-8.304V.56C5.068 1.16.34 6.272.34 12.5c0 6.624 5.364 12 11.988 12A11.97 11.97 0 0 0 22 19.592l-3.12-1.836a8.341 8.341 0 0 1-6.54 3.144z" fill="currentColor"/>
  </symbol>

  <!-- available -->
  <symbol id="available" fill="none" viewBox="0 0 24 25" xmlns="http://www.w3.org/2000/svg">
    <path d="M11.845.718C5.348.718.063 6.004.063 12.5s5.285 11.782 11.782 11.782c6.496 0 11.781-5.286 11.781-11.782S18.341.718 11.845.718zm0 21.796C6.323 22.514 1.83 18.022 1.83 12.5c0-5.522 4.493-10.014 10.015-10.014S21.859 6.978 21.859 12.5c0 5.522-4.492 10.014-10.014 10.014zM16.765 8.1l1.35 1.142-7.06 8.343-5.389-4.715 1.164-1.33 4.037 3.533L16.766 8.1z" fill="currentColor"/>
  </symbol>

  <!-- star -->
  <symbol id="star" fill="none" viewBox="0 0 25 23" xmlns="http://www.w3.org/2000/svg">
    <path d="M23.925 8.031l-7.14-1.038L13.591.522a.895.895 0 0 0-.408-.408.904.904 0 0 0-1.206.408L8.786 6.993 1.645 8.031a.898.898 0 0 0-.498 1.536l5.167 5.037-1.221 7.112a.899.899 0 0 0 1.305.948l6.387-3.358 6.387 3.358a.899.899 0 0 0 1.305-.948l-1.22-7.112 5.166-5.037a.898.898 0 0 0 .261-.515.897.897 0 0 0-.759-1.02zm-6.843 5.864l1.016 5.915-5.313-2.79-5.313 2.792 1.016-5.914-4.298-4.19 5.94-.864 2.655-5.38 2.655 5.38 5.94.863-4.298 4.188z" fill="currentColor"/>
  </symbol>

  <!-- eye -->
  <symbol id="eye" fill="none" viewBox="0 0 17 12" xmlns="http://www.w3.org/2000/svg">
    <path d="M8.647.445c-3.545 0-6.573 2.205-7.8 5.318 1.227 3.113 4.255 5.318 7.8 5.318 3.546 0 6.574-2.205 7.8-5.318C15.221 2.65 12.193.445 8.647.445zm0 8.864a3.547 3.547 0 0 1-3.545-3.546 3.547 3.547 0 0 1 3.545-3.546 3.547 3.547 0 0 1 3.546 3.546 3.547 3.547 0 0 1-3.546 3.546zm0-5.673c-1.177 0-2.127.95-2.127 2.127 0 1.177.95 2.127 2.127 2.127 1.177 0 2.127-.95 2.127-2.127 0-1.177-.95-2.127-2.127-2.127z" fill="currentColor"/>
  </symbol>

  <!-- bubble -->
  <symbol id="bubble" fill="none" viewBox="0 0 15 14" xmlns="http://www.w3.org/2000/svg">
    <path d="M2.26.027A1.757 1.757 0 0 0 .504 1.784v7.03a1.757 1.757 0 0 0 1.758 1.757h2.196a.879.879 0 0 1 .703.351l1.67 2.226a.879.879 0 0 0 1.406 0l1.67-2.226a.879.879 0 0 1 .702-.351h2.197a1.757 1.757 0 0 0 1.757-1.758v-7.03A1.757 1.757 0 0 0 12.805.028H2.26z" fill="currentColor"/>
  </symbol>

  <!-- bubble-double -->
  <symbol id="bubble-double" fill="none" viewBox="0 0 22 20" xmlns="http://www.w3.org/2000/svg">
    <path d="M4.022 19.73a1.102 1.102 0 0 1-1.822-.807v-2.461a2.203 2.203 0 0 1-1.556-.643A2.192 2.192 0 0 1 0 14.267V6.585c0-.583.232-1.14.644-1.552A2.203 2.203 0 0 1 2.2 4.39h12.1c.583 0 1.143.231 1.556.643.412.411.644.97.644 1.552v7.682c0 .582-.232 1.14-.644 1.552a2.202 2.202 0 0 1-1.556.643H8.803L4.022 19.73zM17.6 10.994c-.004.135-.004.27 0 .405v-.406c.005-.118.007-1.588.004-4.41 0-.873-.348-1.71-.967-2.327a3.304 3.304 0 0 0-2.333-.963H5.5V2.195c0-.582.232-1.14.644-1.552A2.203 2.203 0 0 1 7.7 0h12.1c.584 0 1.143.231 1.556.643.412.411.644.97.644 1.552v7.682c0 .582-.232 1.14-.644 1.552a2.202 2.202 0 0 1-1.556.643v2.461a1.096 1.096 0 0 1-.653.983 1.103 1.103 0 0 1-1.169-.175l-.378-.259v-4.089z" fill="currentColor"/>
  </symbol>

  <!-- bubble-lined -->
  <symbol id="bubble-lined" fill="none" viewBox="0 0 32 32" xmlns="http://www.w3.org/2000/svg">
    <path d="M26.299.91c2.768 0 5.027 2.206 5.144 4.972l.005.225v14.551c0 2.795-2.186 5.074-4.926 5.192l-.223.005h-6.02L16 31.135l-4.28-5.28H5.7C3.01 25.855.8 23.77.572 21.113l-.014-.23-.005-.225V6.108c0-2.795 2.186-5.075 4.926-5.193L5.702.91h20.597zm0 2.08H5.7c-1.645 0-2.99 1.297-3.084 2.934l-.005.183v14.551c0 1.66 1.286 3.018 2.908 3.113l.182.005h6.994L16 27.851l3.304-4.075h6.995c1.646 0 2.99-1.298 3.085-2.934l.005-.184V6.108c0-1.661-1.286-3.019-2.908-3.114l-.181-.005z" fill="currentColor"/>
  </symbol>

  <!-- star-filled -->
  <symbol id="star--filled" fill="none" viewBox="0 0 15 14" xmlns="http://www.w3.org/2000/svg">
    <path d="M11.653 13.526a.709.709 0 0 1-.33-.082l-3.614-1.9-3.615 1.9a.71.71 0 0 1-1.028-.747l.69-4.025-2.924-2.85a.71.71 0 0 1 .393-1.21l4.04-.587L7.074.364a.737.737 0 0 1 1.272 0l1.806 3.661 4.042.588a.71.71 0 0 1 .393 1.209l-2.925 2.85.69 4.025a.71.71 0 0 1-.698.83z" fill="currentColor"/>
  </symbol>

  <!-- trash -->
  <symbol id="trash" fill="none" viewBox="0 0 15 18" xmlns="http://www.w3.org/2000/svg">
    <path fill-rule="evenodd" clip-rule="evenodd" d="M10.525 3.077h3.947v1.315h-1.315v11.841L11.84 17.55h-9.21l-1.315-1.316V4.393H0V3.076h3.947V1.76A1.316 1.316 0 0 1 5.263.445H9.21a1.316 1.316 0 0 1 1.315 1.316v1.316zM9.21 1.76H5.263v1.316H9.21V1.76zM2.63 16.234h9.21V4.391h-9.21v11.841zM5.263 5.707H3.947v9.21h1.316v-9.21zm1.315 0h1.316v9.21H6.578v-9.21zm2.632 0h1.315v9.21H9.21v-9.21z" fill="currentColor"/>
  </symbol>

  <!-- phone -->
  <symbol id="phone" fill="none" viewBox="0 0 20 20" xmlns="http://www.w3.org/2000/svg">
    <path d="M8.313 11.68a11.939 11.939 0 0 0 4.346 2.872l2.214-1.8a.388.388 0 0 1 .447 0l4.11 2.705c.157.096.289.228.387.385a1.217 1.217 0 0 1-.192 1.522l-1.927 1.944a2.338 2.338 0 0 1-.987.594 2.301 2.301 0 0 1-1.145.047 20.47 20.47 0 0 1-10.072-5.397A20.388 20.388 0 0 1 .05 4.459 2.313 2.313 0 0 1 .1 3.308c.113-.373.318-.71.596-.978L2.693.363a1.172 1.172 0 0 1 .962-.357 1.187 1.187 0 0 1 .87.549l2.737 4.144a.383.383 0 0 1 0 .45L5.46 7.36a11.86 11.86 0 0 0 2.854 4.318z" fill="currentColor"/>
  </symbol>

  <!-- warn-circle -->
  <symbol id="warn-circle" fill="none" viewBox="0 0 16 17" xmlns="http://www.w3.org/2000/svg">
    <path d="M8 16.08c4.415 0 8-3.585 8-8 0-4.416-3.585-8-8-8s-8 3.584-8 8c0 4.415 3.585 8 8 8zM8 1.39a6.688 6.688 0 1 1 0 13.378A6.688 6.688 0 0 1 8 1.39z" fill="currentColor"/>
    <path d="M8.087 9.39a.644.644 0 0 0 .656-.655V4.582a.644.644 0 0 0-.656-.656.644.644 0 0 0-.655.656v4.153c0 .372.306.656.655.656zM8.087 12.45a.644.644 0 0 0 .656-.655v-.656a.644.644 0 0 0-.656-.655.644.644 0 0 0-.655.655v.656c0 .372.306.656.655.656z" fill="currentColor"/>
  </symbol>

  <!-- close-circle -->
  <symbol id="close-circle" viewBox="0 0 330 330" xmlns="http://www.w3.org/2000/svg" fill="currentColor">
    <path d="M165 0C120.926 0 79.492 17.163 48.328 48.327c-64.334 64.333-64.334 169.011-.002 233.345C79.49 312.837 120.926 330 165 330c44.072 0 85.508-17.163 116.672-48.328 64.334-64.334 64.334-169.012 0-233.345C250.508 17.163 209.072 0 165 0zm74.246 239.245a14.956 14.956 0 0 1-10.607 4.394 14.948 14.948 0 0 1-10.605-4.394L165 186.213l-53.033 53.033a14.956 14.956 0 0 1-10.607 4.394 14.948 14.948 0 0 1-10.605-4.394c-5.859-5.857-5.859-15.355 0-21.213L143.787 165l-53.033-53.033c-5.859-5.857-5.859-15.355 0-21.213 5.857-5.857 15.355-5.857 21.213 0L165 143.787l53.031-53.033c5.857-5.857 15.355-5.857 21.213 0 5.859 5.857 5.859 15.355 0 21.213L186.213 165l53.033 53.032c5.858 5.858 5.858 15.356 0 21.213z"/>
  </symbol>

  <symbol id="whatsapp" xmlns="http://www.w3.org/2000/svg" viewBox="0 0 308 308" >
    <g id="XMLID_468_">
        <path id="XMLID_469_" d="M227.904,176.981c-0.6-0.288-23.054-11.345-27.044-12.781c-1.629-0.585-3.374-1.156-5.23-1.156
            c-3.032,0-5.579,1.511-7.563,4.479c-2.243,3.334-9.033,11.271-11.131,13.642c-0.274,0.313-0.648,0.687-0.872,0.687
            c-0.201,0-3.676-1.431-4.728-1.888c-24.087-10.463-42.37-35.624-44.877-39.867c-0.358-0.61-0.373-0.887-0.376-0.887
            c0.088-0.323,0.898-1.135,1.316-1.554c1.223-1.21,2.548-2.805,3.83-4.348c0.607-0.731,1.215-1.463,1.812-2.153
            c1.86-2.164,2.688-3.844,3.648-5.79l0.503-1.011c2.344-4.657,0.342-8.587-0.305-9.856c-0.531-1.062-10.012-23.944-11.02-26.348
            c-2.424-5.801-5.627-8.502-10.078-8.502c-0.413,0,0,0-1.732,0.073c-2.109,0.089-13.594,1.601-18.672,4.802
            c-5.385,3.395-14.495,14.217-14.495,33.249c0,17.129,10.87,33.302,15.537,39.453c0.116,0.155,0.329,0.47,0.638,0.922
            c17.873,26.102,40.154,45.446,62.741,54.469c21.745,8.686,32.042,9.69,37.896,9.69c0.001,0,0.001,0,0.001,0
            c2.46,0,4.429-0.193,6.166-0.364l1.102-0.105c7.512-0.666,24.02-9.22,27.775-19.655c2.958-8.219,3.738-17.199,1.77-20.458
            C233.168,179.508,230.845,178.393,227.904,176.981z"/>
        <path id="XMLID_470_" d="M156.734,0C73.318,0,5.454,67.354,5.454,150.143c0,26.777,7.166,52.988,20.741,75.928L0.212,302.716
            c-0.484,1.429-0.124,3.009,0.933,4.085C1.908,307.58,2.943,308,4,308c0.405,0,0.813-0.061,1.211-0.188l79.92-25.396
            c21.87,11.685,46.588,17.853,71.604,17.853C240.143,300.27,308,232.923,308,150.143C308,67.354,240.143,0,156.734,0z
            M156.734,268.994c-23.539,0-46.338-6.797-65.936-19.657c-0.659-0.433-1.424-0.655-2.194-0.655c-0.407,0-0.815,0.062-1.212,0.188
            l-40.035,12.726l12.924-38.129c0.418-1.234,0.209-2.595-0.561-3.647c-14.924-20.392-22.813-44.485-22.813-69.677
            c0-65.543,53.754-118.867,119.826-118.867c66.064,0,119.812,53.324,119.812,118.867
            C276.546,215.678,222.799,268.994,156.734,268.994z"/>
    </g>
  </symbol>

</svg>

